{"glyphs":{"0":{"ha":883,"x_min":75,"x_max":808,"o":"m 442 -14 q 167 106 260 -14 q 75 458 75 225 q 167 811 75 692 q 442 931 260 931 q 716 811 624 931 q 808 458 808 692 q 716 106 808 225 q 442 -14 624 -14 m 442 140 q 574 218 531 140 q 617 458 617 296 q 574 699 617 621 q 442 776 531 776 q 310 699 353 776 q 267 458 267 621 q 310 218 267 296 q 442 140 353 140 z "},"1":{"ha":594,"x_min":43,"x_max":476,"o":"m 476 917 l 476 0 l 290 0 l 290 683 q 292 718 290 706 q 184 640 242 672 q 68 597 126 608 l 43 758 q 197 816 107 765 q 321 917 286 867 l 476 917 z "},"2":{"ha":821,"x_min":61,"x_max":751,"o":"m 90 131 q 357 328 258 243 q 500 485 456 413 q 544 628 544 557 q 505 733 544 693 q 396 774 465 774 q 275 721 319 774 q 226 571 231 668 l 61 633 q 164 851 71 772 q 407 931 257 931 q 588 890 514 931 q 700 784 663 850 q 738 639 738 718 q 640 395 738 510 q 331 150 543 281 l 331 149 q 499 154 411 154 l 751 154 l 751 0 l 90 0 l 90 131 z "},"3":{"ha":818,"x_min":54,"x_max":742,"o":"m 411 931 q 641 861 558 931 q 724 681 724 792 q 696 563 724 613 q 628 489 668 514 q 551 464 588 464 l 551 460 q 641 436 597 460 q 713 365 685 413 q 742 249 742 317 q 698 113 742 172 q 576 19 654 53 q 399 -14 499 -14 q 178 41 264 -14 q 54 211 93 96 l 228 289 q 284 176 243 213 q 400 140 325 140 q 513 176 471 140 q 554 271 554 211 q 515 363 554 335 q 390 392 475 392 l 344 392 l 344 525 l 383 525 q 533 651 533 525 q 499 744 533 713 q 403 776 465 776 q 300 743 339 776 q 251 646 261 710 l 81 708 q 195 874 107 818 q 411 931 283 931 z "},"4":{"ha":879,"x_min":51,"x_max":831,"o":"m 831 215 l 682 215 l 682 0 l 508 0 l 508 215 l 51 215 l 51 317 l 453 917 l 682 917 l 682 354 l 831 354 l 831 215 m 236 354 l 508 354 l 508 635 l 513 785 l 510 785 q 426 633 479 714 l 236 354 z "},"5":{"ha":808,"x_min":58,"x_max":743,"o":"m 456 590 q 666 512 589 590 q 743 306 743 433 q 649 69 743 151 q 403 -14 556 -14 q 195 33 279 -14 q 58 179 111 79 l 231 275 q 287 173 249 207 q 401 139 325 139 q 522 179 478 139 q 565 293 565 219 q 524 408 564 368 q 406 447 483 447 q 238 381 290 447 l 88 397 l 144 917 l 696 917 l 696 763 l 289 763 l 263 547 l 258 521 l 260 521 q 341 572 290 554 q 456 590 392 590 z "},"6":{"ha":857,"x_min":81,"x_max":790,"o":"m 467 931 q 659 883 582 931 q 775 731 736 835 l 614 656 q 454 772 578 772 q 350 733 396 772 q 278 622 304 693 q 253 460 253 551 l 253 436 l 257 436 q 343 539 279 504 q 490 574 407 574 q 646 538 578 574 q 752 438 714 503 q 790 285 790 372 q 700 67 790 147 q 451 -14 610 -14 q 177 110 274 -14 q 81 458 81 235 q 131 719 81 613 q 267 878 181 825 q 467 931 354 931 m 454 433 q 340 393 383 433 q 297 288 297 353 q 340 179 297 219 q 454 139 383 139 q 569 178 528 139 q 610 288 610 217 q 569 394 610 356 q 454 433 528 433 z "},"7":{"ha":826,"x_min":57,"x_max":783,"o":"m 783 917 l 783 771 q 544 417 617 604 q 472 0 472 229 l 281 0 q 592 760 281 435 l 57 760 l 57 917 l 783 917 z "},"8":{"ha":865,"x_min":75,"x_max":790,"o":"m 432 928 q 669 861 582 928 q 757 678 757 794 q 720 554 757 607 q 618 475 683 501 l 618 474 q 745 386 700 444 q 790 244 790 328 q 694 56 790 125 q 432 -14 597 -14 q 172 56 268 -14 q 75 244 75 125 q 120 387 75 328 q 249 474 165 446 l 249 475 q 145 554 182 501 q 108 678 108 607 q 195 861 108 794 q 432 928 282 928 m 432 781 q 329 749 367 781 q 292 660 292 717 q 330 572 292 604 q 432 539 368 539 q 535 572 497 539 q 574 660 574 604 q 536 749 574 717 q 432 781 499 781 m 432 135 q 557 170 513 135 q 601 268 601 206 q 556 367 601 332 q 432 403 511 403 q 308 367 354 403 q 263 268 263 331 q 308 170 263 206 q 432 135 354 135 z "},"9":{"ha":858,"x_min":71,"x_max":783,"o":"m 413 931 q 687 806 590 931 q 783 456 783 682 q 686 103 783 219 q 408 -14 589 -14 q 201 36 282 -14 q 78 189 119 86 l 254 264 q 305 170 271 201 q 410 139 339 139 q 562 219 514 139 q 610 451 610 300 l 610 471 l 604 471 q 521 365 586 400 q 372 331 456 331 q 218 367 286 331 q 110 469 150 403 q 71 625 71 536 q 162 849 71 767 q 413 931 253 931 m 410 774 q 294 735 335 774 q 254 625 254 696 q 294 517 254 556 q 410 478 335 478 q 523 518 481 478 q 565 625 565 558 q 523 733 565 693 q 410 774 481 774 z "}," ":{"ha":425,"x_min":0,"x_max":0,"o":""},"A":{"ha":932,"x_min":17,"x_max":915,"o":"m 640 224 l 288 224 l 213 0 l 17 0 l 351 917 l 581 917 l 915 0 l 717 0 l 640 224 m 593 365 l 507 624 l 465 763 l 463 763 l 424 626 l 335 365 l 593 365 z "},"Á":{"ha":932,"x_min":17,"x_max":915,"o":"m 524 1014 l 381 1014 l 458 1229 l 647 1229 l 524 1014 m 640 224 l 288 224 l 213 0 l 17 0 l 351 917 l 581 917 l 915 0 l 717 0 l 640 224 m 593 365 l 507 624 l 465 763 l 463 763 l 424 626 l 335 365 l 593 365 z "},"Ă":{"ha":932,"x_min":17,"x_max":915,"o":"m 640 224 l 288 224 l 213 0 l 17 0 l 351 917 l 581 917 l 915 0 l 717 0 l 640 224 m 593 365 l 507 624 l 465 763 l 463 763 l 424 626 l 335 365 l 593 365 m 689 1222 q 628 1063 689 1122 q 465 1004 568 1004 q 302 1063 363 1004 q 242 1222 242 1122 l 371 1222 q 397 1148 371 1178 q 465 1118 424 1118 q 533 1148 507 1118 q 560 1222 560 1178 l 689 1222 z "},"Â":{"ha":932,"x_min":17,"x_max":915,"o":"m 363 1008 l 215 1008 l 369 1240 l 561 1240 l 715 1008 l 568 1008 l 465 1144 l 363 1008 m 640 224 l 288 224 l 213 0 l 17 0 l 351 917 l 581 917 l 915 0 l 717 0 l 640 224 m 593 365 l 507 624 l 465 763 l 463 763 l 424 626 l 335 365 l 593 365 z "},"Ä":{"ha":932,"x_min":17,"x_max":915,"o":"m 640 224 l 288 224 l 213 0 l 17 0 l 351 917 l 581 917 l 915 0 l 717 0 l 640 224 m 593 365 l 507 624 l 465 763 l 463 763 l 424 626 l 335 365 l 593 365 m 318 1201 q 394 1175 367 1201 q 422 1104 422 1149 q 394 1033 422 1060 q 318 1007 367 1007 q 243 1033 271 1007 q 215 1104 215 1060 q 243 1175 215 1149 q 318 1201 271 1201 m 610 1201 q 687 1175 658 1201 q 715 1104 715 1149 q 687 1033 715 1060 q 610 1007 658 1007 q 535 1033 563 1007 q 507 1104 507 1060 q 535 1175 507 1149 q 610 1201 563 1201 z "},"À":{"ha":932,"x_min":17,"x_max":915,"o":"m 389 1014 l 265 1229 l 454 1229 l 532 1014 l 389 1014 m 640 224 l 288 224 l 213 0 l 17 0 l 351 917 l 581 917 l 915 0 l 717 0 l 640 224 m 593 365 l 507 624 l 465 763 l 463 763 l 424 626 l 335 365 l 593 365 z "},"Ā":{"ha":932,"x_min":17,"x_max":915,"o":"m 640 224 l 288 224 l 213 0 l 17 0 l 351 917 l 581 917 l 915 0 l 717 0 l 640 224 m 593 365 l 507 624 l 465 763 l 463 763 l 424 626 l 335 365 l 593 365 m 718 1026 l 213 1026 l 213 1153 l 718 1153 l 718 1026 z "},"Ą":{"ha":932,"x_min":17,"x_max":928,"o":"m 928 -268 q 794 -299 882 -299 q 662 -259 713 -299 q 611 -146 611 -219 q 714 6 611 -49 l 640 224 l 288 224 l 213 0 l 17 0 l 351 917 l 581 917 l 915 0 q 785 -51 822 -22 q 749 -121 749 -81 q 771 -169 749 -151 q 831 -186 793 -186 q 900 -171 876 -186 l 928 -268 m 593 365 l 507 624 l 465 763 l 463 763 l 424 626 l 335 365 l 593 365 z "},"Å":{"ha":932,"x_min":17,"x_max":915,"o":"m 640 224 l 288 224 l 213 0 l 17 0 l 343 881 q 290 936 308 901 q 271 1017 271 971 q 324 1144 271 1096 q 467 1192 378 1192 q 610 1144 557 1192 q 663 1017 663 1096 q 643 937 663 972 q 589 881 624 901 l 915 0 l 717 0 l 640 224 m 467 1097 q 403 1074 428 1097 q 379 1013 379 1050 q 403 951 379 975 q 467 928 428 928 q 530 951 506 928 q 554 1013 554 975 q 530 1074 554 1050 q 467 1097 506 1097 m 593 365 l 507 624 l 467 763 l 463 763 l 424 626 l 335 365 l 593 365 z "},"Ã":{"ha":932,"x_min":17,"x_max":915,"o":"m 640 224 l 288 224 l 213 0 l 17 0 l 351 917 l 581 917 l 915 0 l 717 0 l 640 224 m 593 365 l 507 624 l 465 763 l 463 763 l 424 626 l 335 365 l 593 365 m 732 1219 q 683 1063 726 1115 q 558 1011 639 1011 q 491 1025 518 1011 q 435 1064 464 1039 q 402 1088 415 1081 q 374 1096 389 1096 q 335 1075 349 1096 q 315 1011 321 1054 l 199 1011 q 374 1219 210 1219 q 440 1206 414 1219 q 496 1167 467 1192 q 529 1142 517 1150 q 557 1135 542 1135 q 596 1156 582 1135 q 615 1219 610 1176 l 732 1219 z "},"Æ":{"ha":1299,"x_min":0,"x_max":1246,"o":"m 1246 150 l 1246 0 l 600 0 l 600 281 l 322 281 l 196 0 l 0 0 l 446 917 l 1226 917 l 1226 767 l 782 767 l 782 533 l 1121 533 l 1121 390 l 782 390 l 782 150 l 1246 150 m 600 418 l 600 771 l 544 771 l 385 418 l 600 418 z "},"B":{"ha":933,"x_min":119,"x_max":869,"o":"m 119 917 l 521 917 q 765 852 685 917 q 846 667 846 788 q 800 534 846 590 q 671 464 754 478 l 671 463 q 817 391 765 449 q 869 251 869 333 q 783 66 869 132 q 535 0 697 0 l 119 0 l 119 917 m 494 532 q 647 650 647 532 q 494 768 647 768 l 306 768 l 306 532 l 494 532 m 518 144 q 633 176 594 144 q 671 265 671 207 q 633 354 671 324 q 518 385 594 385 l 306 385 l 306 144 l 518 144 z "},"C":{"ha":949,"x_min":74,"x_max":904,"o":"m 904 253 q 761 53 864 121 q 515 -14 658 -14 q 281 43 381 -14 q 127 206 181 100 q 74 458 74 313 q 127 710 74 604 q 280 874 181 817 q 513 931 379 931 q 755 871 656 931 q 892 693 854 811 l 718 619 q 649 738 696 701 q 521 774 601 774 q 338 692 404 774 q 272 458 272 610 q 336 225 272 307 q 517 143 400 143 q 728 306 685 143 l 904 253 z "},"Ć":{"ha":949,"x_min":74,"x_max":904,"o":"m 690 1229 l 567 1014 l 424 1014 l 501 1229 l 690 1229 m 904 253 q 761 53 864 121 q 515 -14 658 -14 q 281 43 381 -14 q 127 206 181 100 q 74 458 74 313 q 127 710 74 604 q 280 874 181 817 q 513 931 379 931 q 755 871 656 931 q 892 693 854 811 l 718 619 q 649 738 696 701 q 521 774 601 774 q 338 692 404 774 q 272 458 272 610 q 336 225 272 307 q 517 143 400 143 q 728 306 685 143 l 904 253 z "},"Č":{"ha":949,"x_min":74,"x_max":904,"o":"m 601 1010 l 410 1010 l 256 1242 l 403 1242 l 506 1106 l 608 1242 l 756 1242 l 601 1010 m 904 253 q 761 53 864 121 q 515 -14 658 -14 q 281 43 381 -14 q 127 206 181 100 q 74 458 74 313 q 127 710 74 604 q 280 874 181 817 q 513 931 379 931 q 755 871 656 931 q 892 693 854 811 l 718 619 q 649 738 696 701 q 521 774 601 774 q 338 692 404 774 q 272 458 272 610 q 336 225 272 307 q 517 143 400 143 q 728 306 685 143 l 904 253 z "},"Ç":{"ha":949,"x_min":74,"x_max":904,"o":"m 904 253 q 794 79 871 144 q 610 -6 718 14 q 667 -67 647 -32 q 686 -140 686 -101 q 635 -256 686 -214 q 501 -299 585 -299 q 336 -246 393 -299 l 386 -147 q 430 -178 404 -167 q 485 -189 456 -189 q 540 -169 518 -189 q 561 -115 561 -149 q 540 -57 561 -81 q 463 -11 519 -33 q 177 128 281 4 q 74 458 74 253 q 127 710 74 604 q 280 874 181 817 q 513 931 379 931 q 755 871 656 931 q 892 693 854 811 l 718 619 q 649 738 696 701 q 521 774 601 774 q 338 692 404 774 q 272 458 272 610 q 336 225 272 307 q 517 143 400 143 q 728 306 685 143 l 904 253 z "},"D":{"ha":999,"x_min":119,"x_max":925,"o":"m 474 917 q 807 797 689 917 q 925 458 925 678 q 807 119 925 239 q 474 0 689 0 l 119 0 l 119 917 l 474 917 m 464 153 q 660 231 594 153 q 726 458 726 310 q 660 685 726 607 q 464 764 594 764 l 311 764 l 311 153 l 464 153 z "},"Ð":{"ha":1028,"x_min":25,"x_max":953,"o":"m 503 917 q 835 797 718 917 q 953 458 953 678 q 835 119 953 239 q 503 0 718 0 l 149 0 l 149 394 l 25 394 l 25 525 l 149 525 l 149 917 l 503 917 m 492 153 q 689 231 622 153 q 756 458 756 310 q 689 685 756 607 q 492 764 622 764 l 340 764 l 340 525 l 554 525 l 554 394 l 340 394 l 340 153 l 492 153 z "},"Ď":{"ha":999,"x_min":119,"x_max":925,"o":"m 356 1010 l 201 1242 l 349 1242 l 451 1106 l 554 1242 l 701 1242 l 547 1010 l 356 1010 m 474 917 q 807 797 689 917 q 925 458 925 678 q 807 119 925 239 q 474 0 689 0 l 119 0 l 119 917 l 474 917 m 464 153 q 660 231 594 153 q 726 458 726 310 q 660 685 726 607 q 464 764 594 764 l 311 764 l 311 153 l 464 153 z "},"Đ":{"ha":1028,"x_min":25,"x_max":953,"o":"m 503 917 q 835 797 718 917 q 953 458 953 678 q 835 119 953 239 q 503 0 718 0 l 149 0 l 149 394 l 25 394 l 25 525 l 149 525 l 149 917 l 503 917 m 492 153 q 689 231 622 153 q 756 458 756 310 q 689 685 756 607 q 492 764 622 764 l 340 764 l 340 525 l 554 525 l 554 394 l 340 394 l 340 153 l 492 153 z "},"E":{"ha":879,"x_min":119,"x_max":826,"o":"m 826 154 l 826 0 l 119 0 l 119 917 l 807 917 l 807 763 l 311 763 l 311 535 l 701 535 l 701 388 l 311 388 l 311 154 l 826 154 z "},"É":{"ha":879,"x_min":119,"x_max":826,"o":"m 515 1014 l 372 1014 l 450 1229 l 639 1229 l 515 1014 m 826 154 l 826 0 l 119 0 l 119 917 l 807 917 l 807 763 l 311 763 l 311 535 l 701 535 l 701 388 l 311 388 l 311 154 l 826 154 z "},"Ě":{"ha":879,"x_min":119,"x_max":826,"o":"m 358 1010 l 204 1242 l 351 1242 l 454 1106 l 557 1242 l 704 1242 l 550 1010 l 358 1010 m 826 154 l 826 0 l 119 0 l 119 917 l 807 917 l 807 763 l 311 763 l 311 535 l 701 535 l 701 388 l 311 388 l 311 154 l 826 154 z "},"Ê":{"ha":879,"x_min":119,"x_max":826,"o":"m 354 1008 l 207 1008 l 361 1240 l 553 1240 l 707 1008 l 560 1008 l 457 1144 l 354 1008 m 826 154 l 826 0 l 119 0 l 119 917 l 807 917 l 807 763 l 311 763 l 311 535 l 701 535 l 701 388 l 311 388 l 311 154 l 826 154 z "},"Ë":{"ha":879,"x_min":119,"x_max":826,"o":"m 826 154 l 826 0 l 119 0 l 119 917 l 807 917 l 807 763 l 311 763 l 311 535 l 701 535 l 701 388 l 311 388 l 311 154 l 826 154 m 310 1201 q 386 1175 358 1201 q 414 1104 414 1149 q 386 1033 414 1060 q 310 1007 358 1007 q 235 1033 263 1007 q 207 1104 207 1060 q 235 1175 207 1149 q 310 1201 263 1201 m 601 1201 q 678 1175 650 1201 q 707 1104 707 1149 q 678 1033 707 1060 q 601 1007 650 1007 q 526 1033 554 1007 q 499 1104 499 1060 q 526 1175 499 1149 q 601 1201 554 1201 z "},"Ė":{"ha":879,"x_min":119,"x_max":826,"o":"m 826 154 l 826 0 l 119 0 l 119 917 l 807 917 l 807 763 l 311 763 l 311 535 l 701 535 l 701 388 l 311 388 l 311 154 l 826 154 m 457 1222 q 540 1196 511 1222 q 569 1121 569 1169 q 540 1046 569 1072 q 457 1019 511 1019 q 375 1046 404 1019 q 346 1121 346 1072 q 375 1196 346 1169 q 457 1222 404 1222 z "},"È":{"ha":879,"x_min":119,"x_max":826,"o":"m 410 1014 l 286 1229 l 475 1229 l 553 1014 l 410 1014 m 826 154 l 826 0 l 119 0 l 119 917 l 807 917 l 807 763 l 311 763 l 311 535 l 701 535 l 701 388 l 311 388 l 311 154 l 826 154 z "},"Ē":{"ha":879,"x_min":119,"x_max":826,"o":"m 826 154 l 826 0 l 119 0 l 119 917 l 807 917 l 807 763 l 311 763 l 311 535 l 701 535 l 701 388 l 311 388 l 311 154 l 826 154 m 710 1026 l 204 1026 l 204 1153 l 710 1153 l 710 1026 z "},"Ę":{"ha":879,"x_min":119,"x_max":839,"o":"m 839 -268 q 706 -299 793 -299 q 574 -260 624 -299 q 524 -151 524 -221 q 638 0 524 -50 l 119 0 l 119 917 l 807 917 l 807 763 l 311 763 l 311 535 l 701 535 l 701 388 l 311 388 l 311 154 l 826 154 l 826 1 l 828 0 q 698 -52 735 -22 q 661 -121 661 -82 q 683 -169 661 -151 q 742 -186 704 -186 q 811 -171 788 -186 l 839 -268 z "},"F":{"ha":850,"x_min":119,"x_max":806,"o":"m 311 763 l 311 531 l 701 531 l 701 375 l 311 375 l 311 0 l 119 0 l 119 917 l 806 917 l 806 763 l 311 763 z "},"G":{"ha":1004,"x_min":74,"x_max":914,"o":"m 914 485 l 914 0 l 774 0 l 769 110 q 499 -14 686 -14 q 276 42 372 -14 q 127 203 181 97 q 74 457 74 310 q 128 710 74 603 q 284 874 183 817 q 519 931 385 931 q 762 876 668 931 q 910 706 856 822 l 733 629 q 658 737 713 700 q 525 774 603 774 q 339 692 406 774 q 272 458 272 610 q 338 221 272 301 q 529 140 403 140 q 688 187 626 140 q 749 322 749 233 l 749 343 l 481 343 l 481 485 l 914 485 z "},"Ğ":{"ha":1004,"x_min":74,"x_max":914,"o":"m 914 485 l 914 0 l 774 0 l 769 110 q 499 -14 686 -14 q 276 42 372 -14 q 127 203 181 97 q 74 457 74 310 q 128 710 74 603 q 284 874 183 817 q 519 931 385 931 q 762 876 668 931 q 910 706 856 822 l 733 629 q 658 737 713 700 q 525 774 603 774 q 339 692 406 774 q 272 458 272 610 q 338 221 272 301 q 529 140 403 140 q 688 187 626 140 q 749 322 749 233 l 749 343 l 481 343 l 481 485 l 914 485 m 736 1222 q 676 1063 736 1122 q 513 1004 615 1004 q 349 1063 410 1004 q 289 1222 289 1122 l 418 1222 q 444 1148 418 1178 q 513 1118 471 1118 q 581 1148 554 1118 q 607 1222 607 1178 l 736 1222 z "},"H":{"ha":1026,"x_min":119,"x_max":907,"o":"m 907 917 l 907 0 l 715 0 l 715 386 l 311 386 l 311 0 l 119 0 l 119 917 l 311 917 l 311 540 l 715 540 l 715 917 l 907 917 z "},"I":{"ha":431,"x_min":119,"x_max":311,"o":"m 311 0 l 119 0 l 119 917 l 311 917 l 311 0 z "},"Ĳ":{"ha":1265,"x_min":119,"x_max":1160,"o":"m 311 0 l 119 0 l 119 917 l 311 917 l 311 0 m 1160 338 q 1065 79 1160 172 q 800 -14 971 -14 q 560 59 642 -14 q 478 258 478 132 q 486 340 478 297 l 674 374 q 668 296 668 335 q 701 180 668 217 q 806 143 735 143 q 931 197 894 143 q 968 364 968 250 l 968 917 l 1160 917 l 1160 338 z "},"Í":{"ha":431,"x_min":119,"x_max":397,"o":"m 397 1229 l 274 1014 l 131 1014 l 208 1229 l 397 1229 m 311 0 l 119 0 l 119 917 l 311 917 l 311 0 z "},"Î":{"ha":431,"x_min":-35,"x_max":465,"o":"m 318 1008 l 215 1144 l 113 1008 l -35 1008 l 119 1240 l 311 1240 l 465 1008 l 318 1008 m 311 0 l 119 0 l 119 917 l 311 917 l 311 0 z "},"Ï":{"ha":431,"x_min":-19,"x_max":450,"o":"m 81 1201 q 156 1175 128 1201 q 183 1104 183 1149 q 156 1033 183 1060 q 81 1007 128 1007 q 8 1033 35 1007 q -19 1104 -19 1060 q 8 1175 -19 1149 q 81 1201 35 1201 m 347 1201 q 422 1175 394 1201 q 450 1104 450 1149 q 422 1033 450 1060 q 347 1007 394 1007 q 274 1033 301 1007 q 247 1104 247 1060 q 274 1175 247 1149 q 347 1201 301 1201 m 311 0 l 119 0 l 119 917 l 311 917 l 311 0 z "},"İ":{"ha":431,"x_min":104,"x_max":328,"o":"m 311 0 l 119 0 l 119 917 l 311 917 l 311 0 m 215 1222 q 299 1196 269 1222 q 328 1121 328 1169 q 299 1046 328 1072 q 215 1019 269 1019 q 133 1046 163 1019 q 104 1121 104 1072 q 133 1196 104 1169 q 215 1222 163 1222 z "},"Ì":{"ha":431,"x_min":15,"x_max":311,"o":"m 282 1014 l 139 1014 l 15 1229 l 204 1229 l 282 1014 m 311 0 l 119 0 l 119 917 l 311 917 l 311 0 z "},"Ī":{"ha":431,"x_min":35,"x_max":394,"o":"m 394 1026 l 35 1026 l 35 1153 l 394 1153 l 394 1026 m 311 0 l 119 0 l 119 917 l 311 917 l 311 0 z "},"Į":{"ha":431,"x_min":24,"x_max":339,"o":"m 339 -265 q 203 -299 288 -299 q 73 -260 122 -299 q 24 -151 24 -221 q 50 -65 24 -104 q 125 0 76 -26 l 119 0 l 119 917 l 311 917 l 311 0 q 193 -55 226 -26 q 160 -118 160 -83 q 179 -167 160 -150 q 236 -185 199 -185 q 308 -168 282 -185 l 339 -265 z "},"J":{"ha":835,"x_min":47,"x_max":729,"o":"m 729 338 q 635 79 729 172 q 369 -14 540 -14 q 129 59 211 -14 q 47 258 47 132 q 56 340 47 297 l 243 374 q 238 296 238 335 q 271 180 238 217 q 375 143 304 143 q 501 197 464 143 q 538 364 538 250 l 538 917 l 729 917 l 729 338 z "},"K":{"ha":943,"x_min":119,"x_max":921,"o":"m 442 419 l 311 271 l 311 0 l 119 0 l 119 917 l 311 917 l 311 482 l 688 917 l 910 917 l 581 543 l 921 0 l 701 0 l 442 419 z "},"L":{"ha":835,"x_min":119,"x_max":794,"o":"m 794 154 l 794 0 l 119 0 l 119 917 l 311 917 l 311 154 l 794 154 z "},"Ĺ":{"ha":835,"x_min":119,"x_max":794,"o":"m 274 1014 l 131 1014 l 208 1229 l 397 1229 l 274 1014 m 794 154 l 794 0 l 119 0 l 119 917 l 311 917 l 311 154 l 794 154 z "},"Ľ":{"ha":835,"x_min":119,"x_max":794,"o":"m 556 663 l 432 663 l 464 974 l 628 974 l 556 663 m 794 154 l 794 0 l 119 0 l 119 917 l 311 917 l 311 154 l 794 154 z "},"Ŀ":{"ha":881,"x_min":119,"x_max":856,"o":"m 794 154 l 794 0 l 119 0 l 119 917 l 311 917 l 311 154 l 794 154 m 735 600 q 823 569 790 600 q 856 488 856 539 q 823 406 856 436 q 735 375 790 375 q 647 405 679 375 q 614 488 614 435 q 647 570 614 540 q 735 600 679 600 z "},"Ł":{"ha":886,"x_min":21,"x_max":847,"o":"m 847 154 l 847 0 l 172 0 l 172 322 l 21 246 l 21 399 l 172 474 l 172 917 l 364 917 l 364 571 l 604 692 l 604 539 l 364 418 l 364 154 l 847 154 z "},"M":{"ha":1236,"x_min":119,"x_max":1117,"o":"m 1117 0 l 944 0 l 944 478 l 953 746 l 950 746 l 696 0 l 539 0 l 286 746 l 283 746 l 293 478 l 293 0 l 119 0 l 119 917 l 397 917 l 563 417 l 621 210 l 624 210 l 683 415 l 847 917 l 1117 917 l 1117 0 z "},"N":{"ha":1026,"x_min":119,"x_max":907,"o":"m 907 0 l 688 0 l 367 539 l 288 693 l 286 693 l 292 531 l 292 0 l 119 0 l 119 917 l 338 917 l 658 379 l 738 224 l 740 224 l 735 386 l 735 917 l 907 917 l 907 0 z "},"Ń":{"ha":1026,"x_min":119,"x_max":907,"o":"m 699 1229 l 575 1014 l 432 1014 l 510 1229 l 699 1229 m 907 0 l 688 0 l 367 539 l 288 693 l 286 693 l 292 531 l 292 0 l 119 0 l 119 917 l 338 917 l 658 379 l 738 224 l 740 224 l 735 386 l 735 917 l 907 917 l 907 0 z "},"Ň":{"ha":1026,"x_min":119,"x_max":907,"o":"m 608 1010 l 417 1010 l 263 1242 l 410 1242 l 513 1106 l 615 1242 l 763 1242 l 608 1010 m 907 0 l 688 0 l 367 539 l 288 693 l 286 693 l 292 531 l 292 0 l 119 0 l 119 917 l 338 917 l 658 379 l 738 224 l 740 224 l 735 386 l 735 917 l 907 917 l 907 0 z "},"Ñ":{"ha":1026,"x_min":119,"x_max":907,"o":"m 907 0 l 688 0 l 367 539 l 288 693 l 286 693 l 292 531 l 292 0 l 119 0 l 119 917 l 338 917 l 658 379 l 738 224 l 740 224 l 735 386 l 735 917 l 907 917 l 907 0 m 782 1219 q 733 1063 776 1115 q 608 1011 689 1011 q 541 1025 568 1011 q 485 1064 514 1039 q 452 1088 465 1081 q 424 1096 439 1096 q 385 1075 399 1096 q 365 1011 371 1054 l 249 1011 q 424 1219 260 1219 q 490 1206 464 1219 q 546 1167 517 1192 q 579 1142 567 1150 q 607 1135 592 1135 q 646 1156 632 1135 q 665 1219 660 1176 l 782 1219 z "},"O":{"ha":1029,"x_min":74,"x_max":956,"o":"m 515 931 q 749 874 650 931 q 902 710 849 817 q 956 458 956 604 q 902 206 956 313 q 749 43 849 100 q 515 -14 650 -14 q 281 43 381 -14 q 127 206 181 100 q 74 458 74 313 q 127 710 74 604 q 281 874 181 817 q 515 931 381 931 m 515 774 q 335 692 399 774 q 272 458 272 611 q 335 224 272 306 q 515 143 399 143 q 694 224 631 143 q 757 458 757 306 q 694 692 757 611 q 515 774 631 774 z "},"Ó":{"ha":1029,"x_min":74,"x_max":956,"o":"m 697 1229 l 574 1014 l 431 1014 l 508 1229 l 697 1229 m 515 931 q 749 874 650 931 q 902 710 849 817 q 956 458 956 604 q 902 206 956 313 q 749 43 849 100 q 515 -14 650 -14 q 281 43 381 -14 q 127 206 181 100 q 74 458 74 313 q 127 710 74 604 q 281 874 181 817 q 515 931 381 931 m 515 774 q 335 692 399 774 q 272 458 272 611 q 335 224 272 306 q 515 143 399 143 q 694 224 631 143 q 757 458 757 306 q 694 692 757 611 q 515 774 631 774 z "},"Ô":{"ha":1029,"x_min":74,"x_max":956,"o":"m 618 1008 l 515 1144 l 413 1008 l 265 1008 l 419 1240 l 611 1240 l 765 1008 l 618 1008 m 515 931 q 749 874 650 931 q 902 710 849 817 q 956 458 956 604 q 902 206 956 313 q 749 43 849 100 q 515 -14 650 -14 q 281 43 381 -14 q 127 206 181 100 q 74 458 74 313 q 127 710 74 604 q 281 874 181 817 q 515 931 381 931 m 515 774 q 335 692 399 774 q 272 458 272 611 q 335 224 272 306 q 515 143 399 143 q 694 224 631 143 q 757 458 757 306 q 694 692 757 611 q 515 774 631 774 z "},"Ö":{"ha":1029,"x_min":74,"x_max":956,"o":"m 515 931 q 749 874 650 931 q 902 710 849 817 q 956 458 956 604 q 902 206 956 313 q 749 43 849 100 q 515 -14 650 -14 q 281 43 381 -14 q 127 206 181 100 q 74 458 74 313 q 127 710 74 604 q 281 874 181 817 q 515 931 381 931 m 515 774 q 335 692 399 774 q 272 458 272 611 q 335 224 272 306 q 515 143 399 143 q 694 224 631 143 q 757 458 757 306 q 694 692 757 611 q 515 774 631 774 m 368 1201 q 444 1175 417 1201 q 472 1104 472 1149 q 444 1033 472 1060 q 368 1007 417 1007 q 293 1033 321 1007 q 265 1104 265 1060 q 293 1175 265 1149 q 368 1201 321 1201 m 660 1201 q 737 1175 708 1201 q 765 1104 765 1149 q 737 1033 765 1060 q 660 1007 708 1007 q 585 1033 613 1007 q 557 1104 557 1060 q 585 1175 557 1149 q 660 1201 613 1201 z "},"Ò":{"ha":1029,"x_min":74,"x_max":956,"o":"m 582 1014 l 439 1014 l 315 1229 l 504 1229 l 582 1014 m 515 931 q 749 874 650 931 q 902 710 849 817 q 956 458 956 604 q 902 206 956 313 q 749 43 849 100 q 515 -14 650 -14 q 281 43 381 -14 q 127 206 181 100 q 74 458 74 313 q 127 710 74 604 q 281 874 181 817 q 515 931 381 931 m 515 774 q 335 692 399 774 q 272 458 272 611 q 335 224 272 306 q 515 143 399 143 q 694 224 631 143 q 757 458 757 306 q 694 692 757 611 q 515 774 631 774 z "},"Ő":{"ha":1029,"x_min":74,"x_max":956,"o":"m 564 1229 l 439 1014 l 297 1014 l 374 1229 l 564 1229 m 851 1229 l 726 1014 l 585 1014 l 661 1229 l 851 1229 m 515 931 q 749 874 650 931 q 902 710 849 817 q 956 458 956 604 q 902 206 956 313 q 749 43 849 100 q 515 -14 650 -14 q 281 43 381 -14 q 127 206 181 100 q 74 458 74 313 q 127 710 74 604 q 281 874 181 817 q 515 931 381 931 m 515 774 q 335 692 399 774 q 272 458 272 611 q 335 224 272 306 q 515 143 399 143 q 694 224 631 143 q 757 458 757 306 q 694 692 757 611 q 515 774 631 774 z "},"Ō":{"ha":1029,"x_min":74,"x_max":956,"o":"m 515 931 q 749 874 650 931 q 902 710 849 817 q 956 458 956 604 q 902 206 956 313 q 749 43 849 100 q 515 -14 650 -14 q 281 43 381 -14 q 127 206 181 100 q 74 458 74 313 q 127 710 74 604 q 281 874 181 817 q 515 931 381 931 m 515 774 q 335 692 399 774 q 272 458 272 611 q 335 224 272 306 q 515 143 399 143 q 694 224 631 143 q 757 458 757 306 q 694 692 757 611 q 515 774 631 774 m 768 1026 l 263 1026 l 263 1153 l 768 1153 l 768 1026 z "},"Ø":{"ha":1029,"x_min":74,"x_max":956,"o":"m 831 811 q 924 660 892 750 q 956 458 956 571 q 902 206 956 313 q 749 43 849 100 q 515 -14 650 -14 q 276 46 376 -14 l 213 -43 l 101 -43 l 203 100 q 107 253 140 163 q 74 458 74 344 q 127 710 74 604 q 281 874 181 817 q 515 931 381 931 q 760 868 657 931 l 817 947 l 928 947 l 831 811 m 515 774 q 335 692 399 774 q 272 458 272 611 q 318 250 272 328 l 656 731 q 515 774 597 774 m 515 143 q 694 224 631 143 q 757 458 757 306 q 717 657 757 579 l 382 181 q 515 143 436 143 z "},"Õ":{"ha":1029,"x_min":74,"x_max":956,"o":"m 515 931 q 749 874 650 931 q 902 710 849 817 q 956 458 956 604 q 902 206 956 313 q 749 43 849 100 q 515 -14 650 -14 q 281 43 381 -14 q 127 206 181 100 q 74 458 74 313 q 127 710 74 604 q 281 874 181 817 q 515 931 381 931 m 515 774 q 335 692 399 774 q 272 458 272 611 q 335 224 272 306 q 515 143 399 143 q 694 224 631 143 q 757 458 757 306 q 694 692 757 611 q 515 774 631 774 m 781 1219 q 731 1063 775 1115 q 607 1011 688 1011 q 540 1025 567 1011 q 483 1064 513 1039 q 451 1088 464 1081 q 422 1096 438 1096 q 383 1075 397 1096 q 364 1011 369 1054 l 247 1011 q 422 1219 258 1219 q 489 1206 463 1219 q 544 1167 515 1192 q 578 1142 565 1150 q 606 1135 590 1135 q 644 1156 631 1135 q 664 1219 658 1176 l 781 1219 z "},"Œ":{"ha":1472,"x_min":74,"x_max":1419,"o":"m 1419 154 l 1419 0 l 790 0 l 790 118 q 665 21 738 56 q 501 -14 592 -14 q 274 43 371 -14 q 126 206 178 100 q 74 458 74 313 q 126 710 74 604 q 275 874 178 817 q 504 931 372 931 q 667 897 594 931 q 790 801 739 864 l 790 917 l 1400 917 l 1400 763 l 929 763 l 929 535 l 1294 535 l 1294 388 l 929 388 l 929 154 l 1419 154 m 511 143 q 681 225 619 143 q 743 458 743 307 q 681 692 743 610 q 511 774 619 774 q 331 692 393 774 q 269 458 269 611 q 331 224 269 306 q 511 143 393 143 z "},"P":{"ha":897,"x_min":119,"x_max":842,"o":"m 504 917 q 753 840 664 917 q 842 622 842 763 q 753 410 842 486 q 504 333 664 333 l 311 333 l 311 0 l 119 0 l 119 917 l 504 917 m 475 482 q 606 517 564 482 q 647 624 647 553 q 606 729 647 694 q 475 764 564 764 l 311 764 l 311 482 l 475 482 z "},"Þ":{"ha":906,"x_min":119,"x_max":844,"o":"m 489 768 q 753 692 663 768 q 843 468 844 615 q 753 245 844 322 q 489 168 663 168 l 311 168 l 311 0 l 119 0 l 119 917 l 311 917 l 311 768 l 489 768 m 475 319 q 606 356 563 319 q 649 468 649 393 q 606 580 649 543 q 475 617 563 617 l 311 617 l 311 319 l 475 319 z "},"Q":{"ha":1029,"x_min":74,"x_max":956,"o":"m 733 -119 q 831 -106 788 -119 q 901 -67 874 -92 l 951 -214 q 855 -262 915 -244 q 726 -279 794 -279 q 518 -210 593 -279 q 446 -10 443 -142 q 172 135 271 11 q 74 458 74 258 q 127 710 74 604 q 281 874 181 817 q 515 931 381 931 q 749 874 650 931 q 902 710 849 817 q 956 458 956 604 q 856 133 956 257 q 579 -10 756 10 q 625 -96 586 -72 q 733 -119 664 -119 m 272 458 q 335 224 272 306 q 515 143 399 143 q 694 224 631 143 q 757 458 757 306 q 694 692 757 611 q 515 774 631 774 q 335 692 399 774 q 272 458 272 611 z "},"R":{"ha":944,"x_min":119,"x_max":911,"o":"m 481 351 l 308 351 l 308 0 l 119 0 l 119 917 l 524 917 q 769 842 681 917 q 857 633 857 768 q 808 468 857 535 q 669 372 760 401 l 911 0 l 696 0 l 481 351 m 308 497 l 499 497 q 622 530 582 497 q 661 631 661 563 q 622 731 661 699 q 499 764 582 764 l 308 764 l 308 497 z "},"Ŕ":{"ha":944,"x_min":119,"x_max":911,"o":"m 513 1014 l 369 1014 l 447 1229 l 636 1229 l 513 1014 m 481 351 l 308 351 l 308 0 l 119 0 l 119 917 l 524 917 q 769 842 681 917 q 857 633 857 768 q 808 468 857 535 q 669 372 760 401 l 911 0 l 696 0 l 481 351 m 308 497 l 499 497 q 622 530 582 497 q 661 631 661 563 q 622 731 661 699 q 499 764 582 764 l 308 764 l 308 497 z "},"Ř":{"ha":944,"x_min":119,"x_max":911,"o":"m 354 1010 l 200 1242 l 347 1242 l 450 1106 l 553 1242 l 700 1242 l 546 1010 l 354 1010 m 481 351 l 308 351 l 308 0 l 119 0 l 119 917 l 524 917 q 769 842 681 917 q 857 633 857 768 q 808 468 857 535 q 669 372 760 401 l 911 0 l 696 0 l 481 351 m 308 497 l 499 497 q 622 530 582 497 q 661 631 661 563 q 622 731 661 699 q 499 764 582 764 l 308 764 l 308 497 z "},"S":{"ha":893,"x_min":53,"x_max":835,"o":"m 454 931 q 674 888 582 931 q 835 754 765 846 l 703 625 q 607 737 667 700 q 456 774 547 774 q 327 742 372 774 q 282 660 282 711 q 328 585 282 613 q 493 536 374 557 q 692 478 618 513 q 799 391 765 443 q 833 261 833 339 q 785 115 833 176 q 652 19 738 53 q 457 -14 567 -14 q 209 28 306 -14 q 53 157 113 71 l 167 293 q 285 176 218 208 q 450 143 351 143 q 585 171 539 143 q 632 250 632 199 q 588 313 632 288 q 432 360 544 338 q 226 422 303 386 q 114 511 149 458 q 79 642 79 564 q 124 790 79 724 q 253 893 168 856 q 454 931 339 931 z "},"Ś":{"ha":893,"x_min":53,"x_max":835,"o":"m 638 1229 l 514 1014 l 371 1014 l 449 1229 l 638 1229 m 454 931 q 674 888 582 931 q 835 754 765 846 l 703 625 q 607 737 667 700 q 456 774 547 774 q 327 742 372 774 q 282 660 282 711 q 328 585 282 613 q 493 536 374 557 q 692 478 618 513 q 799 391 765 443 q 833 261 833 339 q 785 115 833 176 q 652 19 738 53 q 457 -14 567 -14 q 209 28 306 -14 q 53 157 113 71 l 167 293 q 285 176 218 208 q 450 143 351 143 q 585 171 539 143 q 632 250 632 199 q 588 313 632 288 q 432 360 544 338 q 226 422 303 386 q 114 511 149 458 q 79 642 79 564 q 124 790 79 724 q 253 893 168 856 q 454 931 339 931 z "},"Š":{"ha":893,"x_min":53,"x_max":835,"o":"m 549 1010 l 357 1010 l 203 1242 l 350 1242 l 453 1106 l 556 1242 l 703 1242 l 549 1010 m 454 931 q 674 888 582 931 q 835 754 765 846 l 703 625 q 607 737 667 700 q 456 774 547 774 q 327 742 372 774 q 282 660 282 711 q 328 585 282 613 q 493 536 374 557 q 692 478 618 513 q 799 391 765 443 q 833 261 833 339 q 785 115 833 176 q 652 19 738 53 q 457 -14 567 -14 q 209 28 306 -14 q 53 157 113 71 l 167 293 q 285 176 218 208 q 450 143 351 143 q 585 171 539 143 q 632 250 632 199 q 588 313 632 288 q 432 360 544 338 q 226 422 303 386 q 114 511 149 458 q 79 642 79 564 q 124 790 79 724 q 253 893 168 856 q 454 931 339 931 z "},"ẞ":{"ha":985,"x_min":119,"x_max":944,"o":"m 664 508 q 868 442 792 506 q 944 260 944 379 q 863 65 944 136 q 650 -7 781 -7 q 497 15 560 -7 q 401 76 435 38 l 460 194 q 526 153 486 168 q 615 139 567 139 q 719 173 679 139 q 758 264 758 207 q 715 356 758 324 q 594 389 672 389 l 478 389 l 478 508 l 696 764 l 499 764 q 363 711 415 764 q 311 572 311 658 l 311 0 l 119 0 l 119 594 q 163 765 119 692 q 287 877 207 838 q 472 917 367 917 l 889 917 l 889 765 l 664 508 z "},"T":{"ha":882,"x_min":38,"x_max":844,"o":"m 844 763 l 538 763 l 538 0 l 346 0 l 346 763 l 38 763 l 38 917 l 844 917 l 844 763 z "},"Ť":{"ha":882,"x_min":38,"x_max":844,"o":"m 342 1010 l 188 1242 l 335 1242 l 438 1106 l 540 1242 l 688 1242 l 533 1010 l 342 1010 m 844 763 l 538 763 l 538 0 l 346 0 l 346 763 l 38 763 l 38 917 l 844 917 l 844 763 z "},"U":{"ha":993,"x_min":106,"x_max":889,"o":"m 889 361 q 790 81 889 175 q 497 -14 690 -14 q 205 81 304 -14 q 106 361 106 175 l 106 917 l 297 917 l 297 369 q 347 199 297 254 q 497 143 396 143 q 647 199 599 143 q 696 369 696 254 l 696 917 l 889 917 l 889 361 z "},"Ú":{"ha":993,"x_min":106,"x_max":889,"o":"m 679 1229 l 556 1014 l 413 1014 l 490 1229 l 679 1229 m 889 361 q 790 81 889 175 q 497 -14 690 -14 q 205 81 304 -14 q 106 361 106 175 l 106 917 l 297 917 l 297 369 q 347 199 297 254 q 497 143 396 143 q 647 199 599 143 q 696 369 696 254 l 696 917 l 889 917 l 889 361 z "},"Û":{"ha":993,"x_min":106,"x_max":889,"o":"m 600 1008 l 497 1144 l 394 1008 l 247 1008 l 401 1240 l 593 1240 l 747 1008 l 600 1008 m 889 361 q 790 81 889 175 q 497 -14 690 -14 q 205 81 304 -14 q 106 361 106 175 l 106 917 l 297 917 l 297 369 q 347 199 297 254 q 497 143 396 143 q 647 199 599 143 q 696 369 696 254 l 696 917 l 889 917 l 889 361 z "},"Ü":{"ha":993,"x_min":106,"x_max":889,"o":"m 889 361 q 790 81 889 175 q 497 -14 690 -14 q 205 81 304 -14 q 106 361 106 175 l 106 917 l 297 917 l 297 369 q 347 199 297 254 q 497 143 396 143 q 647 199 599 143 q 696 369 696 254 l 696 917 l 889 917 l 889 361 m 350 1201 q 426 1175 399 1201 q 454 1104 454 1149 q 426 1033 454 1060 q 350 1007 399 1007 q 275 1033 303 1007 q 247 1104 247 1060 q 275 1175 247 1149 q 350 1201 303 1201 m 642 1201 q 719 1175 690 1201 q 747 1104 747 1149 q 719 1033 747 1060 q 642 1007 690 1007 q 567 1033 594 1007 q 539 1104 539 1060 q 567 1175 539 1149 q 642 1201 594 1201 z "},"Ù":{"ha":993,"x_min":106,"x_max":889,"o":"m 564 1014 l 421 1014 l 297 1229 l 486 1229 l 564 1014 m 889 361 q 790 81 889 175 q 497 -14 690 -14 q 205 81 304 -14 q 106 361 106 175 l 106 917 l 297 917 l 297 369 q 347 199 297 254 q 497 143 396 143 q 647 199 599 143 q 696 369 696 254 l 696 917 l 889 917 l 889 361 z "},"Ű":{"ha":993,"x_min":106,"x_max":889,"o":"m 538 1232 l 413 1015 l 271 1015 l 347 1232 l 538 1232 m 819 1229 l 694 1014 l 553 1014 l 631 1229 l 819 1229 m 889 361 q 790 81 889 175 q 497 -14 690 -14 q 205 81 304 -14 q 106 361 106 175 l 106 917 l 297 917 l 297 369 q 347 199 297 254 q 497 143 396 143 q 647 199 599 143 q 696 369 696 254 l 696 917 l 889 917 l 889 361 z "},"Ū":{"ha":993,"x_min":106,"x_max":889,"o":"m 889 361 q 790 81 889 175 q 497 -14 690 -14 q 205 81 304 -14 q 106 361 106 175 l 106 917 l 297 917 l 297 369 q 347 199 297 254 q 497 143 396 143 q 647 199 599 143 q 696 369 696 254 l 696 917 l 889 917 l 889 361 m 750 1026 l 244 1026 l 244 1153 l 750 1153 l 750 1026 z "},"Ų":{"ha":993,"x_min":106,"x_max":889,"o":"m 889 917 l 889 361 q 820 115 889 207 q 618 -3 751 24 q 503 -119 503 -56 q 525 -168 503 -150 q 583 -186 547 -186 q 653 -171 629 -186 l 681 -269 q 549 -299 633 -299 q 417 -259 468 -299 q 365 -150 365 -219 q 442 -12 365 -65 q 191 95 276 1 q 106 361 106 189 l 106 917 l 297 917 l 297 369 q 347 199 297 254 q 497 143 396 143 q 647 199 599 143 q 696 369 696 254 l 696 917 l 889 917 z "},"Ů":{"ha":993,"x_min":106,"x_max":889,"o":"m 889 361 q 790 81 889 175 q 497 -14 690 -14 q 205 81 304 -14 q 106 361 106 175 l 106 917 l 297 917 l 297 369 q 347 199 297 254 q 497 143 396 143 q 647 199 599 143 q 696 369 696 254 l 696 917 l 889 917 l 889 361 m 497 1246 q 631 1201 582 1246 q 679 1079 679 1156 q 631 958 679 1003 q 497 913 582 913 q 363 958 413 913 q 314 1079 314 1003 q 363 1201 314 1156 q 497 1246 413 1246 m 497 1160 q 438 1138 461 1160 q 415 1079 415 1115 q 438 1022 415 1044 q 497 1000 461 1000 q 556 1022 533 1000 q 579 1079 579 1044 q 556 1138 579 1115 q 497 1160 533 1160 z "},"V":{"ha":931,"x_min":19,"x_max":911,"o":"m 578 0 l 354 0 l 19 917 l 222 917 l 415 333 l 468 153 l 519 332 l 714 917 l 911 917 l 578 0 z "},"W":{"ha":1367,"x_min":26,"x_max":1339,"o":"m 514 0 l 293 0 l 26 917 l 233 917 l 411 151 l 594 917 l 778 917 l 964 151 l 1142 917 l 1339 917 l 1072 0 l 857 0 l 729 500 l 686 717 l 683 717 l 640 500 l 514 0 z "},"X":{"ha":889,"x_min":22,"x_max":867,"o":"m 638 0 l 438 332 l 242 0 l 22 0 l 338 463 l 44 917 l 271 917 l 457 597 l 643 917 l 850 917 l 556 469 l 867 0 l 638 0 z "},"Y":{"ha":869,"x_min":14,"x_max":856,"o":"m 531 343 l 531 0 l 339 0 l 339 343 l 14 917 l 218 917 l 365 643 l 435 499 l 506 643 l 653 917 l 856 917 l 531 343 z "},"Ý":{"ha":869,"x_min":14,"x_max":856,"o":"m 617 1229 l 493 1014 l 350 1014 l 428 1229 l 617 1229 m 531 343 l 531 0 l 339 0 l 339 343 l 14 917 l 218 917 l 365 643 l 435 499 l 506 643 l 653 917 l 856 917 l 531 343 z "},"Ÿ":{"ha":869,"x_min":14,"x_max":856,"o":"m 531 343 l 531 0 l 339 0 l 339 343 l 14 917 l 218 917 l 365 643 l 435 499 l 506 643 l 653 917 l 856 917 l 531 343 m 288 1201 q 364 1175 336 1201 q 392 1104 392 1149 q 364 1033 392 1060 q 288 1007 336 1007 q 213 1033 240 1007 q 185 1104 185 1060 q 213 1175 185 1149 q 288 1201 240 1201 m 579 1201 q 656 1175 628 1201 q 685 1104 685 1149 q 656 1033 685 1060 q 579 1007 628 1007 q 504 1033 532 1007 q 476 1104 476 1060 q 504 1175 476 1149 q 579 1201 532 1201 z "},"Z":{"ha":879,"x_min":61,"x_max":824,"o":"m 824 153 l 824 0 l 61 0 l 61 144 l 596 764 l 72 764 l 72 917 l 807 917 l 807 772 l 272 153 l 824 153 z "},"Ź":{"ha":879,"x_min":61,"x_max":824,"o":"m 496 1014 l 353 1014 l 431 1229 l 619 1229 l 496 1014 m 824 153 l 824 0 l 61 0 l 61 144 l 596 764 l 72 764 l 72 917 l 807 917 l 807 772 l 272 153 l 824 153 z "},"Ž":{"ha":879,"x_min":61,"x_max":824,"o":"m 338 1010 l 183 1242 l 331 1242 l 433 1106 l 536 1242 l 683 1242 l 529 1010 l 338 1010 m 824 153 l 824 0 l 61 0 l 61 144 l 596 764 l 72 764 l 72 917 l 807 917 l 807 772 l 272 153 l 824 153 z "},"Ż":{"ha":879,"x_min":61,"x_max":824,"o":"m 824 153 l 824 0 l 61 0 l 61 144 l 596 764 l 72 764 l 72 917 l 807 917 l 807 772 l 272 153 l 824 153 m 438 1222 q 521 1196 492 1222 q 550 1121 550 1169 q 521 1046 550 1072 q 438 1019 492 1019 q 356 1046 385 1019 q 326 1121 326 1072 q 356 1196 326 1169 q 438 1222 385 1222 z "},"Ģ":{"ha":1004,"x_min":74,"x_max":914,"o":"m 914 485 l 914 0 l 774 0 l 769 110 q 499 -14 686 -14 q 276 42 372 -14 q 127 203 181 97 q 74 457 74 310 q 128 710 74 603 q 284 874 183 817 q 519 931 385 931 q 762 876 668 931 q 910 706 856 822 l 733 629 q 658 737 713 700 q 525 774 603 774 q 339 692 406 774 q 272 458 272 610 q 338 221 272 301 q 529 140 403 140 q 688 187 626 140 q 749 322 749 233 l 749 343 l 481 343 l 481 485 l 914 485 m 536 -332 l 407 -332 l 457 -92 l 632 -92 l 536 -332 z "},"Ķ":{"ha":943,"x_min":119,"x_max":921,"o":"m 442 419 l 311 271 l 311 0 l 119 0 l 119 917 l 311 917 l 311 482 l 688 917 l 910 917 l 581 543 l 921 0 l 701 0 l 442 419 m 497 -332 l 368 -332 l 418 -92 l 593 -92 l 497 -332 z "},"Ļ":{"ha":835,"x_min":119,"x_max":794,"o":"m 794 154 l 794 0 l 119 0 l 119 917 l 311 917 l 311 154 l 794 154 m 468 -332 l 339 -332 l 389 -92 l 564 -92 l 468 -332 z "},"Ņ":{"ha":1026,"x_min":119,"x_max":907,"o":"m 907 0 l 688 0 l 367 539 l 288 693 l 286 693 l 292 531 l 292 0 l 119 0 l 119 917 l 338 917 l 658 379 l 738 224 l 740 224 l 735 386 l 735 917 l 907 917 l 907 0 m 528 -332 l 399 -332 l 449 -92 l 624 -92 l 528 -332 z "},"Ŗ":{"ha":944,"x_min":119,"x_max":911,"o":"m 481 351 l 308 351 l 308 0 l 119 0 l 119 917 l 524 917 q 769 842 681 917 q 857 633 857 768 q 808 468 857 535 q 669 372 760 401 l 911 0 l 696 0 l 481 351 m 308 497 l 499 497 q 622 530 582 497 q 661 631 661 563 q 622 731 661 699 q 499 764 582 764 l 308 764 l 308 497 m 494 -332 l 365 -332 l 415 -92 l 590 -92 l 494 -332 z "},"Ş":{"ha":893,"x_min":53,"x_max":835,"o":"m 493 536 q 692 478 618 513 q 799 391 765 443 q 833 261 833 339 q 758 84 833 154 q 554 -7 682 14 q 610 -68 592 -33 q 629 -140 629 -103 q 578 -256 629 -214 q 444 -299 528 -299 q 279 -246 336 -299 l 329 -147 q 373 -178 347 -167 q 428 -189 399 -189 q 483 -169 461 -189 q 504 -115 504 -149 q 483 -58 504 -82 q 408 -12 463 -35 q 192 35 278 -7 q 53 157 107 78 l 167 293 q 285 176 218 208 q 450 143 351 143 q 585 171 539 143 q 632 250 632 199 q 588 313 632 288 q 432 360 544 338 q 226 422 303 386 q 114 511 149 458 q 79 642 79 564 q 124 790 79 724 q 253 893 168 856 q 454 931 339 931 q 674 888 582 931 q 835 754 765 846 l 703 625 q 607 737 667 700 q 456 774 547 774 q 327 742 372 774 q 282 660 282 711 q 328 585 282 613 q 493 536 374 557 z "},"Ţ":{"ha":882,"x_min":38,"x_max":844,"o":"m 538 763 l 538 1 q 617 -137 617 -50 q 565 -256 617 -212 q 431 -299 514 -299 q 263 -244 324 -299 l 318 -144 q 413 -186 356 -186 q 468 -166 446 -186 q 490 -111 490 -146 q 466 -50 490 -74 q 383 0 442 -26 l 346 0 l 346 763 l 38 763 l 38 917 l 844 917 l 844 763 l 538 763 z "},"Ș":{"ha":893,"x_min":53,"x_max":835,"o":"m 454 931 q 674 888 582 931 q 835 754 765 846 l 703 625 q 607 737 667 700 q 456 774 547 774 q 327 742 372 774 q 282 660 282 711 q 328 585 282 613 q 493 536 374 557 q 692 478 618 513 q 799 391 765 443 q 833 261 833 339 q 785 115 833 176 q 652 19 738 53 q 457 -14 567 -14 q 209 28 306 -14 q 53 157 113 71 l 167 293 q 285 176 218 208 q 450 143 351 143 q 585 171 539 143 q 632 250 632 199 q 588 313 632 288 q 432 360 544 338 q 226 422 303 386 q 114 511 149 458 q 79 642 79 564 q 124 790 79 724 q 253 893 168 856 q 454 931 339 931 m 476 -332 l 347 -332 l 397 -92 l 572 -92 l 476 -332 z "},"Ț":{"ha":882,"x_min":38,"x_max":844,"o":"m 844 763 l 538 763 l 538 0 l 346 0 l 346 763 l 38 763 l 38 917 l 844 917 l 844 763 m 435 -332 l 306 -332 l 356 -92 l 531 -92 l 435 -332 z "},"a":{"ha":797,"x_min":57,"x_max":782,"o":"m 735 115 q 782 121 764 115 l 768 6 q 678 -14 729 -14 q 518 90 544 -14 q 424 13 488 39 q 272 -14 360 -14 q 114 32 171 -14 q 57 164 57 78 q 328 383 57 333 l 494 415 l 494 449 q 463 537 494 504 q 376 569 432 569 q 272 542 313 569 q 217 451 232 514 l 65 515 q 165 657 88 606 q 368 708 243 708 q 600 644 517 708 q 683 453 683 579 l 683 168 q 696 128 683 140 q 735 115 708 115 m 332 115 q 444 145 393 115 q 494 226 494 175 l 494 299 l 346 265 q 276 235 299 254 q 253 183 253 217 q 274 133 253 150 q 332 115 294 115 z "},"á":{"ha":797,"x_min":57,"x_max":782,"o":"m 735 115 q 782 121 764 115 l 768 6 q 678 -14 729 -14 q 518 90 544 -14 q 424 13 488 39 q 272 -14 360 -14 q 114 32 171 -14 q 57 164 57 78 q 328 383 57 333 l 494 415 l 494 449 q 463 537 494 504 q 376 569 432 569 q 272 542 313 569 q 217 451 232 514 l 65 515 q 165 657 88 606 q 368 708 243 708 q 600 644 517 708 q 683 453 683 579 l 683 168 q 696 128 683 140 q 735 115 708 115 m 332 115 q 444 145 393 115 q 494 226 494 175 l 494 299 l 346 265 q 276 235 299 254 q 253 183 253 217 q 274 133 253 150 q 332 115 294 115 m 571 1031 l 432 794 l 290 794 l 388 1031 l 571 1031 z "},"ă":{"ha":797,"x_min":57,"x_max":782,"o":"m 735 115 q 782 121 764 115 l 768 6 q 678 -14 729 -14 q 518 90 544 -14 q 424 13 488 39 q 272 -14 360 -14 q 114 32 171 -14 q 57 164 57 78 q 328 383 57 333 l 494 415 l 494 449 q 463 537 494 504 q 376 569 432 569 q 272 542 313 569 q 217 451 232 514 l 65 515 q 165 657 88 606 q 368 708 243 708 q 600 644 517 708 q 683 453 683 579 l 683 168 q 696 128 683 140 q 735 115 708 115 m 332 115 q 444 145 393 115 q 494 226 494 175 l 494 299 l 346 265 q 276 235 299 254 q 253 183 253 217 q 274 133 253 150 q 332 115 294 115 m 607 1000 q 547 841 607 900 q 383 782 486 782 q 220 841 281 782 q 160 1000 160 900 l 289 1000 q 315 926 289 956 q 383 896 342 896 q 451 926 425 896 q 478 1000 478 956 l 607 1000 z "},"â":{"ha":797,"x_min":57,"x_max":782,"o":"m 735 115 q 782 121 764 115 l 768 6 q 678 -14 729 -14 q 518 90 544 -14 q 424 13 488 39 q 272 -14 360 -14 q 114 32 171 -14 q 57 164 57 78 q 328 383 57 333 l 494 415 l 494 449 q 463 537 494 504 q 376 569 432 569 q 272 542 313 569 q 217 451 232 514 l 65 515 q 165 657 88 606 q 368 708 243 708 q 600 644 517 708 q 683 453 683 579 l 683 168 q 696 128 683 140 q 735 115 708 115 m 332 115 q 444 145 393 115 q 494 226 494 175 l 494 299 l 346 265 q 276 235 299 254 q 253 183 253 217 q 274 133 253 150 q 332 115 294 115 m 486 785 l 383 918 l 281 785 l 135 785 l 288 1022 l 479 1022 l 632 785 l 486 785 z "},"ä":{"ha":797,"x_min":57,"x_max":782,"o":"m 735 115 q 782 121 764 115 l 768 6 q 678 -14 729 -14 q 518 90 544 -14 q 424 13 488 39 q 272 -14 360 -14 q 114 32 171 -14 q 57 164 57 78 q 328 383 57 333 l 494 415 l 494 449 q 463 537 494 504 q 376 569 432 569 q 272 542 313 569 q 217 451 232 514 l 65 515 q 165 657 88 606 q 368 708 243 708 q 600 644 517 708 q 683 453 683 579 l 683 168 q 696 128 683 140 q 735 115 708 115 m 332 115 q 444 145 393 115 q 494 226 494 175 l 494 299 l 346 265 q 276 235 299 254 q 253 183 253 217 q 274 133 253 150 q 332 115 294 115 m 236 979 q 313 953 285 979 q 340 882 340 926 q 313 811 340 838 q 236 785 285 785 q 161 811 189 785 q 133 882 133 838 q 161 953 133 926 q 236 979 189 979 m 528 979 q 605 953 576 979 q 633 882 633 926 q 605 811 633 838 q 528 785 576 785 q 453 811 481 785 q 425 882 425 838 q 453 953 425 926 q 528 979 481 979 z "},"à":{"ha":797,"x_min":57,"x_max":782,"o":"m 735 115 q 782 121 764 115 l 768 6 q 678 -14 729 -14 q 518 90 544 -14 q 424 13 488 39 q 272 -14 360 -14 q 114 32 171 -14 q 57 164 57 78 q 328 383 57 333 l 494 415 l 494 449 q 463 537 494 504 q 376 569 432 569 q 272 542 313 569 q 217 451 232 514 l 65 515 q 165 657 88 606 q 368 708 243 708 q 600 644 517 708 q 683 453 683 579 l 683 168 q 696 128 683 140 q 735 115 708 115 m 332 115 q 444 145 393 115 q 494 226 494 175 l 494 299 l 346 265 q 276 235 299 254 q 253 183 253 217 q 274 133 253 150 q 332 115 294 115 m 464 794 l 322 794 l 183 1031 l 367 1031 l 464 794 z "},"ā":{"ha":797,"x_min":57,"x_max":782,"o":"m 735 115 q 782 121 764 115 l 768 6 q 678 -14 729 -14 q 518 90 544 -14 q 424 13 488 39 q 272 -14 360 -14 q 114 32 171 -14 q 57 164 57 78 q 328 383 57 333 l 494 415 l 494 449 q 463 537 494 504 q 376 569 432 569 q 272 542 313 569 q 217 451 232 514 l 65 515 q 165 657 88 606 q 368 708 243 708 q 600 644 517 708 q 683 453 683 579 l 683 168 q 696 128 683 140 q 735 115 708 115 m 332 115 q 444 145 393 115 q 494 226 494 175 l 494 299 l 346 265 q 276 235 299 254 q 253 183 253 217 q 274 133 253 150 q 332 115 294 115 m 636 804 l 131 804 l 131 931 l 636 931 l 636 804 z "},"ą":{"ha":797,"x_min":57,"x_max":782,"o":"m 682 -186 q 751 -171 728 -186 l 779 -269 q 650 -299 732 -299 q 519 -260 568 -299 q 469 -150 469 -221 q 606 17 469 -36 q 526 106 543 39 q 433 17 499 49 q 272 -14 367 -14 q 114 32 171 -14 q 57 164 57 78 q 328 383 57 333 l 494 415 l 494 449 q 463 537 494 504 q 376 569 432 569 q 272 542 313 569 q 217 451 232 514 l 65 515 q 165 657 88 606 q 368 708 243 708 q 600 644 517 708 q 683 453 683 579 l 683 168 q 696 128 683 140 q 735 115 708 115 q 782 121 764 115 l 768 6 q 644 -46 682 -15 q 607 -119 607 -76 q 626 -169 607 -151 q 682 -186 646 -186 m 332 115 q 444 145 393 115 q 494 226 494 175 l 494 299 l 346 265 q 276 235 299 254 q 253 183 253 217 q 274 133 253 150 q 332 115 294 115 z "},"å":{"ha":797,"x_min":57,"x_max":782,"o":"m 735 115 q 782 121 764 115 l 768 6 q 678 -14 729 -14 q 518 90 544 -14 q 424 13 488 39 q 272 -14 360 -14 q 114 32 171 -14 q 57 164 57 78 q 328 383 57 333 l 494 415 l 494 449 q 463 537 494 504 q 376 569 432 569 q 272 542 313 569 q 217 451 232 514 l 65 515 q 165 657 88 606 q 368 708 243 708 q 600 644 517 708 q 683 453 683 579 l 683 168 q 696 128 683 140 q 735 115 708 115 m 332 115 q 444 145 393 115 q 494 226 494 175 l 494 299 l 346 265 q 276 235 299 254 q 253 183 253 217 q 274 133 253 150 q 332 115 294 115 m 382 1111 q 515 1066 467 1111 q 564 944 564 1021 q 515 823 564 868 q 382 778 467 778 q 248 823 297 778 q 199 944 199 868 q 248 1066 199 1021 q 382 1111 297 1111 m 382 1025 q 323 1003 346 1025 q 300 944 300 981 q 323 888 300 910 q 382 865 346 865 q 441 888 418 865 q 464 944 464 910 q 441 1003 464 981 q 382 1025 418 1025 z "},"ã":{"ha":797,"x_min":57,"x_max":782,"o":"m 735 115 q 782 121 764 115 l 768 6 q 678 -14 729 -14 q 518 90 544 -14 q 424 13 488 39 q 272 -14 360 -14 q 114 32 171 -14 q 57 164 57 78 q 328 383 57 333 l 494 415 l 494 449 q 463 537 494 504 q 376 569 432 569 q 272 542 313 569 q 217 451 232 514 l 65 515 q 165 657 88 606 q 368 708 243 708 q 600 644 517 708 q 683 453 683 579 l 683 168 q 696 128 683 140 q 735 115 708 115 m 332 115 q 444 145 393 115 q 494 226 494 175 l 494 299 l 346 265 q 276 235 299 254 q 253 183 253 217 q 274 133 253 150 q 332 115 294 115 m 649 997 q 599 841 643 893 q 475 789 556 789 q 408 803 435 789 q 351 842 381 817 q 319 866 332 858 q 290 874 306 874 q 251 853 265 874 q 232 789 238 832 l 115 789 q 290 997 126 997 q 357 983 331 997 q 413 944 383 969 q 446 920 433 928 q 474 913 458 913 q 513 933 499 913 q 532 997 526 954 l 649 997 z "},"æ":{"ha":1225,"x_min":57,"x_max":1161,"o":"m 1161 378 q 1156 289 1161 331 l 690 289 q 744 168 701 208 q 853 128 788 128 q 945 149 913 128 q 993 214 978 171 l 1147 157 q 849 -14 1079 -14 q 592 119 669 -14 q 283 -14 522 -14 q 116 34 175 -14 q 57 164 57 82 q 120 301 57 249 q 315 378 183 353 l 501 414 l 501 449 q 467 538 501 506 q 371 569 433 569 q 219 456 256 569 l 68 508 q 170 656 90 603 q 379 708 250 708 q 519 680 460 708 q 613 596 578 651 q 711 679 653 650 q 842 708 769 708 q 1078 617 996 708 q 1161 378 1161 525 m 847 568 q 740 527 781 568 q 690 406 700 486 l 989 406 q 949 527 982 486 q 847 568 915 568 m 340 115 q 453 153 406 115 q 501 256 501 190 l 501 306 l 374 276 q 281 240 308 260 q 253 183 253 221 q 274 132 253 149 q 340 115 294 115 z "},"b":{"ha":874,"x_min":100,"x_max":806,"o":"m 508 708 q 726 613 647 708 q 806 346 806 517 q 726 81 806 176 q 508 -14 647 -14 q 366 27 426 -14 q 275 138 306 68 l 268 0 l 100 0 l 100 999 l 290 999 l 290 581 q 378 674 322 640 q 508 708 433 708 m 451 132 q 572 188 529 132 q 615 347 615 243 q 572 507 615 451 q 451 563 529 563 q 339 514 382 563 q 290 378 296 465 l 290 317 q 339 180 296 228 q 451 132 382 132 z "},"c":{"ha":790,"x_min":64,"x_max":739,"o":"m 418 708 q 632 653 556 708 q 736 504 708 597 l 558 440 q 424 567 533 567 q 298 510 342 567 q 254 346 254 454 q 299 183 254 238 q 422 128 343 128 q 567 251 544 128 l 739 196 q 635 43 717 100 q 425 -14 554 -14 q 158 81 253 -14 q 64 347 64 176 q 158 613 64 518 q 418 708 251 708 z "},"ć":{"ha":790,"x_min":64,"x_max":739,"o":"m 418 708 q 632 653 556 708 q 736 504 708 597 l 558 440 q 424 567 533 567 q 298 510 342 567 q 254 346 254 454 q 299 183 254 238 q 422 128 343 128 q 567 251 544 128 l 739 196 q 635 43 717 100 q 425 -14 554 -14 q 158 81 253 -14 q 64 347 64 176 q 158 613 64 518 q 418 708 251 708 m 599 1031 l 460 794 l 318 794 l 415 1031 l 599 1031 z "},"č":{"ha":790,"x_min":64,"x_max":739,"o":"m 418 708 q 632 653 556 708 q 736 504 708 597 l 558 440 q 424 567 533 567 q 298 510 342 567 q 254 346 254 454 q 299 183 254 238 q 422 128 343 128 q 567 251 544 128 l 739 196 q 635 43 717 100 q 425 -14 554 -14 q 158 81 253 -14 q 64 347 64 176 q 158 613 64 518 q 418 708 251 708 m 504 794 l 313 794 l 160 1031 l 306 1031 l 408 899 l 511 1031 l 657 1031 l 504 794 z "},"ç":{"ha":790,"x_min":64,"x_max":739,"o":"m 739 196 q 663 65 721 118 q 515 -6 606 11 q 572 -67 553 -32 q 592 -140 592 -103 q 541 -256 592 -214 q 407 -299 490 -299 q 242 -246 299 -299 l 292 -147 q 335 -178 310 -167 q 390 -189 361 -189 q 445 -169 424 -189 q 467 -115 467 -149 q 444 -57 467 -81 q 365 -11 422 -33 q 142 99 221 6 q 64 347 64 192 q 158 613 64 518 q 418 708 251 708 q 632 653 556 708 q 736 504 708 597 l 558 440 q 424 567 533 567 q 298 510 342 567 q 254 346 254 454 q 299 183 254 238 q 422 128 343 128 q 567 251 544 128 l 739 196 z "},"d":{"ha":874,"x_min":68,"x_max":772,"o":"m 772 999 l 772 0 l 603 0 l 594 129 q 503 25 564 64 q 365 -14 443 -14 q 147 81 226 -14 q 68 346 68 176 q 147 613 68 517 q 365 708 226 708 q 496 674 440 708 q 582 581 551 640 l 582 999 l 772 999 m 421 132 q 539 186 496 132 q 582 340 582 240 l 582 354 q 539 508 582 453 q 421 563 496 563 q 301 507 344 563 q 258 347 258 451 q 301 188 258 243 q 421 132 344 132 z "},"ð":{"ha":847,"x_min":68,"x_max":776,"o":"m 642 843 q 772 414 772 668 q 683 94 772 203 q 410 -14 594 -14 q 159 78 250 -14 q 68 335 68 171 q 110 520 68 442 q 228 640 153 599 q 401 682 304 682 q 613 585 550 682 q 506 811 583 719 l 267 757 l 253 831 l 454 865 q 258 1007 379 936 l 453 1007 q 596 897 529 964 l 757 938 l 776 863 l 642 843 m 422 128 q 547 185 503 128 q 592 335 592 242 q 549 494 592 440 q 426 549 507 549 q 303 494 346 549 q 261 335 261 440 q 303 181 261 233 q 422 128 344 128 z "},"ď":{"ha":954,"x_min":68,"x_max":1019,"o":"m 1019 999 l 953 688 l 839 688 l 867 999 l 1019 999 m 582 999 l 772 999 l 772 0 l 603 0 l 594 129 q 503 25 564 64 q 365 -14 443 -14 q 147 81 226 -14 q 68 346 68 176 q 147 613 68 517 q 365 708 226 708 q 496 674 440 708 q 582 581 551 640 l 582 999 m 421 132 q 539 186 496 132 q 582 340 582 240 l 582 354 q 539 508 582 453 q 421 563 496 563 q 301 507 344 563 q 258 347 258 451 q 301 188 258 243 q 421 132 344 132 z "},"đ":{"ha":872,"x_min":68,"x_max":879,"o":"m 879 761 l 772 761 l 772 0 l 603 0 l 594 129 q 503 25 564 64 q 365 -14 443 -14 q 147 81 226 -14 q 68 346 68 176 q 147 613 68 517 q 365 708 226 708 q 496 674 440 708 q 582 581 551 640 l 582 761 l 388 761 l 388 878 l 582 878 l 582 999 l 772 999 l 772 878 l 879 878 l 879 761 m 421 132 q 539 186 496 132 q 582 340 582 240 l 582 354 q 539 508 582 453 q 421 563 496 563 q 301 507 344 563 q 258 347 258 451 q 301 188 258 243 q 421 132 344 132 z "},"e":{"ha":808,"x_min":64,"x_max":749,"o":"m 749 350 q 743 275 749 311 l 251 275 q 425 128 281 128 q 524 150 485 128 q 578 214 563 172 l 733 157 q 622 30 700 74 q 425 -14 543 -14 q 158 81 253 -14 q 64 347 64 176 q 156 613 64 518 q 414 708 247 708 q 662 615 575 708 q 749 350 749 522 m 413 568 q 302 528 343 568 q 250 408 261 488 l 574 408 q 521 527 563 486 q 413 568 479 568 z "},"é":{"ha":808,"x_min":64,"x_max":749,"o":"m 749 350 q 743 275 749 311 l 251 275 q 425 128 281 128 q 524 150 485 128 q 578 214 563 172 l 733 157 q 622 30 700 74 q 425 -14 543 -14 q 158 81 253 -14 q 64 347 64 176 q 156 613 64 518 q 414 708 247 708 q 662 615 575 708 q 749 350 749 522 m 413 568 q 302 528 343 568 q 250 408 261 488 l 574 408 q 521 527 563 486 q 413 568 479 568 m 597 1031 l 458 794 l 317 794 l 414 1031 l 597 1031 z "},"ě":{"ha":808,"x_min":64,"x_max":749,"o":"m 749 350 q 743 275 749 311 l 251 275 q 425 128 281 128 q 524 150 485 128 q 578 214 563 172 l 733 157 q 622 30 700 74 q 425 -14 543 -14 q 158 81 253 -14 q 64 347 64 176 q 156 613 64 518 q 414 708 247 708 q 662 615 575 708 q 749 350 749 522 m 413 568 q 302 528 343 568 q 250 408 261 488 l 574 408 q 521 527 563 486 q 413 568 479 568 m 503 794 l 311 794 l 158 1031 l 304 1031 l 407 899 l 510 1031 l 656 1031 l 503 794 z "},"ê":{"ha":808,"x_min":64,"x_max":749,"o":"m 749 350 q 743 275 749 311 l 251 275 q 425 128 281 128 q 524 150 485 128 q 578 214 563 172 l 733 157 q 622 30 700 74 q 425 -14 543 -14 q 158 81 253 -14 q 64 347 64 176 q 156 613 64 518 q 414 708 247 708 q 662 615 575 708 q 749 350 749 522 m 413 568 q 302 528 343 568 q 250 408 261 488 l 574 408 q 521 527 563 486 q 413 568 479 568 m 513 785 l 410 918 l 307 785 l 161 785 l 314 1022 l 506 1022 l 658 785 l 513 785 z "},"ë":{"ha":808,"x_min":64,"x_max":749,"o":"m 749 350 q 743 275 749 311 l 251 275 q 425 128 281 128 q 524 150 485 128 q 578 214 563 172 l 733 157 q 622 30 700 74 q 425 -14 543 -14 q 158 81 253 -14 q 64 347 64 176 q 156 613 64 518 q 414 708 247 708 q 662 615 575 708 q 749 350 749 522 m 413 568 q 302 528 343 568 q 250 408 261 488 l 574 408 q 521 527 563 486 q 413 568 479 568 m 263 979 q 339 953 311 979 q 367 882 367 926 q 339 811 367 838 q 263 785 311 785 q 188 811 215 785 q 160 882 160 838 q 188 953 160 926 q 263 979 215 979 m 554 979 q 631 953 603 979 q 660 882 660 926 q 631 811 660 838 q 554 785 603 785 q 479 811 507 785 q 451 882 451 838 q 479 953 451 926 q 554 979 507 979 z "},"ė":{"ha":808,"x_min":64,"x_max":749,"o":"m 749 350 q 743 275 749 311 l 251 275 q 425 128 281 128 q 524 150 485 128 q 578 214 563 172 l 733 157 q 622 30 700 74 q 425 -14 543 -14 q 158 81 253 -14 q 64 347 64 176 q 156 613 64 518 q 414 708 247 708 q 662 615 575 708 q 749 350 749 522 m 413 568 q 302 528 343 568 q 250 408 261 488 l 574 408 q 521 527 563 486 q 413 568 479 568 m 410 1000 q 493 974 464 1000 q 522 899 522 947 q 493 824 522 850 q 410 797 464 797 q 328 824 357 797 q 299 899 299 850 q 328 974 299 947 q 410 1000 357 1000 z "},"è":{"ha":808,"x_min":64,"x_max":749,"o":"m 749 350 q 743 275 749 311 l 251 275 q 425 128 281 128 q 524 150 485 128 q 578 214 563 172 l 733 157 q 622 30 700 74 q 425 -14 543 -14 q 158 81 253 -14 q 64 347 64 176 q 156 613 64 518 q 414 708 247 708 q 662 615 575 708 q 749 350 749 522 m 413 568 q 302 528 343 568 q 250 408 261 488 l 574 408 q 521 527 563 486 q 413 568 479 568 m 490 794 l 349 794 l 210 1031 l 393 1031 l 490 794 z "},"ē":{"ha":808,"x_min":64,"x_max":749,"o":"m 749 350 q 743 275 749 311 l 251 275 q 425 128 281 128 q 524 150 485 128 q 578 214 563 172 l 733 157 q 622 30 700 74 q 425 -14 543 -14 q 158 81 253 -14 q 64 347 64 176 q 156 613 64 518 q 414 708 247 708 q 662 615 575 708 q 749 350 749 522 m 413 568 q 302 528 343 568 q 250 408 261 488 l 574 408 q 521 527 563 486 q 413 568 479 568 m 663 804 l 157 804 l 157 931 l 663 931 l 663 804 z "},"ę":{"ha":808,"x_min":64,"x_max":749,"o":"m 749 350 q 743 275 749 311 l 251 275 q 425 128 281 128 q 524 150 485 128 q 578 214 563 172 l 733 157 q 549 1 685 38 q 469 -58 494 -29 q 443 -117 443 -86 q 465 -167 443 -149 q 522 -186 486 -186 q 592 -171 568 -186 l 619 -269 q 488 -299 572 -299 q 355 -259 406 -299 q 304 -149 304 -219 q 381 -12 304 -68 q 147 94 229 0 q 64 347 64 188 q 156 613 64 518 q 414 708 247 708 q 662 615 575 708 q 749 350 749 522 m 413 568 q 302 528 343 568 q 250 408 261 488 l 574 408 q 521 527 563 486 q 413 568 479 568 z "},"f":{"ha":565,"x_min":29,"x_max":557,"o":"m 332 694 l 551 694 l 551 553 l 340 553 l 340 0 l 150 0 l 150 553 l 29 553 l 29 694 l 150 694 l 150 778 q 221 952 150 892 q 413 1013 292 1013 q 497 1003 458 1013 q 557 976 535 993 l 531 850 q 451 871 499 871 q 332 764 332 871 l 332 694 z "},"g":{"ha":778,"x_min":44,"x_max":764,"o":"m 522 131 q 698 81 636 131 q 760 -62 760 31 q 657 -236 760 -174 q 386 -299 554 -299 q 128 -253 213 -299 q 44 -128 44 -207 q 76 -46 44 -81 q 171 4 108 -11 q 96 59 124 24 q 68 143 68 94 q 97 229 68 193 q 178 283 126 265 q 97 362 125 314 q 69 472 69 410 q 155 645 69 582 q 388 708 240 708 q 528 690 463 708 q 598 819 546 772 q 739 860 650 865 l 764 724 q 735 725 754 725 q 649 707 683 725 q 601 658 615 689 q 680 581 653 628 q 707 472 707 533 q 622 301 707 364 q 388 238 536 238 q 263 250 319 238 q 208 188 208 236 q 229 145 208 160 q 288 131 250 131 l 522 131 m 388 589 q 297 557 332 589 q 261 474 261 525 q 297 389 261 421 q 388 357 332 357 q 480 389 444 357 q 515 474 515 421 q 480 557 515 525 q 388 589 444 589 m 401 -168 q 551 -144 499 -168 q 604 -82 604 -119 q 580 -38 604 -53 q 500 -24 556 -24 l 311 -24 q 196 -86 196 -24 q 247 -147 196 -125 q 401 -168 299 -168 z "},"ğ":{"ha":763,"x_min":35,"x_max":774,"o":"m 392 782 q 228 841 289 782 q 167 1000 167 900 l 297 1000 q 324 926 297 956 q 392 896 350 896 q 459 926 433 896 q 485 1000 485 956 l 615 1000 q 555 841 615 900 q 392 782 494 782 m 774 724 q 673 704 711 726 q 628 633 635 682 q 699 472 699 571 q 613 301 699 364 q 379 238 526 238 q 254 250 310 238 q 200 188 200 236 q 221 145 200 160 q 279 131 242 131 l 514 131 q 688 81 626 131 q 750 -62 750 31 q 647 -236 750 -174 q 378 -299 544 -299 q 119 -253 204 -299 q 35 -128 35 -207 q 67 -46 35 -81 q 163 4 100 -11 q 88 59 115 24 q 60 143 60 94 q 89 229 60 193 q 169 283 118 265 q 89 362 117 314 q 61 472 61 410 q 147 645 61 582 q 379 708 232 708 q 553 678 476 708 q 614 808 558 757 q 747 860 669 860 l 774 724 m 379 357 q 471 389 435 357 q 507 474 507 421 q 471 557 507 525 q 379 589 435 589 q 288 557 324 589 q 253 474 253 525 q 288 389 253 421 q 379 357 324 357 m 301 -24 q 186 -86 186 -24 q 238 -147 186 -125 q 393 -168 289 -168 q 542 -144 490 -168 q 594 -82 594 -119 q 571 -38 594 -53 q 490 -24 547 -24 l 301 -24 z "},"h":{"ha":860,"x_min":100,"x_max":764,"o":"m 514 708 q 695 643 626 708 q 764 456 764 578 l 764 0 l 574 0 l 574 400 q 450 558 574 558 q 337 511 383 558 q 290 367 290 464 l 290 0 l 100 0 l 100 999 l 290 999 l 290 576 q 380 676 322 643 q 514 708 438 708 z "},"i":{"ha":392,"x_min":78,"x_max":314,"o":"m 196 794 q 78 896 78 794 q 196 999 78 999 q 314 896 314 999 q 196 794 314 794 m 290 0 l 100 0 l 100 694 l 290 694 l 290 0 z "},"ı":{"ha":392,"x_min":100,"x_max":290,"o":"m 290 0 l 100 0 l 100 694 l 290 694 l 290 0 z "},"í":{"ha":392,"x_min":100,"x_max":392,"o":"m 290 0 l 100 0 l 100 694 l 290 694 l 290 0 m 392 1031 l 253 794 l 111 794 l 208 1031 l 392 1031 z "},"î":{"ha":392,"x_min":-53,"x_max":444,"o":"m 290 0 l 100 0 l 100 694 l 290 694 l 290 0 m 299 785 l 196 918 l 93 785 l -53 785 l 100 1022 l 292 1022 l 444 785 l 299 785 z "},"ï":{"ha":392,"x_min":-29,"x_max":421,"o":"m 71 783 q -3 809 24 783 q -29 882 -29 835 q -3 955 -29 929 q 71 981 24 981 q 144 955 118 981 q 171 882 171 929 q 144 809 171 835 q 71 783 118 783 m 321 783 q 247 809 274 783 q 221 882 221 835 q 247 955 221 929 q 321 981 274 981 q 394 955 368 981 q 421 882 421 929 q 394 809 421 835 q 321 783 368 783 m 290 0 l 100 0 l 100 694 l 290 694 l 290 0 z "},"ì":{"ha":392,"x_min":-4,"x_max":290,"o":"m 290 0 l 100 0 l 100 694 l 290 694 l 290 0 m 276 794 l 135 794 l -4 1031 l 179 1031 l 276 794 z "},"ĳ":{"ha":782,"x_min":78,"x_max":706,"o":"m 196 794 q 78 896 78 794 q 196 999 78 999 q 314 896 314 999 q 196 794 314 794 m 290 0 l 100 0 l 100 694 l 290 694 l 290 0 m 588 999 q 675 972 644 999 q 706 896 706 944 q 675 821 706 847 q 588 794 644 794 q 500 821 531 794 q 469 896 469 847 q 500 972 469 944 q 588 999 531 999 m 682 -51 q 615 -240 682 -181 q 435 -299 549 -299 q 268 -254 335 -299 l 299 -118 q 396 -151 336 -151 q 467 -124 443 -151 q 492 -33 492 -96 l 492 694 l 682 694 l 682 -51 z "},"ī":{"ha":392,"x_min":19,"x_max":372,"o":"m 372 804 l 19 804 l 19 931 l 372 931 l 372 804 m 290 0 l 100 0 l 100 694 l 290 694 l 290 0 z "},"į":{"ha":392,"x_min":8,"x_max":324,"o":"m 196 794 q 78 896 78 794 q 196 999 78 999 q 314 896 314 999 q 196 794 314 794 m 324 -267 q 188 -299 272 -299 q 58 -260 107 -299 q 8 -151 8 -221 q 117 0 8 -57 l 100 0 l 100 694 l 290 694 l 290 0 q 180 -57 214 -28 q 146 -124 146 -86 q 165 -169 146 -153 q 221 -186 185 -186 q 293 -169 264 -186 l 324 -267 z "},"j":{"ha":390,"x_min":-124,"x_max":314,"o":"m 196 999 q 283 972 253 999 q 314 896 314 944 q 283 821 314 847 q 196 794 253 794 q 108 821 139 794 q 78 896 78 847 q 108 972 78 944 q 196 999 139 999 m 290 -51 q 224 -240 290 -181 q 43 -299 157 -299 q -124 -254 -57 -299 l -93 -118 q 4 -151 -56 -151 q 76 -124 51 -151 q 100 -33 100 -96 l 100 694 l 290 694 l 290 -51 z "},"k":{"ha":836,"x_min":100,"x_max":824,"o":"m 417 307 l 290 172 l 290 0 l 100 0 l 100 999 l 290 999 l 290 378 l 592 694 l 807 694 l 546 422 l 824 0 l 608 0 l 417 307 z "},"l":{"ha":443,"x_min":97,"x_max":438,"o":"m 288 221 q 302 151 288 171 q 356 132 317 132 q 397 135 379 132 q 438 147 414 139 l 421 15 q 363 -6 399 1 q 292 -14 326 -14 q 144 35 190 -14 q 97 193 97 85 l 97 999 l 288 999 l 288 221 z "},"ĺ":{"ha":451,"x_min":97,"x_max":438,"o":"m 360 1283 l 260 1082 l 118 1082 l 181 1283 l 360 1283 m 288 221 q 302 151 288 171 q 356 132 317 132 q 397 135 379 132 q 438 147 414 139 l 421 15 q 363 -6 399 1 q 292 -14 326 -14 q 144 35 190 -14 q 97 193 97 85 l 97 999 l 288 999 l 288 221 z "},"ľ":{"ha":504,"x_min":97,"x_max":532,"o":"m 464 688 l 350 688 l 379 999 l 532 999 l 464 688 m 288 221 q 302 151 288 171 q 356 132 317 132 q 397 135 379 132 q 438 147 414 139 l 421 15 q 363 -6 399 1 q 292 -14 326 -14 q 144 35 190 -14 q 97 193 97 85 l 97 999 l 288 999 l 288 221 z "},"ŀ":{"ha":644,"x_min":97,"x_max":638,"o":"m 288 221 q 302 151 288 171 q 356 132 317 132 q 397 135 379 132 q 438 147 414 139 l 421 15 q 363 -6 399 1 q 292 -14 326 -14 q 144 35 190 -14 q 97 193 97 85 l 97 999 l 288 999 l 288 221 m 517 604 q 605 574 572 604 q 638 492 638 544 q 605 409 638 439 q 517 379 572 379 q 428 409 461 379 q 396 492 396 439 q 428 574 396 544 q 517 604 461 604 z "},"ł":{"ha":536,"x_min":32,"x_max":500,"o":"m 347 469 l 347 221 q 362 151 347 171 q 415 132 376 132 q 456 135 439 132 q 497 147 474 139 l 481 15 q 423 -6 458 1 q 351 -14 388 -14 q 203 35 250 -14 q 157 193 157 85 l 157 354 l 32 274 l 32 425 l 157 492 l 157 999 l 347 999 l 347 604 l 500 704 l 500 551 l 347 469 z "},"m":{"ha":1313,"x_min":100,"x_max":1217,"o":"m 969 708 q 1147 643 1076 708 q 1217 456 1217 578 l 1217 0 l 1026 0 l 1026 418 q 994 524 1026 490 q 907 558 963 558 q 797 510 840 558 q 754 374 754 461 l 754 0 l 564 0 l 564 418 q 532 524 564 490 q 443 558 500 558 q 335 510 381 558 q 290 368 290 463 l 290 0 l 100 0 l 100 694 l 271 694 l 276 571 q 372 674 311 639 q 507 708 432 708 q 645 672 585 708 q 733 568 706 636 q 831 672 767 636 q 969 708 894 708 z "},"n":{"ha":860,"x_min":100,"x_max":764,"o":"m 514 708 q 695 643 626 708 q 764 456 764 578 l 764 0 l 574 0 l 574 400 q 450 558 574 558 q 337 511 383 558 q 290 367 290 464 l 290 0 l 100 0 l 100 694 l 271 694 l 276 571 q 372 674 311 639 q 514 708 433 708 z "},"ń":{"ha":860,"x_min":100,"x_max":764,"o":"m 514 708 q 695 643 626 708 q 764 456 764 578 l 764 0 l 574 0 l 574 400 q 450 558 574 558 q 337 511 383 558 q 290 367 290 464 l 290 0 l 100 0 l 100 694 l 271 694 l 276 571 q 372 674 311 639 q 514 708 433 708 m 625 1031 l 486 794 l 344 794 l 442 1031 l 625 1031 z "},"ň":{"ha":860,"x_min":100,"x_max":764,"o":"m 514 708 q 695 643 626 708 q 764 456 764 578 l 764 0 l 574 0 l 574 400 q 450 558 574 558 q 337 511 383 558 q 290 367 290 464 l 290 0 l 100 0 l 100 694 l 271 694 l 276 571 q 372 674 311 639 q 514 708 433 708 m 529 794 l 338 794 l 185 1031 l 331 1031 l 433 899 l 536 1031 l 682 1031 l 529 794 z "},"ñ":{"ha":860,"x_min":100,"x_max":764,"o":"m 514 708 q 695 643 626 708 q 764 456 764 578 l 764 0 l 574 0 l 574 400 q 450 558 574 558 q 337 511 383 558 q 290 367 290 464 l 290 0 l 100 0 l 100 694 l 271 694 l 276 571 q 372 674 311 639 q 514 708 433 708 m 703 997 q 653 841 697 893 q 529 789 610 789 q 462 803 489 789 q 406 842 435 817 q 373 866 386 858 q 344 874 360 874 q 306 853 319 874 q 286 789 292 832 l 169 789 q 344 997 181 997 q 411 983 385 997 q 467 944 438 969 q 500 920 488 928 q 528 913 513 913 q 567 933 553 913 q 586 997 581 954 l 703 997 z "},"o":{"ha":839,"x_min":64,"x_max":775,"o":"m 419 708 q 681 613 588 708 q 775 347 775 517 q 681 82 775 178 q 419 -14 588 -14 q 158 82 251 -14 q 64 347 64 178 q 158 613 64 517 q 419 708 251 708 m 419 567 q 297 512 339 567 q 254 347 254 457 q 297 183 254 238 q 419 128 339 128 q 542 183 500 128 q 585 347 585 238 q 542 512 585 457 q 419 567 500 567 z "},"ó":{"ha":839,"x_min":64,"x_max":775,"o":"m 419 708 q 681 613 588 708 q 775 347 775 517 q 681 82 775 178 q 419 -14 588 -14 q 158 82 251 -14 q 64 347 64 178 q 158 613 64 517 q 419 708 251 708 m 419 567 q 297 512 339 567 q 254 347 254 457 q 297 183 254 238 q 419 128 339 128 q 542 183 500 128 q 585 347 585 238 q 542 512 585 457 q 419 567 500 567 m 607 1031 l 468 794 l 326 794 l 424 1031 l 607 1031 z "},"ô":{"ha":839,"x_min":64,"x_max":775,"o":"m 419 708 q 681 613 588 708 q 775 347 775 517 q 681 82 775 178 q 419 -14 588 -14 q 158 82 251 -14 q 64 347 64 178 q 158 613 64 517 q 419 708 251 708 m 419 567 q 297 512 339 567 q 254 347 254 457 q 297 183 254 238 q 419 128 339 128 q 542 183 500 128 q 585 347 585 238 q 542 512 585 457 q 419 567 500 567 m 522 785 l 419 918 l 317 785 l 171 785 l 324 1022 l 515 1022 l 668 785 l 522 785 z "},"ö":{"ha":839,"x_min":64,"x_max":775,"o":"m 419 708 q 681 613 588 708 q 775 347 775 517 q 681 82 775 178 q 419 -14 588 -14 q 158 82 251 -14 q 64 347 64 178 q 158 613 64 517 q 419 708 251 708 m 419 567 q 297 512 339 567 q 254 347 254 457 q 297 183 254 238 q 419 128 339 128 q 542 183 500 128 q 585 347 585 238 q 542 512 585 457 q 419 567 500 567 m 272 979 q 349 953 321 979 q 376 882 376 926 q 349 811 376 838 q 272 785 321 785 q 197 811 225 785 q 169 882 169 838 q 197 953 169 926 q 272 979 225 979 m 564 979 q 641 953 613 979 q 669 882 669 926 q 641 811 669 838 q 564 785 613 785 q 489 811 517 785 q 461 882 461 838 q 489 953 461 926 q 564 979 517 979 z "},"ò":{"ha":839,"x_min":64,"x_max":775,"o":"m 419 708 q 681 613 588 708 q 775 347 775 517 q 681 82 775 178 q 419 -14 588 -14 q 158 82 251 -14 q 64 347 64 178 q 158 613 64 517 q 419 708 251 708 m 419 567 q 297 512 339 567 q 254 347 254 457 q 297 183 254 238 q 419 128 339 128 q 542 183 500 128 q 585 347 585 238 q 542 512 585 457 q 419 567 500 567 m 500 794 l 358 794 l 219 1031 l 403 1031 l 500 794 z "},"ő":{"ha":839,"x_min":64,"x_max":775,"o":"m 419 708 q 681 613 588 708 q 775 347 775 517 q 681 82 775 178 q 419 -14 588 -14 q 158 82 251 -14 q 64 347 64 178 q 158 613 64 517 q 419 708 251 708 m 419 567 q 297 512 339 567 q 254 347 254 457 q 297 183 254 238 q 419 128 339 128 q 542 183 500 128 q 585 347 585 238 q 542 512 585 457 q 419 567 500 567 m 328 794 l 192 794 l 292 1031 l 461 1031 l 328 794 m 604 794 l 468 794 l 567 1031 l 738 1031 l 604 794 z "},"ō":{"ha":839,"x_min":64,"x_max":775,"o":"m 419 708 q 681 613 588 708 q 775 347 775 517 q 681 82 775 178 q 419 -14 588 -14 q 158 82 251 -14 q 64 347 64 178 q 158 613 64 517 q 419 708 251 708 m 419 567 q 297 512 339 567 q 254 347 254 457 q 297 183 254 238 q 419 128 339 128 q 542 183 500 128 q 585 347 585 238 q 542 512 585 457 q 419 567 500 567 m 672 804 l 167 804 l 167 931 l 672 931 l 672 804 z "},"ø":{"ha":840,"x_min":64,"x_max":775,"o":"m 419 708 q 626 656 542 708 l 681 725 l 774 725 l 683 610 q 775 347 775 515 q 681 82 775 178 q 419 -14 588 -14 q 225 31 306 -14 l 169 -43 l 76 -43 l 165 75 q 90 190 115 121 q 64 347 64 260 q 158 613 64 517 q 419 708 251 708 m 288 217 l 326 272 l 522 532 q 419 567 483 567 q 297 512 339 567 q 254 347 254 457 q 286 217 254 269 l 288 217 m 419 128 q 542 183 500 128 q 585 347 585 238 q 558 463 585 418 l 557 463 l 522 411 l 328 154 q 419 128 363 128 z "},"õ":{"ha":839,"x_min":64,"x_max":775,"o":"m 419 708 q 681 613 588 708 q 775 347 775 517 q 681 82 775 178 q 419 -14 588 -14 q 158 82 251 -14 q 64 347 64 178 q 158 613 64 517 q 419 708 251 708 m 419 567 q 297 512 339 567 q 254 347 254 457 q 297 183 254 238 q 419 128 339 128 q 542 183 500 128 q 585 347 585 238 q 542 512 585 457 q 419 567 500 567 m 685 997 q 635 841 679 893 q 511 789 592 789 q 444 803 471 789 q 388 842 417 817 q 355 866 368 858 q 326 874 342 874 q 288 853 301 874 q 268 789 274 832 l 151 789 q 326 997 163 997 q 393 983 367 997 q 449 944 419 969 q 482 920 469 928 q 510 913 494 913 q 549 933 535 913 q 568 997 563 954 l 685 997 z "},"œ":{"ha":1343,"x_min":64,"x_max":1281,"o":"m 1281 378 q 1274 299 1281 329 l 782 299 q 958 128 803 128 q 1058 150 1018 128 q 1111 214 1097 172 l 1267 157 q 1155 30 1233 74 q 958 -14 1076 -14 q 798 20 867 -14 q 689 119 729 54 q 578 20 647 54 q 415 -14 508 -14 q 158 82 251 -14 q 64 347 64 178 q 158 613 64 517 q 415 708 251 708 q 577 674 508 708 q 688 576 646 640 q 793 674 728 640 q 947 708 858 708 q 1128 666 1053 708 q 1242 549 1204 624 q 1281 378 1281 474 m 947 568 q 835 526 878 568 q 783 404 793 485 l 1100 404 q 1052 526 1090 483 q 947 568 1014 568 m 422 128 q 545 183 503 128 q 588 347 588 238 q 545 512 588 457 q 422 567 503 567 q 258 347 258 567 q 422 128 258 128 z "},"p":{"ha":874,"x_min":100,"x_max":806,"o":"m 508 708 q 726 613 647 708 q 806 349 806 518 q 726 82 806 178 q 508 -14 647 -14 q 378 20 433 -14 q 290 114 322 54 l 290 -292 l 100 -292 l 100 694 l 268 694 l 275 557 q 366 667 306 626 q 508 708 426 708 m 451 132 q 572 188 529 132 q 615 347 615 243 q 572 507 615 451 q 451 563 529 563 q 339 515 382 563 q 290 378 296 467 l 290 317 q 339 181 296 229 q 451 132 382 132 z "},"þ":{"ha":874,"x_min":100,"x_max":806,"o":"m 513 708 q 725 616 644 708 q 806 351 806 524 q 765 146 806 228 q 658 25 725 64 q 508 -14 590 -14 q 378 17 435 -14 q 290 103 322 49 l 290 -292 l 100 -292 l 100 999 l 290 999 l 290 583 q 380 675 324 642 q 513 708 436 708 m 451 132 q 573 187 531 132 q 615 347 615 242 q 573 508 615 453 q 451 563 531 563 q 334 508 378 563 q 290 354 290 454 l 290 340 q 333 187 290 242 q 451 132 376 132 z "},"q":{"ha":874,"x_min":68,"x_max":774,"o":"m 774 694 l 774 -292 l 583 -292 l 583 115 q 497 21 553 56 q 367 -14 440 -14 q 148 82 228 -14 q 68 349 68 178 q 147 613 68 518 q 365 708 226 708 q 507 667 446 708 q 599 558 568 626 l 607 694 l 774 694 m 422 132 q 540 187 497 132 q 583 340 583 242 l 583 354 q 540 508 583 454 q 422 563 497 563 q 303 508 346 563 q 260 347 260 453 q 303 187 260 242 q 422 132 346 132 z "},"r":{"ha":586,"x_min":100,"x_max":568,"o":"m 493 708 q 568 693 542 708 l 544 526 q 457 547 513 547 q 340 498 389 547 q 290 360 290 449 l 290 0 l 100 0 l 100 694 l 265 694 l 278 558 q 493 708 335 708 z "},"ŕ":{"ha":586,"x_min":100,"x_max":568,"o":"m 493 708 q 568 693 542 708 l 544 526 q 457 547 513 547 q 340 498 389 547 q 290 360 290 449 l 290 0 l 100 0 l 100 694 l 265 694 l 278 558 q 493 708 335 708 m 504 1031 l 365 794 l 224 794 l 321 1031 l 504 1031 z "},"ř":{"ha":586,"x_min":65,"x_max":568,"o":"m 493 708 q 568 693 542 708 l 544 526 q 457 547 513 547 q 340 498 389 547 q 290 360 290 449 l 290 0 l 100 0 l 100 694 l 265 694 l 278 558 q 493 708 335 708 m 410 794 l 218 794 l 65 1031 l 211 1031 l 314 899 l 417 1031 l 563 1031 l 410 794 z "},"s":{"ha":738,"x_min":47,"x_max":689,"o":"m 369 -14 q 47 119 138 -14 l 158 233 q 238 149 186 174 q 367 125 290 125 q 461 142 428 125 q 494 188 494 158 q 463 228 494 211 q 356 260 432 244 q 131 344 196 292 q 67 485 67 396 q 103 594 67 543 q 210 677 139 646 q 379 708 281 708 q 568 673 496 708 q 689 561 640 638 l 571 461 q 495 543 540 517 q 382 569 450 569 q 291 550 325 569 q 257 503 257 531 q 290 454 257 474 q 408 418 324 435 q 623 338 560 388 q 686 201 686 289 q 603 45 686 104 q 369 -14 521 -14 z "},"ś":{"ha":738,"x_min":47,"x_max":689,"o":"m 369 -14 q 47 119 138 -14 l 158 233 q 238 149 186 174 q 367 125 290 125 q 461 142 428 125 q 494 188 494 158 q 463 228 494 211 q 356 260 432 244 q 131 344 196 292 q 67 485 67 396 q 103 594 67 543 q 210 677 139 646 q 379 708 281 708 q 568 673 496 708 q 689 561 640 638 l 571 461 q 495 543 540 517 q 382 569 450 569 q 291 550 325 569 q 257 503 257 531 q 290 454 257 474 q 408 418 324 435 q 623 338 560 388 q 686 201 686 289 q 603 45 686 104 q 369 -14 521 -14 m 564 1031 l 425 794 l 283 794 l 381 1031 l 564 1031 z "},"š":{"ha":738,"x_min":47,"x_max":689,"o":"m 369 -14 q 47 119 138 -14 l 158 233 q 238 149 186 174 q 367 125 290 125 q 461 142 428 125 q 494 188 494 158 q 463 228 494 211 q 356 260 432 244 q 131 344 196 292 q 67 485 67 396 q 103 594 67 543 q 210 677 139 646 q 379 708 281 708 q 568 673 496 708 q 689 561 640 638 l 571 461 q 495 543 540 517 q 382 569 450 569 q 291 550 325 569 q 257 503 257 531 q 290 454 257 474 q 408 418 324 435 q 623 338 560 388 q 686 201 686 289 q 603 45 686 104 q 369 -14 521 -14 m 469 794 l 278 794 l 125 1031 l 271 1031 l 374 899 l 476 1031 l 622 1031 l 469 794 z "},"ß":{"ha":885,"x_min":100,"x_max":825,"o":"m 571 519 q 711 484 654 519 q 797 390 768 449 q 825 263 825 331 q 791 126 825 189 q 688 24 757 63 q 518 -14 618 -14 q 425 -1 468 -14 q 356 32 382 11 l 392 164 q 494 131 429 131 q 603 174 564 131 q 642 288 642 217 q 594 400 642 361 q 458 439 547 439 l 396 439 l 411 583 l 458 583 q 569 623 529 583 q 610 725 610 663 q 572 824 610 790 q 461 858 533 858 q 328 805 367 858 q 290 635 290 751 l 290 0 l 100 0 l 100 658 q 186 915 100 825 q 468 1006 272 1006 q 651 969 578 1006 q 761 872 725 932 q 797 740 797 811 q 772 636 797 686 q 695 554 746 586 q 571 522 644 522 l 571 519 z "},"ſ":{"ha":418,"x_min":97,"x_max":458,"o":"m 97 778 q 160 953 97 893 q 333 1013 222 1013 q 458 979 421 1013 l 442 853 q 381 871 415 871 q 283 763 283 871 l 283 0 l 97 0 l 97 778 z "},"t":{"ha":596,"x_min":28,"x_max":576,"o":"m 576 43 q 492 1 543 17 q 386 -14 442 -14 q 154 196 154 -14 l 154 553 l 28 553 l 28 694 l 154 694 l 154 854 l 344 907 l 344 694 l 569 694 l 569 553 l 344 553 l 344 226 q 440 131 344 131 q 547 169 501 131 l 576 43 z "},"ť":{"ha":596,"x_min":28,"x_max":599,"o":"m 531 772 l 417 772 l 446 1065 l 599 1065 l 531 772 m 440 131 q 547 169 501 131 l 576 43 q 492 1 543 17 q 386 -14 442 -14 q 154 196 154 -14 l 154 553 l 28 553 l 28 694 l 154 694 l 154 854 l 344 907 l 344 694 l 569 694 l 569 553 l 344 553 l 344 226 q 440 131 344 131 z "},"u":{"ha":860,"x_min":96,"x_max":760,"o":"m 760 694 l 760 0 l 590 0 l 583 119 q 340 -14 517 -14 q 162 47 228 -14 q 96 235 96 107 l 96 694 l 286 694 l 286 283 q 317 169 286 203 q 407 136 347 136 q 524 183 479 136 q 569 322 569 229 l 569 694 l 760 694 z "},"ú":{"ha":860,"x_min":96,"x_max":760,"o":"m 760 694 l 760 0 l 590 0 l 583 119 q 340 -14 517 -14 q 162 47 228 -14 q 96 235 96 107 l 96 694 l 286 694 l 286 283 q 317 169 286 203 q 407 136 347 136 q 524 183 479 136 q 569 322 569 229 l 569 694 l 760 694 m 614 1031 l 475 794 l 333 794 l 431 1031 l 614 1031 z "},"û":{"ha":860,"x_min":96,"x_max":760,"o":"m 760 694 l 760 0 l 590 0 l 583 119 q 340 -14 517 -14 q 162 47 228 -14 q 96 235 96 107 l 96 694 l 286 694 l 286 283 q 317 169 286 203 q 407 136 347 136 q 524 183 479 136 q 569 322 569 229 l 569 694 l 760 694 m 528 785 l 425 918 l 322 785 l 176 785 l 329 1022 l 521 1022 l 674 785 l 528 785 z "},"ü":{"ha":860,"x_min":96,"x_max":760,"o":"m 760 694 l 760 0 l 590 0 l 583 119 q 340 -14 517 -14 q 162 47 228 -14 q 96 235 96 107 l 96 694 l 286 694 l 286 283 q 317 169 286 203 q 407 136 347 136 q 524 183 479 136 q 569 322 569 229 l 569 694 l 760 694 m 279 979 q 356 953 328 979 q 383 882 383 926 q 356 811 383 838 q 279 785 328 785 q 204 811 232 785 q 176 882 176 838 q 204 953 176 926 q 279 979 232 979 m 571 979 q 648 953 619 979 q 676 882 676 926 q 648 811 676 838 q 571 785 619 785 q 496 811 524 785 q 468 882 468 838 q 496 953 468 926 q 571 979 524 979 z "},"ù":{"ha":860,"x_min":96,"x_max":760,"o":"m 760 694 l 760 0 l 590 0 l 583 119 q 340 -14 517 -14 q 162 47 228 -14 q 96 235 96 107 l 96 694 l 286 694 l 286 283 q 317 169 286 203 q 407 136 347 136 q 524 183 479 136 q 569 322 569 229 l 569 694 l 760 694 m 506 794 l 364 794 l 225 1031 l 408 1031 l 506 794 z "},"ű":{"ha":860,"x_min":96,"x_max":760,"o":"m 760 694 l 760 0 l 590 0 l 583 119 q 340 -14 517 -14 q 162 47 228 -14 q 96 235 96 107 l 96 694 l 286 694 l 286 283 q 317 169 286 203 q 407 136 347 136 q 524 183 479 136 q 569 322 569 229 l 569 694 l 760 694 m 333 794 l 197 794 l 297 1031 l 467 1031 l 333 794 m 610 794 l 474 794 l 572 1031 l 743 1031 l 610 794 z "},"ū":{"ha":860,"x_min":96,"x_max":760,"o":"m 760 694 l 760 0 l 590 0 l 583 119 q 340 -14 517 -14 q 162 47 228 -14 q 96 235 96 107 l 96 694 l 286 694 l 286 283 q 317 169 286 203 q 407 136 347 136 q 524 183 479 136 q 569 322 569 229 l 569 694 l 760 694 m 678 804 l 172 804 l 172 931 l 678 931 l 678 804 z "},"ģ":{"ha":763,"x_min":44,"x_max":764,"o":"m 467 794 l 296 794 l 394 1075 l 519 1075 l 467 794 m 522 131 q 698 81 636 131 q 760 -62 760 31 q 657 -236 760 -174 q 386 -299 554 -299 q 128 -253 213 -299 q 44 -128 44 -207 q 76 -46 44 -81 q 171 4 108 -11 q 96 59 124 24 q 68 143 68 94 q 97 229 68 193 q 178 283 126 265 q 97 362 125 314 q 69 472 69 410 q 155 645 69 582 q 388 708 240 708 q 528 690 463 708 q 598 819 546 772 q 739 860 650 865 l 764 724 q 735 725 754 725 q 649 707 683 725 q 601 658 615 689 q 680 581 653 628 q 707 472 707 533 q 622 301 707 364 q 388 238 536 238 q 263 250 319 238 q 208 188 208 236 q 229 145 208 160 q 288 131 250 131 l 522 131 m 388 589 q 297 557 332 589 q 261 474 261 525 q 297 389 261 421 q 388 357 332 357 q 480 389 444 357 q 515 474 515 421 q 480 557 515 525 q 388 589 444 589 m 401 -168 q 551 -144 499 -168 q 604 -82 604 -119 q 580 -38 604 -53 q 500 -24 556 -24 l 311 -24 q 196 -86 196 -24 q 247 -147 196 -125 q 401 -168 299 -168 z "},"ķ":{"ha":836,"x_min":100,"x_max":824,"o":"m 417 307 l 290 172 l 290 0 l 100 0 l 100 999 l 290 999 l 290 378 l 592 694 l 807 694 l 546 422 l 824 0 l 608 0 l 417 307 m 438 -332 l 308 -332 l 358 -92 l 533 -92 l 438 -332 z "},"ļ":{"ha":443,"x_min":97,"x_max":438,"o":"m 288 221 q 302 151 288 171 q 356 132 317 132 q 397 135 379 132 q 438 147 414 139 l 421 15 q 363 -6 399 1 q 292 -14 326 -14 q 144 35 190 -14 q 97 193 97 85 l 97 999 l 288 999 l 288 221 m 265 -332 l 136 -332 l 186 -92 l 361 -92 l 265 -332 z "},"ņ":{"ha":860,"x_min":100,"x_max":764,"o":"m 514 708 q 695 643 626 708 q 764 456 764 578 l 764 0 l 574 0 l 574 400 q 450 558 574 558 q 337 511 383 558 q 290 367 290 464 l 290 0 l 100 0 l 100 694 l 271 694 l 276 571 q 372 674 311 639 q 514 708 433 708 m 443 -332 l 314 -332 l 364 -92 l 539 -92 l 443 -332 z "},"ŗ":{"ha":586,"x_min":67,"x_max":568,"o":"m 493 708 q 568 693 542 708 l 544 526 q 457 547 513 547 q 340 498 389 547 q 290 360 290 449 l 290 0 l 100 0 l 100 694 l 265 694 l 278 558 q 493 708 335 708 m 196 -332 l 67 -332 l 117 -92 l 292 -92 l 196 -332 z "},"ş":{"ha":738,"x_min":47,"x_max":689,"o":"m 408 418 q 623 338 560 388 q 686 201 686 289 q 631 67 686 122 q 471 -6 575 13 q 528 -67 508 -32 q 549 -140 549 -103 q 498 -256 549 -214 q 364 -299 447 -299 q 199 -246 256 -299 l 249 -147 q 292 -178 267 -167 q 347 -189 318 -189 q 402 -169 381 -189 q 424 -115 424 -149 q 403 -58 424 -82 q 328 -12 382 -35 q 47 119 128 -1 l 158 233 q 238 149 186 174 q 367 125 290 125 q 461 142 428 125 q 494 188 494 158 q 463 228 494 211 q 356 260 432 244 q 131 344 196 292 q 67 485 67 396 q 103 594 67 543 q 210 677 139 646 q 379 708 281 708 q 568 673 496 708 q 689 561 640 638 l 571 461 q 495 543 540 517 q 382 569 450 569 q 291 550 325 569 q 257 503 257 531 q 290 454 257 474 q 408 418 324 435 z "},"ţ":{"ha":613,"x_min":28,"x_max":576,"o":"m 453 -8 q 506 -69 488 -35 q 525 -140 525 -104 q 474 -256 525 -214 q 340 -299 424 -299 q 175 -246 232 -299 l 225 -147 q 267 -177 242 -165 q 321 -189 292 -189 q 378 -169 357 -189 q 400 -115 400 -150 q 377 -53 400 -78 q 292 -3 354 -29 q 154 196 154 36 l 154 553 l 28 553 l 28 694 l 154 694 l 154 854 l 344 907 l 344 694 l 569 694 l 569 553 l 344 553 l 344 226 q 440 131 344 131 q 547 169 501 131 l 576 43 q 453 -8 529 4 z "},"ș":{"ha":738,"x_min":47,"x_max":689,"o":"m 369 -14 q 47 119 138 -14 l 158 233 q 238 149 186 174 q 367 125 290 125 q 461 142 428 125 q 494 188 494 158 q 463 228 494 211 q 356 260 432 244 q 131 344 196 292 q 67 485 67 396 q 103 594 67 543 q 210 677 139 646 q 379 708 281 708 q 568 673 496 708 q 689 561 640 638 l 571 461 q 495 543 540 517 q 382 569 450 569 q 291 550 325 569 q 257 503 257 531 q 290 454 257 474 q 408 418 324 435 q 623 338 560 388 q 686 201 686 289 q 603 45 686 104 q 369 -14 521 -14 m 374 -332 l 244 -332 l 294 -92 l 469 -92 l 374 -332 z "},"ț":{"ha":596,"x_min":28,"x_max":576,"o":"m 576 43 q 492 1 543 17 q 386 -14 442 -14 q 154 196 154 -14 l 154 553 l 28 553 l 28 694 l 154 694 l 154 854 l 344 907 l 344 694 l 569 694 l 569 553 l 344 553 l 344 226 q 440 131 344 131 q 547 169 501 131 l 576 43 m 342 -332 l 213 -332 l 263 -92 l 438 -92 l 342 -332 z "},"ų":{"ha":860,"x_min":96,"x_max":771,"o":"m 771 -268 q 639 -299 722 -299 q 513 -261 558 -299 q 467 -156 467 -224 q 499 -62 467 -101 q 594 6 531 -22 l 582 133 q 482 24 546 63 q 340 -14 418 -14 q 162 47 228 -14 q 96 235 96 107 l 96 694 l 286 694 l 286 283 q 316 169 286 203 q 403 136 346 136 q 522 188 474 136 q 569 329 569 240 l 569 694 l 760 694 l 760 0 q 640 -58 678 -28 q 601 -124 601 -87 q 621 -170 601 -154 q 674 -186 640 -186 q 743 -171 717 -186 l 771 -268 z "},"ů":{"ha":860,"x_min":96,"x_max":760,"o":"m 760 694 l 760 0 l 590 0 l 583 119 q 340 -14 517 -14 q 162 47 228 -14 q 96 235 96 107 l 96 694 l 286 694 l 286 283 q 317 169 286 203 q 407 136 347 136 q 524 183 479 136 q 569 322 569 229 l 569 694 l 760 694 m 425 1111 q 558 1066 510 1111 q 607 944 607 1021 q 558 823 607 868 q 425 778 510 778 q 291 823 340 778 q 242 944 242 868 q 291 1066 242 1021 q 425 1111 340 1111 m 425 1025 q 366 1003 389 1025 q 343 944 343 981 q 366 888 343 910 q 425 865 389 865 q 484 888 461 865 q 507 944 507 910 q 484 1003 507 981 q 425 1025 461 1025 z "},"v":{"ha":758,"x_min":6,"x_max":753,"o":"m 753 694 l 489 0 l 269 0 l 6 694 l 210 694 l 381 133 l 556 694 l 753 694 z "},"w":{"ha":1235,"x_min":28,"x_max":1207,"o":"m 1207 694 l 986 0 l 765 0 l 614 490 l 468 0 l 249 0 l 28 694 l 229 694 l 368 153 l 524 694 l 711 694 l 867 153 l 1006 694 l 1207 694 z "},"x":{"ha":790,"x_min":19,"x_max":767,"o":"m 549 0 l 392 253 l 232 0 l 19 0 l 275 351 l 32 694 l 251 694 l 400 451 l 549 694 l 763 694 l 517 351 l 767 0 l 549 0 z "},"y":{"ha":774,"x_min":10,"x_max":765,"o":"m 485 -43 q 366 -242 433 -185 q 186 -299 299 -299 q 10 -244 74 -299 l 57 -110 q 106 -144 79 -135 q 174 -153 133 -153 q 243 -135 217 -153 q 288 -69 269 -117 l 313 -10 l 236 171 l 24 694 l 235 694 l 365 278 l 403 139 l 444 286 l 572 694 l 765 694 l 485 -43 z "},"ý":{"ha":774,"x_min":10,"x_max":765,"o":"m 485 -43 q 366 -242 433 -185 q 186 -299 299 -299 q 10 -244 74 -299 l 57 -110 q 106 -144 79 -135 q 174 -153 133 -153 q 243 -135 217 -153 q 288 -69 269 -117 l 313 -10 l 236 171 l 24 694 l 235 694 l 365 278 l 403 139 l 444 286 l 572 694 l 765 694 l 485 -43 m 593 1031 l 454 794 l 313 794 l 410 1031 l 593 1031 z "},"ÿ":{"ha":774,"x_min":10,"x_max":765,"o":"m 485 -43 q 366 -242 433 -185 q 186 -299 299 -299 q 10 -244 74 -299 l 57 -110 q 106 -144 79 -135 q 174 -153 133 -153 q 243 -135 217 -153 q 288 -69 269 -117 l 313 -10 l 236 171 l 24 694 l 235 694 l 365 278 l 403 139 l 444 286 l 572 694 l 765 694 l 485 -43 m 258 979 q 335 953 307 979 q 363 882 363 926 q 335 811 363 838 q 258 785 307 785 q 183 811 211 785 q 156 882 156 838 q 183 953 156 926 q 258 979 211 979 m 550 979 q 627 953 599 979 q 656 882 656 926 q 627 811 656 838 q 550 785 599 785 q 475 811 503 785 q 447 882 447 838 q 475 953 447 926 q 550 979 503 979 z "},"z":{"ha":725,"x_min":61,"x_max":671,"o":"m 61 122 l 368 478 l 447 557 l 332 554 l 64 554 l 64 694 l 658 694 l 658 572 l 351 218 l 272 138 l 400 140 l 671 140 l 671 0 l 61 0 l 61 122 z "},"ź":{"ha":725,"x_min":61,"x_max":671,"o":"m 61 122 l 368 478 l 447 557 l 332 554 l 64 554 l 64 694 l 658 694 l 658 572 l 351 218 l 272 138 l 400 140 l 671 140 l 671 0 l 61 0 l 61 122 m 538 1031 l 399 794 l 257 794 l 354 1031 l 538 1031 z "},"ž":{"ha":725,"x_min":61,"x_max":671,"o":"m 61 122 l 368 478 l 447 557 l 332 554 l 64 554 l 64 694 l 658 694 l 658 572 l 351 218 l 272 138 l 400 140 l 671 140 l 671 0 l 61 0 l 61 122 m 443 794 l 251 794 l 99 1031 l 244 1031 l 347 899 l 450 1031 l 596 1031 l 443 794 z "},"ż":{"ha":725,"x_min":61,"x_max":671,"o":"m 61 122 l 368 478 l 447 557 l 332 554 l 64 554 l 64 694 l 658 694 l 658 572 l 351 218 l 272 138 l 400 140 l 671 140 l 671 0 l 61 0 l 61 122 m 350 1000 q 433 974 404 1000 q 463 899 463 947 q 433 824 463 850 q 350 797 404 797 q 268 824 297 797 q 239 899 239 850 q 268 974 239 947 q 350 1000 297 1000 z "},"ﬁ":{"ha":957,"x_min":29,"x_max":879,"o":"m 332 694 l 551 694 l 551 553 l 340 553 l 340 0 l 150 0 l 150 553 l 29 553 l 29 694 l 150 694 l 150 778 q 221 952 150 892 q 413 1013 292 1013 q 497 1003 458 1013 q 557 976 535 993 l 531 850 q 451 871 499 871 q 332 764 332 871 l 332 694 m 761 794 q 643 896 643 794 q 761 999 643 999 q 879 896 879 999 q 761 794 879 794 m 856 0 l 665 0 l 665 694 l 856 694 l 856 0 z "},"ﬂ":{"ha":1008,"x_min":29,"x_max":1003,"o":"m 332 694 l 551 694 l 551 553 l 340 553 l 340 0 l 150 0 l 150 553 l 29 553 l 29 694 l 150 694 l 150 778 q 221 952 150 892 q 413 1013 292 1013 q 497 1003 458 1013 q 557 976 535 993 l 531 850 q 451 871 499 871 q 332 764 332 871 l 332 694 m 853 221 q 867 151 853 171 q 921 132 882 132 q 962 135 944 132 q 1003 147 979 139 l 986 15 q 928 -6 964 1 q 857 -14 892 -14 q 709 35 756 -14 q 663 193 663 85 l 663 999 l 853 999 l 853 221 z "},"ª":{"ha":581,"x_min":31,"x_max":549,"o":"m 518 528 q 549 532 539 528 l 538 451 q 469 436 510 436 q 397 455 426 436 q 358 510 368 474 q 290 456 335 475 q 183 436 244 436 q 70 466 110 436 q 31 551 31 496 q 74 648 31 611 q 215 703 118 685 l 333 725 l 333 743 q 313 799 333 779 q 253 818 292 818 q 188 801 214 818 q 151 743 163 785 l 38 779 q 107 883 50 846 q 260 921 164 921 q 479 742 479 921 l 479 569 q 518 528 479 528 m 235 529 q 303 550 274 529 q 333 606 333 571 l 333 657 l 260 640 q 193 615 214 631 q 172 574 172 600 q 235 529 172 529 m 43 340 l 528 340 l 528 235 l 43 235 l 43 340 z "},"º":{"ha":556,"x_min":38,"x_max":517,"o":"m 278 436 q 101 500 164 436 q 38 678 38 564 q 101 857 38 793 q 278 921 164 921 q 454 857 392 921 q 517 678 517 793 q 454 500 517 564 q 278 436 392 436 m 278 536 q 348 572 325 536 q 371 678 371 607 q 278 822 371 822 q 185 678 185 822 q 208 572 185 607 q 278 536 231 536 m 50 340 l 506 340 l 506 235 l 50 235 l 50 340 z "},"π":{"ha":1068,"x_min":35,"x_max":1019,"o":"m 826 557 l 826 231 q 860 152 826 175 q 967 133 893 129 l 944 -3 q 893 -4 926 -4 q 693 42 750 -4 q 636 194 636 89 l 636 557 l 401 557 l 401 0 l 211 0 l 211 557 l 35 557 l 35 694 l 1019 694 l 1019 557 l 826 557 z "},"⁄":{"ha":358,"x_min":-225,"x_max":582,"o":"m 438 917 l 582 917 l -79 0 l -225 0 l 438 917 z "},"½":{"ha":1274,"x_min":22,"x_max":1239,"o":"m 322 924 l 322 372 l 178 372 l 178 690 q 182 783 178 729 q 22 711 103 719 l 22 831 q 121 866 65 838 q 199 924 176 894 l 322 924 m 822 917 l 967 917 l 306 0 l 160 0 l 822 917 m 789 88 q 914 167 881 143 q 1042 277 1006 233 q 1079 363 1079 321 q 1058 419 1079 397 q 999 440 1038 440 q 932 410 956 440 q 907 325 908 381 l 771 365 q 836 503 774 454 q 1003 553 899 553 q 1173 500 1115 553 q 1231 374 1231 447 q 1192 265 1231 318 q 1071 157 1153 213 q 976 106 1033 131 l 976 104 q 1090 108 1051 108 l 1239 108 l 1239 -6 l 789 -6 l 789 88 z "},"¼":{"ha":1179,"x_min":22,"x_max":1156,"o":"m 322 924 l 322 372 l 178 372 l 178 690 q 182 783 178 729 q 22 711 103 719 l 22 831 q 121 866 65 838 q 199 924 176 894 l 322 924 m 822 917 l 967 917 l 306 0 l 160 0 l 822 917 m 1156 119 l 1067 119 l 1067 -6 l 942 -6 l 942 119 l 664 119 l 664 188 l 899 546 l 1067 546 l 1067 217 l 1156 217 l 1156 119 m 942 217 l 942 343 q 944 419 942 369 l 946 453 l 942 453 q 899 372 926 414 l 792 217 l 942 217 z "},"¾":{"ha":1313,"x_min":19,"x_max":1288,"o":"m 257 931 q 413 890 358 931 q 468 776 468 849 q 435 687 468 721 q 354 650 401 653 l 354 646 q 444 614 408 646 q 479 525 479 582 q 419 408 479 453 q 260 364 358 364 q 103 397 163 364 q 19 501 44 429 l 156 554 q 251 472 164 472 q 313 491 290 472 q 335 543 335 510 q 251 603 335 603 l 219 603 l 219 685 l 246 685 q 303 702 283 685 q 324 751 324 719 q 250 818 324 818 q 193 799 215 818 q 165 743 171 781 l 35 786 q 110 894 50 858 q 257 931 169 931 m 956 917 l 1100 917 l 439 0 l 293 0 l 956 917 m 1288 119 l 1199 119 l 1199 -6 l 1074 -6 l 1074 119 l 796 119 l 796 188 l 1031 546 l 1199 546 l 1199 217 l 1288 217 l 1288 119 m 1074 217 l 1074 343 q 1076 419 1074 369 l 1078 453 l 1074 453 q 1031 372 1058 414 l 924 217 l 1074 217 z "},"➀":{"ha":1264,"x_min":107,"x_max":1157,"o":"m 632 -56 q 358 9 476 -56 q 173 190 239 74 q 107 458 107 307 q 173 726 107 610 q 358 908 239 843 q 632 972 476 972 q 906 908 788 972 q 1091 726 1025 843 q 1157 458 1157 610 q 1091 190 1157 307 q 906 9 1025 74 q 632 -56 788 -56 m 632 44 q 848 97 754 44 q 994 242 942 149 q 1046 458 1046 336 q 994 674 1046 581 q 848 820 942 768 q 632 872 754 872 q 416 820 510 872 q 270 674 322 768 q 218 458 218 581 q 270 242 218 336 q 416 97 322 149 q 632 44 510 44 m 739 740 l 739 189 l 594 189 l 594 507 q 599 600 594 546 q 439 528 519 536 l 439 647 q 538 683 482 654 q 615 740 593 711 l 739 740 z "},"➁":{"ha":1264,"x_min":107,"x_max":1157,"o":"m 632 -56 q 358 9 476 -56 q 173 190 239 74 q 107 458 107 307 q 173 726 107 610 q 358 908 239 843 q 632 972 476 972 q 906 908 788 972 q 1091 726 1025 843 q 1157 458 1157 610 q 1091 190 1157 307 q 906 9 1025 74 q 632 -56 788 -56 m 632 44 q 848 97 754 44 q 994 242 942 149 q 1046 458 1046 336 q 994 674 1046 581 q 848 820 942 768 q 632 872 754 872 q 416 820 510 872 q 270 674 322 768 q 218 458 218 581 q 270 242 218 336 q 416 97 322 149 q 632 44 510 44 m 411 296 q 536 375 503 351 q 665 485 628 442 q 701 571 701 529 q 681 627 701 606 q 621 649 660 649 q 554 619 578 649 q 529 533 531 589 l 393 574 q 458 712 396 663 q 625 761 521 761 q 795 708 738 761 q 853 582 853 656 q 814 474 853 526 q 693 365 775 421 q 599 314 656 339 l 599 313 q 713 317 674 317 l 861 317 l 861 203 l 411 203 l 411 296 z "},"➂":{"ha":1264,"x_min":107,"x_max":1157,"o":"m 632 -56 q 358 9 476 -56 q 173 190 239 74 q 107 458 107 307 q 173 726 107 610 q 358 908 239 843 q 632 972 476 972 q 906 908 788 972 q 1091 726 1025 843 q 1157 458 1157 610 q 1091 190 1157 307 q 906 9 1025 74 q 632 -56 788 -56 m 632 44 q 848 97 754 44 q 994 242 942 149 q 1046 458 1046 336 q 994 674 1046 581 q 848 820 942 768 q 632 872 754 872 q 416 820 510 872 q 270 674 322 768 q 218 458 218 581 q 270 242 218 336 q 416 97 322 149 q 632 44 510 44 m 639 743 q 795 702 740 743 q 850 589 850 661 q 817 499 850 533 q 736 463 783 465 l 736 458 q 826 426 790 458 q 861 338 861 394 q 801 221 861 265 q 642 176 740 176 q 485 210 544 176 q 403 314 426 243 l 538 367 q 633 285 546 285 q 694 303 672 285 q 717 356 717 322 q 633 415 717 415 l 601 415 l 601 497 l 628 497 q 685 515 665 497 q 706 564 706 532 q 632 631 706 631 q 575 612 597 631 q 547 556 553 593 l 417 599 q 492 707 432 671 q 639 743 551 743 z "},"➃":{"ha":1264,"x_min":107,"x_max":1157,"o":"m 632 -56 q 358 9 476 -56 q 173 190 239 74 q 107 458 107 307 q 173 726 107 610 q 358 908 239 843 q 632 972 476 972 q 906 908 788 972 q 1091 726 1025 843 q 1157 458 1157 610 q 1091 190 1157 307 q 906 9 1025 74 q 632 -56 788 -56 m 632 44 q 848 97 754 44 q 994 242 942 149 q 1046 458 1046 336 q 994 674 1046 581 q 848 820 942 768 q 632 872 754 872 q 416 820 510 872 q 270 674 322 768 q 218 458 218 581 q 270 242 218 336 q 416 97 322 149 q 632 44 510 44 m 844 314 l 756 314 l 756 189 l 631 189 l 631 314 l 353 314 l 353 382 l 588 740 l 756 740 l 756 411 l 844 411 l 844 314 m 631 411 l 631 538 q 633 614 631 564 l 635 647 l 631 647 q 588 567 615 608 l 481 411 l 631 411 z "},"➄":{"ha":1264,"x_min":107,"x_max":1157,"o":"m 632 -56 q 358 9 476 -56 q 173 190 239 74 q 107 458 107 307 q 173 726 107 610 q 358 908 239 843 q 632 972 476 972 q 906 908 788 972 q 1091 726 1025 843 q 1157 458 1157 610 q 1091 190 1157 307 q 906 9 1025 74 q 632 -56 788 -56 m 632 44 q 848 97 754 44 q 994 242 942 149 q 1046 458 1046 336 q 994 674 1046 581 q 848 820 942 768 q 632 872 754 872 q 416 820 510 872 q 270 674 322 768 q 218 458 218 581 q 270 242 218 336 q 416 97 322 149 q 632 44 510 44 m 675 531 q 808 484 761 531 q 856 361 856 438 q 793 218 856 267 q 631 169 731 169 q 488 195 544 169 q 399 283 432 221 l 529 344 q 628 276 547 276 q 693 299 668 276 q 718 358 718 321 q 631 436 718 436 q 574 426 596 436 q 538 396 551 417 l 422 404 l 453 728 l 831 728 l 831 618 l 561 618 l 553 529 q 546 493 551 513 l 547 493 q 593 522 564 513 q 675 531 622 531 z "},"➅":{"ha":1264,"x_min":107,"x_max":1157,"o":"m 632 -56 q 358 9 476 -56 q 173 190 239 74 q 107 458 107 307 q 173 726 107 610 q 358 908 239 843 q 632 972 476 972 q 906 908 788 972 q 1091 726 1025 843 q 1157 458 1157 610 q 1091 190 1157 307 q 906 9 1025 74 q 632 -56 788 -56 m 632 44 q 848 97 754 44 q 994 242 942 149 q 1046 458 1046 336 q 994 674 1046 581 q 848 820 942 768 q 632 872 754 872 q 416 820 510 872 q 270 674 322 768 q 218 458 218 581 q 270 242 218 336 q 416 97 322 149 q 632 44 510 44 m 629 175 q 446 247 510 175 q 382 458 382 318 q 453 669 382 596 q 642 742 525 742 q 770 714 719 742 q 847 624 821 686 l 735 568 q 703 615 726 597 q 643 632 681 632 q 553 586 586 632 q 521 472 521 540 l 521 457 l 522 457 q 582 510 547 493 q 668 528 617 528 q 803 483 751 528 q 854 353 854 438 q 795 222 854 268 q 629 175 736 175 m 631 283 q 696 302 672 283 q 719 356 719 321 q 696 408 719 389 q 631 428 672 428 q 567 408 590 428 q 543 356 543 388 q 567 302 543 321 q 631 283 590 283 z "},"➆":{"ha":1264,"x_min":107,"x_max":1157,"o":"m 632 -56 q 358 9 476 -56 q 173 190 239 74 q 107 458 107 307 q 173 726 107 610 q 358 908 239 843 q 632 972 476 972 q 906 908 788 972 q 1091 726 1025 843 q 1157 458 1157 610 q 1091 190 1157 307 q 906 9 1025 74 q 632 -56 788 -56 m 632 44 q 848 97 754 44 q 994 242 942 149 q 1046 458 1046 336 q 994 674 1046 581 q 848 820 942 768 q 632 872 754 872 q 416 820 510 872 q 270 674 322 768 q 218 458 218 581 q 270 242 218 336 q 416 97 322 149 q 632 44 510 44 m 867 718 l 867 618 q 731 414 771 525 q 692 167 692 303 l 547 167 q 591 400 547 288 q 721 603 635 513 l 415 603 l 415 718 l 867 718 z "},"➇":{"ha":1264,"x_min":107,"x_max":1157,"o":"m 632 -56 q 358 9 476 -56 q 173 190 239 74 q 107 458 107 307 q 173 726 107 610 q 358 908 239 843 q 632 972 476 972 q 906 908 788 972 q 1091 726 1025 843 q 1157 458 1157 610 q 1091 190 1157 307 q 906 9 1025 74 q 632 -56 788 -56 m 632 44 q 848 97 754 44 q 994 242 942 149 q 1046 458 1046 336 q 994 674 1046 581 q 848 820 942 768 q 632 872 754 872 q 416 820 510 872 q 270 674 322 768 q 218 458 218 581 q 270 242 218 336 q 416 97 322 149 q 632 44 510 44 m 632 742 q 792 700 733 742 q 851 586 851 658 q 827 512 851 543 q 754 465 803 481 l 754 464 q 840 417 810 449 q 869 336 869 385 q 806 219 869 261 q 632 176 743 176 q 459 219 522 176 q 396 336 396 261 q 425 417 396 383 q 508 464 454 450 l 508 465 q 438 511 463 479 q 413 586 413 543 q 472 700 413 658 q 632 742 531 742 m 632 646 q 572 628 593 646 q 550 581 550 611 q 572 531 550 549 q 632 514 593 514 q 693 532 671 514 q 715 581 715 550 q 694 628 715 611 q 632 646 672 646 m 632 274 q 701 292 676 274 q 726 344 726 311 q 701 397 726 378 q 632 415 676 415 q 564 397 589 415 q 539 344 539 378 q 563 292 539 311 q 632 274 588 274 z "},"➈":{"ha":1264,"x_min":107,"x_max":1157,"o":"m 632 -56 q 358 9 476 -56 q 173 190 239 74 q 107 458 107 307 q 173 726 107 610 q 358 908 239 843 q 632 972 476 972 q 906 908 788 972 q 1091 726 1025 843 q 1157 458 1157 610 q 1091 190 1157 307 q 906 9 1025 74 q 632 -56 788 -56 m 632 44 q 848 97 754 44 q 994 242 942 149 q 1046 458 1046 336 q 994 674 1046 581 q 848 820 942 768 q 632 872 754 872 q 416 820 510 872 q 270 674 322 768 q 218 458 218 581 q 270 242 218 336 q 416 97 322 149 q 632 44 510 44 m 636 742 q 820 669 756 742 q 885 458 885 597 q 816 246 885 317 q 628 175 747 175 q 415 301 456 175 l 542 347 q 569 299 549 314 q 632 285 590 285 q 719 326 692 285 q 746 429 746 367 q 744 451 746 444 l 743 451 q 692 406 731 425 q 610 386 654 386 q 463 433 518 386 q 408 560 408 481 q 469 694 408 646 q 636 742 529 742 m 642 633 q 576 614 599 633 q 553 560 553 594 q 576 508 553 526 q 640 489 599 489 q 705 508 681 489 q 729 560 729 528 q 706 613 729 593 q 642 633 682 633 z "},"₀":{"ha":565,"x_min":39,"x_max":526,"o":"m 282 -271 q 39 13 39 -271 q 282 296 39 296 q 526 13 526 296 q 282 -271 526 -271 m 282 -164 q 358 -122 335 -164 q 382 13 382 -81 q 358 147 382 106 q 282 189 335 189 q 206 147 229 189 q 182 13 182 106 q 206 -122 182 -81 q 282 -164 229 -164 z "},"₁":{"ha":385,"x_min":22,"x_max":322,"o":"m 322 289 l 322 -262 l 178 -262 l 178 56 q 182 149 178 94 q 22 76 103 85 l 22 196 q 121 231 65 203 q 199 289 176 260 l 322 289 z "},"₂":{"ha":531,"x_min":28,"x_max":496,"o":"m 46 -169 q 171 -90 138 -114 q 299 20 263 -24 q 336 106 336 64 q 315 162 336 140 q 256 183 294 183 q 189 153 213 183 q 164 68 165 124 l 28 108 q 93 247 31 197 q 260 296 156 296 q 430 243 372 296 q 488 117 488 190 q 449 8 488 61 q 328 -100 410 -44 q 233 -151 290 -126 l 233 -153 q 347 -149 308 -149 l 496 -149 l 496 -262 l 46 -262 l 46 -169 z "},"₃":{"ha":518,"x_min":21,"x_max":479,"o":"m 257 296 q 413 255 358 296 q 468 142 468 214 q 435 52 468 86 q 354 15 401 18 l 354 11 q 444 -21 408 11 q 479 -110 479 -53 q 419 -226 479 -182 q 260 -271 358 -271 q 103 -237 163 -271 q 21 -133 44 -204 l 156 -81 q 251 -162 164 -162 q 313 -144 290 -162 q 335 -92 335 -125 q 251 -32 335 -32 l 219 -32 l 219 50 l 246 50 q 303 67 283 50 q 324 117 324 85 q 250 183 324 183 q 193 165 215 183 q 165 108 171 146 l 35 151 q 110 260 50 224 q 257 296 169 296 z "},"₄":{"ha":531,"x_min":14,"x_max":506,"o":"m 506 -137 l 417 -137 l 417 -262 l 292 -262 l 292 -137 l 14 -137 l 14 -69 l 249 289 l 417 289 l 417 -40 l 506 -40 l 506 -137 m 292 -40 l 292 86 q 294 163 292 113 l 296 196 l 292 196 q 249 115 276 157 l 142 -40 l 292 -40 z "},"₅":{"ha":522,"x_min":25,"x_max":482,"o":"m 301 92 q 435 45 388 92 q 482 -78 482 -1 q 419 -221 482 -172 q 257 -269 357 -269 q 115 -244 171 -269 q 25 -156 58 -218 l 156 -94 q 254 -162 174 -162 q 319 -140 294 -162 q 344 -81 344 -118 q 257 -3 344 -3 q 200 -12 222 -3 q 164 -43 178 -22 l 49 -35 l 79 289 l 457 289 l 457 179 l 188 179 l 179 90 q 172 54 178 74 l 174 54 q 219 83 190 74 q 301 92 249 92 z "},"₆":{"ha":549,"x_min":42,"x_max":514,"o":"m 289 -271 q 106 -199 169 -271 q 42 13 42 -128 q 113 223 42 150 q 301 296 185 296 q 430 268 379 296 q 507 178 481 240 l 394 122 q 363 169 386 151 q 303 186 340 186 q 213 140 246 186 q 181 26 181 94 l 181 11 l 182 11 q 242 65 207 47 q 328 82 276 82 q 463 37 411 82 q 514 -93 514 -8 q 455 -224 514 -178 q 289 -271 396 -271 m 290 -162 q 356 -144 332 -162 q 379 -90 379 -125 q 356 -37 379 -57 q 290 -18 332 -18 q 226 -38 250 -18 q 203 -90 203 -58 q 226 -144 203 -125 q 290 -162 250 -162 z "},"₇":{"ha":471,"x_min":10,"x_max":461,"o":"m 461 289 l 461 189 q 326 -15 365 96 q 286 -262 286 -126 l 142 -262 q 185 -29 142 -142 q 315 174 229 83 l 10 174 l 10 289 l 461 289 z "},"₈":{"ha":563,"x_min":44,"x_max":518,"o":"m 281 294 q 441 253 382 294 q 500 139 500 211 q 476 65 500 96 q 403 18 451 33 l 403 17 q 488 -31 458 1 q 518 -111 518 -62 q 455 -228 518 -186 q 281 -271 392 -271 q 108 -228 171 -271 q 44 -111 44 -186 q 74 -31 44 -64 q 157 17 103 3 l 157 18 q 86 64 111 32 q 61 139 61 96 q 120 253 61 211 q 281 294 179 294 m 281 199 q 220 181 242 199 q 199 133 199 164 q 220 84 199 101 q 281 67 242 67 q 342 85 319 67 q 364 133 364 103 q 342 181 364 164 q 281 199 321 199 m 281 -174 q 350 -155 325 -174 q 375 -103 375 -136 q 350 -51 375 -69 q 281 -32 325 -32 q 213 -51 238 -32 q 188 -103 188 -69 q 212 -155 188 -136 q 281 -174 236 -174 z "},"₉":{"ha":556,"x_min":38,"x_max":514,"o":"m 265 296 q 449 224 385 296 q 514 13 514 151 q 445 -200 514 -129 q 257 -271 376 -271 q 44 -144 85 -271 l 171 -99 q 199 -147 178 -132 q 261 -161 219 -161 q 348 -120 321 -161 q 375 -17 375 -79 q 374 6 375 -1 l 372 6 q 322 -40 360 -21 q 239 -60 283 -60 q 92 -12 147 -60 q 38 114 38 35 q 98 248 38 200 q 265 296 158 296 m 271 188 q 205 168 228 188 q 182 114 182 149 q 205 62 182 81 q 269 43 228 43 q 334 63 310 43 q 358 114 358 82 q 335 167 358 147 q 271 188 311 188 z "},"⁰":{"ha":565,"x_min":39,"x_max":526,"o":"m 282 454 q 39 738 39 454 q 282 1021 39 1021 q 526 738 526 1021 q 282 454 526 454 m 282 561 q 358 603 335 561 q 382 738 382 644 q 358 872 382 831 q 282 914 335 914 q 206 872 229 914 q 182 738 182 831 q 206 603 182 644 q 282 561 229 561 z "},"¹":{"ha":385,"x_min":22,"x_max":322,"o":"m 322 1014 l 322 463 l 178 463 l 178 781 q 182 874 178 819 q 22 801 103 810 l 22 921 q 121 956 65 928 q 199 1014 176 985 l 322 1014 z "},"²":{"ha":531,"x_min":28,"x_max":496,"o":"m 46 556 q 171 635 138 611 q 299 745 263 701 q 336 831 336 789 q 315 887 336 865 q 256 908 294 908 q 189 878 213 908 q 164 793 165 849 l 28 833 q 93 972 31 922 q 260 1021 156 1021 q 430 968 372 1021 q 488 842 488 915 q 449 733 488 786 q 328 625 410 681 q 233 574 290 599 l 233 572 q 347 576 308 576 l 496 576 l 496 463 l 46 463 l 46 556 z "},"³":{"ha":518,"x_min":21,"x_max":479,"o":"m 257 1021 q 413 980 358 1021 q 468 867 468 939 q 435 777 468 811 q 354 740 401 743 l 354 736 q 444 704 408 736 q 479 615 479 672 q 419 499 479 543 q 260 454 358 454 q 103 488 163 454 q 21 592 44 521 l 156 644 q 251 563 164 563 q 313 581 290 563 q 335 633 335 600 q 251 693 335 693 l 219 693 l 219 775 l 246 775 q 303 792 283 775 q 324 842 324 810 q 250 908 324 908 q 193 890 215 908 q 165 833 171 871 l 35 876 q 110 985 50 949 q 257 1021 169 1021 z "},"⁴":{"ha":531,"x_min":14,"x_max":506,"o":"m 506 588 l 417 588 l 417 463 l 292 463 l 292 588 l 14 588 l 14 656 l 249 1014 l 417 1014 l 417 685 l 506 685 l 506 588 m 292 685 l 292 811 q 294 888 292 838 l 296 921 l 292 921 q 249 840 276 882 l 142 685 l 292 685 z "},"⁵":{"ha":522,"x_min":25,"x_max":482,"o":"m 301 817 q 435 770 388 817 q 482 647 482 724 q 419 504 482 553 q 257 456 357 456 q 115 481 171 456 q 25 569 58 507 l 156 631 q 254 563 174 563 q 319 585 294 563 q 344 644 344 607 q 257 722 344 722 q 200 713 222 722 q 164 682 178 703 l 49 690 l 79 1014 l 457 1014 l 457 904 l 188 904 l 179 815 q 172 779 178 799 l 174 779 q 219 808 190 799 q 301 817 249 817 z "},"⁶":{"ha":549,"x_min":42,"x_max":514,"o":"m 289 454 q 106 526 169 454 q 42 738 42 597 q 113 948 42 875 q 301 1021 185 1021 q 430 993 379 1021 q 507 903 481 965 l 394 847 q 363 894 386 876 q 303 911 340 911 q 213 865 246 911 q 181 751 181 819 l 181 736 l 182 736 q 242 790 207 772 q 328 807 276 807 q 463 762 411 807 q 514 632 514 717 q 455 501 514 547 q 289 454 396 454 m 290 563 q 356 581 332 563 q 379 635 379 600 q 356 688 379 668 q 290 707 332 707 q 226 687 250 707 q 203 635 203 667 q 226 581 203 600 q 290 563 250 563 z "},"⁷":{"ha":471,"x_min":10,"x_max":461,"o":"m 461 1014 l 461 914 q 326 710 365 821 q 286 463 286 599 l 142 463 q 185 696 142 583 q 315 899 229 808 l 10 899 l 10 1014 l 461 1014 z "},"⁸":{"ha":563,"x_min":44,"x_max":518,"o":"m 281 1019 q 441 978 382 1019 q 500 864 500 936 q 476 790 500 821 q 403 743 451 758 l 403 742 q 488 694 458 726 q 518 614 518 663 q 455 497 518 539 q 281 454 392 454 q 108 497 171 454 q 44 614 44 539 q 74 694 44 661 q 157 742 103 728 l 157 743 q 86 789 111 757 q 61 864 61 821 q 120 978 61 936 q 281 1019 179 1019 m 281 924 q 220 906 242 924 q 199 858 199 889 q 220 809 199 826 q 281 792 242 792 q 342 810 319 792 q 364 858 364 828 q 342 906 364 889 q 281 924 321 924 m 281 551 q 350 570 325 551 q 375 622 375 589 q 350 674 375 656 q 281 693 325 693 q 213 674 238 693 q 188 622 188 656 q 212 570 188 589 q 281 551 236 551 z "},"⁹":{"ha":556,"x_min":38,"x_max":514,"o":"m 265 1021 q 449 949 385 1021 q 514 738 514 876 q 445 525 514 596 q 257 454 376 454 q 44 581 85 454 l 171 626 q 199 578 178 593 q 261 564 219 564 q 348 605 321 564 q 375 708 375 646 q 374 731 375 724 l 372 731 q 322 685 360 704 q 239 665 283 665 q 92 713 147 665 q 38 839 38 760 q 98 973 38 925 q 265 1021 158 1021 m 271 913 q 205 893 228 913 q 182 839 182 874 q 205 787 182 806 q 269 768 228 768 q 334 788 310 768 q 358 839 358 807 q 335 892 358 872 q 271 913 311 913 z "},"*":{"ha":808,"x_min":61,"x_max":747,"o":"m 551 588 l 660 442 l 547 360 l 442 508 l 404 585 l 367 508 l 261 360 l 149 442 l 258 588 l 318 647 l 235 660 l 61 714 l 103 846 l 276 788 l 351 747 l 338 832 l 333 1014 l 474 1014 l 471 832 l 457 747 l 532 788 l 706 846 l 747 714 l 574 660 l 490 647 l 551 588 z "},"\\":{"ha":635,"x_min":28,"x_max":607,"o":"m 206 999 l 607 -97 l 431 -97 l 28 999 l 206 999 z "},"·":{"ha":356,"x_min":57,"x_max":299,"o":"m 178 604 q 266 574 233 604 q 299 492 299 544 q 266 409 299 439 q 178 379 233 379 q 90 409 122 379 q 57 492 57 439 q 90 574 57 544 q 178 604 122 604 z "},"•":{"ha":597,"x_min":100,"x_max":497,"o":"m 299 657 q 443 604 389 657 q 497 464 497 551 q 443 325 497 378 q 299 272 389 272 q 154 325 208 272 q 100 464 100 378 q 154 604 100 551 q 299 657 208 657 z "},":":{"ha":417,"x_min":88,"x_max":329,"o":"m 208 708 q 297 678 264 708 q 329 596 329 647 q 297 514 329 544 q 208 483 264 483 q 120 513 153 483 q 88 596 88 543 q 120 678 88 649 q 208 708 153 708 m 208 213 q 297 182 264 213 q 329 100 329 151 q 297 18 329 49 q 208 -12 264 -12 q 120 17 153 -12 q 88 100 88 47 q 120 183 88 153 q 208 213 153 213 z "},",":{"ha":390,"x_min":61,"x_max":326,"o":"m 193 213 q 292 167 257 213 q 326 50 326 122 q 281 -105 326 -35 q 149 -214 236 -175 l 61 -147 q 164 -86 122 -124 q 219 -1 206 -49 l 214 3 q 174 -11 200 -11 q 103 17 133 -11 q 72 96 72 44 q 106 181 72 150 q 193 213 139 213 z "},"…":{"ha":1244,"x_min":82,"x_max":1164,"o":"m 1043 213 q 1131 182 1099 213 q 1164 100 1164 151 q 1131 18 1164 49 q 1043 -12 1099 -12 q 955 17 988 -12 q 922 100 922 47 q 955 183 922 153 q 1043 213 988 213 m 624 213 q 712 182 679 213 q 744 100 744 151 q 712 18 744 49 q 624 -12 679 -12 q 535 17 568 -12 q 503 100 503 47 q 535 183 503 153 q 624 213 568 213 m 203 213 q 291 182 258 213 q 324 100 324 151 q 291 18 324 49 q 203 -12 258 -12 q 115 17 147 -12 q 82 100 82 47 q 115 183 82 153 q 203 213 147 213 z "},"!":{"ha":404,"x_min":83,"x_max":319,"o":"m 301 583 l 278 296 l 125 296 l 101 583 l 101 917 l 301 917 l 301 583 m 201 201 q 288 172 256 201 q 319 94 319 143 q 288 17 319 46 q 201 -12 256 -12 q 115 17 147 -12 q 83 94 83 46 q 115 172 83 143 q 201 201 147 201 z "},"¡":{"ha":397,"x_min":81,"x_max":317,"o":"m 199 493 q 113 522 144 493 q 81 600 81 551 q 113 678 81 649 q 199 707 144 707 q 285 678 253 707 q 317 600 317 649 q 285 522 317 551 q 199 493 253 493 m 99 111 l 122 399 l 275 399 l 299 111 l 299 -222 l 99 -222 l 99 111 z "},"#":{"ha":932,"x_min":33,"x_max":897,"o":"m 713 564 l 679 357 l 838 357 l 838 236 l 660 236 l 621 0 l 485 0 l 524 236 l 325 236 l 286 0 l 150 0 l 188 236 l 33 236 l 33 357 l 208 357 l 242 564 l 93 564 l 93 685 l 261 685 l 299 917 l 436 917 l 399 685 l 596 685 l 635 917 l 771 917 l 733 685 l 897 685 l 897 564 l 713 564 m 576 564 l 378 564 l 344 357 l 543 357 l 576 564 z "},".":{"ha":390,"x_min":75,"x_max":317,"o":"m 196 213 q 284 182 251 213 q 317 100 317 151 q 284 18 317 49 q 196 -12 251 -12 q 108 17 140 -12 q 75 100 75 47 q 108 183 75 153 q 196 213 140 213 z "},"?":{"ha":810,"x_min":49,"x_max":747,"o":"m 410 931 q 655 867 563 931 q 747 685 747 804 q 676 501 747 564 q 485 425 604 438 l 475 294 l 306 294 l 297 504 q 486 555 429 518 q 543 657 543 592 q 506 741 543 711 q 397 771 469 771 q 280 730 325 771 q 229 614 235 689 l 49 689 q 158 865 67 800 q 410 931 249 931 m 390 204 q 478 175 446 204 q 510 96 510 146 q 478 17 510 46 q 390 -12 446 -12 q 303 17 335 -12 q 272 96 272 46 q 303 175 272 146 q 390 204 335 204 z "},"¿":{"ha":806,"x_min":60,"x_max":760,"o":"m 418 490 q 331 519 363 490 q 299 599 299 549 q 331 678 299 649 q 418 707 363 707 q 505 678 474 707 q 536 599 536 649 q 505 519 536 549 q 418 490 474 490 m 399 -236 q 152 -173 244 -236 q 60 11 60 -110 q 131 195 60 132 q 324 271 203 258 l 332 401 l 503 401 l 511 190 q 321 140 378 176 q 264 38 264 104 q 301 -47 264 -17 q 411 -76 338 -76 q 528 -35 483 -76 q 579 82 572 7 l 760 6 q 650 -170 742 -104 q 399 -236 558 -236 z "},"\"":{"ha":599,"x_min":97,"x_max":526,"o":"m 488 578 l 357 578 l 357 947 l 526 947 l 488 578 m 228 578 l 97 578 l 97 947 l 267 947 l 228 578 z "},"'":{"ha":339,"x_min":97,"x_max":267,"o":"m 228 578 l 97 578 l 97 947 l 267 947 l 228 578 z "},";":{"ha":417,"x_min":75,"x_max":340,"o":"m 213 483 q 124 513 157 483 q 92 596 92 543 q 124 678 92 649 q 213 708 157 708 q 301 678 268 708 q 333 596 333 649 q 301 513 333 543 q 213 483 268 483 m 207 213 q 306 167 271 213 q 340 50 340 122 q 295 -105 340 -35 q 163 -214 250 -175 l 75 -147 q 179 -86 138 -124 q 235 -1 221 -49 l 229 3 q 188 -11 213 -11 q 117 17 147 -11 q 86 96 86 44 q 120 181 86 149 q 207 213 154 213 z "},"/":{"ha":635,"x_min":28,"x_max":607,"o":"m 204 -97 l 28 -97 l 429 999 l 607 999 l 204 -97 z "},"_":{"ha":749,"x_min":0,"x_max":749,"o":"m 749 -264 l 0 -264 l 0 -107 l 749 -107 l 749 -264 z "},"₍":{"ha":340,"x_min":85,"x_max":346,"o":"m 346 342 q 249 201 278 276 q 219 13 219 125 q 248 -175 219 -100 q 346 -317 276 -250 l 268 -383 q 85 13 85 -240 q 268 408 85 265 l 346 342 z "},"₎":{"ha":340,"x_min":-6,"x_max":256,"o":"m 72 408 q 256 13 256 267 q 72 -383 256 -242 l -6 -317 q 93 -175 64 -250 q 122 13 122 -100 q 93 201 122 125 q -6 342 64 276 l 72 408 z "},"{":{"ha":549,"x_min":50,"x_max":506,"o":"m 364 -37 q 397 -113 364 -90 q 506 -136 431 -136 l 494 -265 q 272 -215 339 -265 q 206 -51 206 -164 l 206 172 q 170 283 206 250 q 50 317 135 317 l 50 449 q 170 482 135 449 q 206 593 206 515 l 206 818 q 272 980 206 929 q 494 1031 339 1031 l 506 901 q 397 878 431 901 q 364 803 364 856 l 364 558 q 327 445 364 488 q 217 382 290 403 q 327 320 290 363 q 364 207 364 278 l 364 -37 z "},"}":{"ha":549,"x_min":42,"x_max":497,"o":"m 342 593 q 377 482 342 515 q 497 449 413 449 l 497 317 q 377 283 413 317 q 342 172 342 250 l 342 -51 q 276 -215 342 -164 q 53 -265 210 -265 l 42 -136 q 151 -113 118 -136 q 185 -37 185 -90 l 185 207 q 222 320 185 278 q 332 383 258 363 q 222 445 258 403 q 185 558 185 488 l 185 803 q 151 878 185 856 q 42 901 118 901 l 53 1031 q 275 981 208 1031 q 342 818 342 931 l 342 593 z "},"[":{"ha":521,"x_min":119,"x_max":482,"o":"m 286 858 l 286 -93 l 482 -93 l 482 -233 l 119 -233 l 119 999 l 482 999 l 482 858 l 286 858 z "},"]":{"ha":521,"x_min":39,"x_max":403,"o":"m 403 -233 l 39 -233 l 39 -93 l 235 -93 l 235 858 l 39 858 l 39 999 l 403 999 l 403 -233 z "},"(":{"ha":522,"x_min":90,"x_max":499,"o":"m 499 938 q 320 696 374 824 q 267 383 267 568 q 320 69 267 197 q 499 -172 374 -58 l 404 -265 q 169 13 249 -150 q 90 383 90 176 q 169 753 90 590 q 404 1031 249 915 l 499 938 z "},")":{"ha":522,"x_min":24,"x_max":432,"o":"m 118 1031 q 353 753 274 915 q 432 383 432 590 q 353 13 432 176 q 118 -265 274 -150 l 24 -172 q 202 69 149 -58 q 256 383 256 197 q 202 696 256 568 q 24 938 149 824 l 118 1031 z "},"⁽":{"ha":340,"x_min":85,"x_max":346,"o":"m 346 1067 q 249 926 278 1001 q 219 738 219 850 q 248 550 219 625 q 346 408 276 475 l 268 342 q 85 738 85 485 q 268 1133 85 990 l 346 1067 z "},"⁾":{"ha":340,"x_min":-6,"x_max":256,"o":"m 72 1133 q 256 738 256 992 q 72 342 256 483 l -6 408 q 93 550 64 475 q 122 738 122 625 q 93 926 122 850 q -6 1067 64 1001 l 72 1133 z "},"—":{"ha":1401,"x_min":110,"x_max":1290,"o":"m 1290 290 l 110 290 l 110 447 l 1290 447 l 1290 290 z "},"–":{"ha":946,"x_min":110,"x_max":836,"o":"m 836 290 l 110 290 l 110 447 l 836 447 l 836 290 z "},"-":{"ha":724,"x_min":117,"x_max":607,"o":"m 607 286 l 117 286 l 117 450 l 607 450 l 607 286 z "},"­":{"ha":724,"x_min":117,"x_max":607,"o":"m 607 286 l 117 286 l 117 450 l 607 450 l 607 286 z "},"«":{"ha":767,"x_min":57,"x_max":708,"o":"m 233 368 l 406 96 l 231 96 l 57 368 l 231 640 l 406 640 l 233 368 m 536 368 l 708 96 l 533 96 l 360 368 l 533 640 l 708 640 l 536 368 z "},"»":{"ha":765,"x_min":56,"x_max":708,"o":"m 231 640 l 404 368 l 231 96 l 56 96 l 228 368 l 56 640 l 231 640 m 535 640 l 708 368 l 535 96 l 360 96 l 532 368 l 360 640 l 535 640 z "},"‹":{"ha":463,"x_min":57,"x_max":406,"o":"m 233 368 l 406 96 l 231 96 l 57 368 l 231 640 l 406 640 l 233 368 z "},"›":{"ha":463,"x_min":57,"x_max":406,"o":"m 232 640 l 406 368 l 232 96 l 57 96 l 229 368 l 57 640 l 232 640 z "},"„":{"ha":697,"x_min":60,"x_max":632,"o":"m 192 213 q 290 167 256 213 q 325 50 325 122 q 280 -105 325 -35 q 147 -214 235 -175 l 60 -147 q 163 -86 121 -124 q 218 -1 204 -49 l 213 3 q 172 -11 199 -11 q 101 17 132 -11 q 71 96 71 44 q 104 181 71 150 q 192 213 138 213 m 499 213 q 597 167 563 213 q 632 50 632 122 q 587 -105 632 -35 q 454 -214 542 -175 l 367 -147 q 469 -86 428 -124 q 525 -1 511 -49 l 519 3 q 479 -11 506 -11 q 408 17 439 -11 q 378 96 378 44 q 411 181 378 150 q 499 213 444 213 z "},"“":{"ha":700,"x_min":63,"x_max":639,"o":"m 196 539 q 97 584 132 539 q 63 701 63 629 q 108 856 63 786 q 240 965 153 926 l 328 899 q 225 838 267 876 q 169 753 183 800 l 175 749 q 215 763 189 763 q 286 735 256 763 q 317 656 317 707 q 283 571 317 603 q 196 539 250 539 m 507 539 q 408 584 443 539 q 374 701 374 629 q 419 856 374 786 q 551 965 464 926 l 639 899 q 536 838 578 876 q 481 753 494 800 l 486 749 q 526 763 500 763 q 597 735 567 763 q 628 656 628 707 q 594 571 628 603 q 507 539 561 539 z "},"”":{"ha":696,"x_min":67,"x_max":639,"o":"m 199 964 q 297 919 263 964 q 332 801 332 874 q 287 647 332 717 q 154 538 242 576 l 67 604 q 170 665 128 626 q 226 750 213 703 l 221 754 q 179 740 204 740 q 108 768 139 740 q 78 847 78 796 q 112 932 78 900 q 199 964 146 964 m 506 964 q 604 919 569 964 q 639 801 639 874 q 594 647 639 717 q 461 538 549 576 l 374 604 q 477 665 435 626 q 533 750 519 703 l 528 754 q 486 740 511 740 q 415 768 446 740 q 385 847 385 796 q 419 932 385 900 q 506 964 453 964 z "},"‘":{"ha":389,"x_min":63,"x_max":328,"o":"m 196 539 q 97 584 132 539 q 63 701 63 629 q 108 856 63 786 q 240 965 153 926 l 328 899 q 225 838 267 876 q 169 753 183 800 l 175 749 q 215 763 189 763 q 286 735 256 763 q 317 656 317 707 q 283 571 317 603 q 196 539 250 539 z "},"’":{"ha":389,"x_min":67,"x_max":332,"o":"m 199 964 q 297 919 263 964 q 332 801 332 874 q 287 647 332 717 q 154 538 242 576 l 67 604 q 170 665 128 626 q 226 750 213 703 l 221 754 q 179 740 204 740 q 108 768 139 740 q 78 847 78 796 q 112 932 78 900 q 199 964 146 964 z "},"‚":{"ha":390,"x_min":60,"x_max":325,"o":"m 192 213 q 290 167 256 213 q 325 50 325 122 q 280 -105 325 -35 q 147 -214 235 -175 l 60 -147 q 163 -86 121 -124 q 218 -1 204 -49 l 213 3 q 172 -11 199 -11 q 101 17 132 -11 q 71 96 71 44 q 104 181 71 150 q 192 213 138 213 z "}," ":{"ha":425,"x_min":0,"x_max":0,"o":""},"€":{"ha":974,"x_min":53,"x_max":932,"o":"m 932 239 q 802 52 899 118 q 575 -14 706 -14 q 317 66 419 -14 q 178 293 214 146 l 53 293 l 53 394 l 163 394 q 160 458 160 415 l 160 492 l 53 492 l 53 593 l 172 593 q 307 842 203 753 q 572 931 411 931 q 795 874 701 931 q 922 714 889 817 l 775 646 q 707 753 758 717 q 585 789 656 789 q 436 738 496 789 q 353 593 376 688 l 682 593 l 649 492 l 339 492 q 338 458 338 481 q 340 394 338 436 l 625 394 l 594 293 l 360 293 q 442 170 386 213 q 579 128 497 128 q 706 169 651 128 q 779 288 760 210 l 932 239 z "},"¢":{"ha":794,"x_min":74,"x_max":746,"o":"m 746 197 q 662 53 731 108 q 482 -11 593 -1 l 482 -139 l 371 -139 l 371 -10 q 151 100 228 7 q 74 347 74 193 q 151 595 74 501 q 371 706 229 689 l 371 833 l 482 833 l 482 706 q 658 642 594 696 q 743 504 722 589 l 592 444 q 482 575 569 549 l 482 118 q 600 247 575 142 l 746 197 m 243 346 q 371 121 243 156 l 371 574 q 243 346 243 540 z "},"¤":{"ha":907,"x_min":68,"x_max":840,"o":"m 749 457 q 708 303 749 371 l 840 183 l 726 71 l 604 203 q 454 167 539 167 q 301 204 369 167 l 179 71 l 68 183 l 197 304 q 158 457 158 374 q 199 611 158 542 l 68 731 l 179 843 l 303 711 q 454 747 368 747 q 607 710 536 747 l 726 843 l 840 731 l 710 608 q 749 457 749 542 m 454 310 q 554 351 515 310 q 593 457 593 392 q 554 563 593 522 q 454 604 515 604 q 353 563 393 604 q 314 457 314 522 q 353 351 314 392 q 454 310 393 310 z "},"$":{"ha":874,"x_min":46,"x_max":819,"o":"m 388 1 q 180 60 264 11 q 46 199 96 110 l 158 304 q 245 194 183 238 q 388 139 307 151 l 388 392 q 230 434 294 410 q 122 508 165 458 q 79 642 79 558 q 161 826 79 751 q 388 914 243 900 l 388 1044 l 507 1044 l 507 914 q 691 863 619 906 q 819 739 763 819 l 713 629 q 626 733 674 699 q 507 776 578 768 l 507 518 q 665 474 600 499 q 772 397 729 449 q 815 261 815 346 q 731 83 815 151 q 507 3 646 14 l 507 -128 l 388 -128 l 388 1 m 388 775 q 288 734 322 765 q 254 654 254 703 q 288 585 254 610 q 388 543 322 560 l 388 775 m 507 139 q 642 251 642 154 q 607 323 642 297 q 507 365 572 349 l 507 139 z "},"ƒ":{"ha":703,"x_min":-31,"x_max":701,"o":"m 589 874 q 478 761 497 874 l 446 571 l 640 571 l 640 431 l 424 431 l 360 53 q 277 -119 340 -60 q 111 -178 214 -178 q 33 -170 63 -178 q -31 -142 3 -162 l -6 -11 q 81 -37 31 -37 q 155 -9 126 -37 q 192 74 183 19 l 251 431 l 61 431 l 61 571 l 275 571 l 310 782 q 392 955 329 896 q 560 1014 456 1014 q 637 1006 607 1014 q 701 978 667 999 l 675 847 q 589 874 639 874 z "},"£":{"ha":867,"x_min":56,"x_max":824,"o":"m 821 232 q 824 194 824 207 q 773 44 824 101 q 632 -14 722 -14 q 522 8 571 -14 q 414 68 472 29 q 218 -14 336 -14 q 101 20 146 -14 q 56 111 56 54 q 103 203 56 168 q 226 239 151 239 q 354 218 296 239 l 354 232 q 315 367 354 300 l 90 367 l 90 488 l 228 488 q 178 576 192 538 q 164 656 164 614 q 202 794 164 732 q 313 894 240 857 q 481 931 385 931 q 790 697 735 931 l 633 622 q 576 746 613 707 q 475 785 540 785 q 371 751 410 785 q 332 660 332 717 q 347 594 332 628 q 400 504 361 561 l 413 488 l 679 488 l 679 367 l 475 367 q 489 269 489 321 q 469 160 489 214 q 534 130 504 140 q 599 119 564 119 q 676 149 651 119 q 699 243 700 179 l 821 232 m 226 69 q 329 122 296 69 q 226 151 274 151 q 182 141 197 151 q 167 113 167 131 q 183 81 167 92 q 226 69 200 69 z "},"₺":{"ha":956,"x_min":65,"x_max":900,"o":"m 900 403 q 798 103 894 206 q 518 0 701 0 l 222 0 l 222 364 l 65 319 l 65 403 l 222 447 l 222 564 l 65 519 l 65 604 l 222 649 l 222 917 l 411 917 l 411 701 l 672 775 l 672 692 l 411 617 l 411 501 l 672 575 l 672 490 l 411 417 l 411 149 l 497 149 q 660 210 606 149 q 715 403 715 272 l 900 403 z "},"₽":{"ha":933,"x_min":57,"x_max":881,"o":"m 367 371 l 367 279 l 617 279 l 617 150 l 367 150 l 367 0 l 179 0 l 179 150 l 57 150 l 57 279 l 179 279 l 179 371 l 57 371 l 57 508 l 179 508 l 179 917 l 543 917 q 793 846 706 917 q 881 643 881 775 q 793 442 881 513 q 543 371 706 371 l 367 371 m 367 508 l 514 508 q 644 540 603 508 q 686 638 686 571 q 644 735 686 704 q 514 767 603 767 l 367 767 l 367 508 z "},"¥":{"ha":913,"x_min":35,"x_max":878,"o":"m 643 419 l 814 419 l 814 336 l 546 336 l 546 240 l 814 240 l 814 161 l 546 161 l 546 0 l 367 0 l 367 161 l 100 161 l 100 240 l 367 240 l 367 336 l 100 336 l 100 419 l 269 419 l 344 414 l 35 917 l 236 917 l 392 611 l 456 471 l 458 471 l 521 613 l 676 917 l 878 917 l 568 414 l 643 419 z "},"≈":{"ha":839,"x_min":81,"x_max":758,"o":"m 264 721 q 347 708 307 721 q 439 672 386 696 q 513 641 481 651 q 575 631 544 631 q 669 647 626 631 q 758 704 711 663 l 758 557 q 579 483 679 483 q 503 495 539 483 q 414 531 467 507 q 330 563 361 553 q 264 574 299 574 q 164 556 204 574 q 81 499 124 539 l 81 647 q 167 704 128 688 q 264 721 207 721 m 264 413 q 347 400 307 413 q 439 364 386 388 q 514 334 483 344 q 575 324 544 324 q 670 339 628 324 q 758 397 713 354 l 758 250 q 579 176 679 176 q 503 188 539 176 q 414 224 467 200 q 330 256 361 246 q 264 267 299 267 q 164 249 204 267 q 81 192 124 232 l 81 340 q 166 397 126 381 q 264 413 206 413 z "},"~":{"ha":800,"x_min":60,"x_max":740,"o":"m 740 569 q 681 385 733 449 q 533 322 629 322 q 451 337 485 322 q 376 379 417 351 q 328 408 347 399 q 289 417 310 417 q 215 326 228 417 l 60 326 q 268 574 75 574 q 349 559 315 574 q 424 517 383 544 q 472 488 451 497 q 513 479 492 479 q 585 569 572 479 l 740 569 z "},"÷":{"ha":839,"x_min":74,"x_max":765,"o":"m 421 843 q 502 815 472 843 q 532 736 532 786 q 502 659 532 688 q 421 631 472 631 q 340 659 369 631 q 310 736 310 688 q 340 815 310 786 q 421 843 369 843 m 765 375 l 74 375 l 74 519 l 765 519 l 765 375 m 421 265 q 502 237 472 265 q 532 160 532 208 q 502 81 532 110 q 421 53 472 53 q 340 81 369 53 q 310 160 310 110 q 340 237 310 208 q 421 265 369 265 z "},"=":{"ha":839,"x_min":89,"x_max":750,"o":"m 750 508 l 89 508 l 89 650 l 750 650 l 750 508 m 750 217 l 89 217 l 89 357 l 750 357 l 750 217 z "},"₌":{"ha":551,"x_min":75,"x_max":476,"o":"m 75 167 l 476 167 l 476 61 l 75 61 l 75 167 m 75 -33 l 476 -33 l 476 -139 l 75 -139 l 75 -33 z "},"⁼":{"ha":551,"x_min":75,"x_max":476,"o":"m 75 892 l 476 892 l 476 786 l 75 786 l 75 892 m 75 692 l 476 692 l 476 586 l 75 586 l 75 692 z "},">":{"ha":839,"x_min":74,"x_max":747,"o":"m 747 501 l 747 325 l 74 19 l 74 203 l 614 414 l 74 624 l 74 808 l 747 501 z "},"≥":{"ha":839,"x_min":75,"x_max":750,"o":"m 750 661 l 750 443 l 75 207 l 75 375 l 647 553 l 75 729 l 75 899 l 750 661 m 75 146 l 750 146 l 750 0 l 75 0 l 75 146 z "},"∞":{"ha":1279,"x_min":71,"x_max":1208,"o":"m 957 717 q 1137 642 1065 717 q 1208 414 1208 567 q 1135 186 1208 261 q 943 111 1063 111 q 790 153 861 111 q 621 299 719 196 q 499 176 544 215 q 415 124 453 138 q 321 111 376 111 q 142 187 214 111 q 71 414 71 263 q 142 641 71 565 q 322 717 214 717 q 483 677 407 717 q 660 532 560 638 q 787 655 736 615 q 874 706 838 694 q 957 717 910 717 m 953 303 q 1032 342 1003 303 q 1061 450 1061 381 q 1033 557 1061 518 q 958 596 1006 596 q 906 585 929 596 q 844 542 882 575 q 743 436 807 508 q 858 333 810 364 q 953 303 906 303 m 324 233 q 376 244 353 233 q 434 288 399 254 q 535 393 469 321 q 419 497 463 469 q 329 525 376 525 q 249 488 281 525 q 218 379 218 450 q 248 272 218 310 q 324 233 278 233 z "},"∫":{"ha":654,"x_min":19,"x_max":635,"o":"m 486 1053 q 574 1043 540 1053 q 635 1014 607 1033 l 617 883 q 524 913 578 913 q 446 886 475 913 q 417 804 417 860 l 417 57 q 348 -117 417 -56 q 169 -178 279 -178 q 82 -168 115 -178 q 19 -139 49 -158 l 38 -8 q 131 -37 79 -37 q 208 -11 179 -37 q 238 71 238 15 l 238 818 q 307 992 238 931 q 486 1053 376 1053 z "},"<":{"ha":839,"x_min":92,"x_max":765,"o":"m 765 624 l 225 414 l 765 203 l 765 19 l 92 325 l 92 501 l 765 808 l 765 624 z "},"≤":{"ha":839,"x_min":89,"x_max":764,"o":"m 764 729 l 192 553 l 764 375 l 764 207 l 89 443 l 89 661 l 764 899 l 764 729 m 89 146 l 764 146 l 764 0 l 89 0 l 89 146 z "},"¬":{"ha":839,"x_min":82,"x_max":757,"o":"m 757 519 l 757 153 l 596 153 l 596 375 l 82 375 l 82 519 l 757 519 z "},"−":{"ha":839,"x_min":82,"x_max":757,"o":"m 757 371 l 82 371 l 82 522 l 757 522 l 757 371 z "},"₋":{"ha":485,"x_min":42,"x_max":443,"o":"m 42 64 l 443 64 l 443 -42 l 42 -42 l 42 64 z "},"⁻":{"ha":485,"x_min":42,"x_max":443,"o":"m 42 789 l 443 789 l 443 683 l 42 683 l 42 789 z "},"×":{"ha":839,"x_min":89,"x_max":749,"o":"m 526 449 l 749 226 l 642 118 l 419 340 l 197 118 l 89 226 l 311 449 l 89 671 l 197 779 l 419 557 l 642 779 l 749 671 l 526 449 z "},"≠":{"ha":839,"x_min":82,"x_max":757,"o":"m 526 518 l 446 347 l 757 347 l 757 211 l 382 211 l 310 57 l 175 57 l 247 211 l 82 211 l 82 347 l 311 347 l 392 518 l 82 518 l 82 654 l 456 654 l 531 814 l 665 814 l 590 654 l 757 654 l 757 518 l 526 518 z "},"∂":{"ha":896,"x_min":89,"x_max":808,"o":"m 418 931 q 710 811 613 931 q 808 468 808 692 q 415 -14 808 -14 q 249 23 324 -14 q 132 128 175 60 q 89 290 89 197 q 131 449 89 381 q 246 556 174 518 q 406 593 318 593 q 540 562 482 593 q 632 471 597 531 q 566 703 626 632 q 396 775 506 775 q 292 757 336 775 q 204 696 247 739 l 119 821 q 257 904 188 878 q 418 931 326 931 m 439 138 q 622 317 588 138 q 556 414 603 376 q 436 451 510 451 q 324 410 364 451 q 283 294 283 368 q 323 179 283 221 q 439 138 363 138 z "},"%":{"ha":1261,"x_min":47,"x_max":1214,"o":"m 292 931 q 469 860 403 931 q 536 672 536 789 q 469 485 536 556 q 292 414 403 414 q 115 485 182 414 q 47 672 47 556 q 115 860 47 789 q 292 931 182 931 m 864 917 l 1017 917 l 399 0 l 246 0 l 864 917 m 292 799 q 219 765 244 799 q 194 672 194 732 q 219 580 194 613 q 292 547 244 547 q 364 580 339 547 q 389 672 389 613 q 364 765 389 732 q 292 799 339 799 m 969 503 q 1147 432 1079 503 q 1214 244 1214 361 q 1147 57 1214 128 q 969 -14 1079 -14 q 792 57 858 -14 q 725 244 725 128 q 792 432 725 361 q 969 503 858 503 m 969 369 q 897 337 922 369 q 872 244 872 304 q 897 151 872 185 q 969 118 922 118 q 1042 151 1017 118 q 1067 244 1067 185 q 1042 337 1067 304 q 969 369 1017 369 z "},"‰":{"ha":1826,"x_min":47,"x_max":1779,"o":"m 292 931 q 469 860 403 931 q 536 672 536 789 q 469 485 536 556 q 292 414 403 414 q 115 485 182 414 q 47 672 47 556 q 115 860 47 789 q 292 931 182 931 m 864 917 l 1017 917 l 399 0 l 246 0 l 864 917 m 292 799 q 219 765 244 799 q 194 672 194 732 q 219 580 194 613 q 292 547 244 547 q 364 580 339 547 q 389 672 389 613 q 364 765 389 732 q 292 799 339 799 m 969 503 q 1147 432 1079 503 q 1214 244 1214 361 q 1147 57 1214 128 q 969 -14 1079 -14 q 792 57 858 -14 q 725 244 725 128 q 792 432 725 361 q 969 503 858 503 m 1535 503 q 1712 432 1644 503 q 1779 244 1779 361 q 1712 57 1779 128 q 1535 -14 1644 -14 q 1357 57 1424 -14 q 1290 244 1290 128 q 1357 432 1290 361 q 1535 503 1424 503 m 969 369 q 897 337 922 369 q 872 244 872 304 q 897 151 872 185 q 969 118 922 118 q 1042 151 1017 118 q 1067 244 1067 185 q 1042 337 1067 304 q 969 369 1017 369 m 1535 369 q 1463 337 1488 369 q 1438 244 1438 304 q 1463 151 1438 185 q 1535 118 1488 118 q 1607 151 1582 118 q 1632 244 1632 185 q 1607 337 1632 304 q 1535 369 1582 369 z "},"+":{"ha":839,"x_min":75,"x_max":764,"o":"m 764 375 l 499 375 l 499 88 l 342 88 l 342 375 l 75 375 l 75 519 l 342 519 l 342 806 l 499 806 l 499 519 l 764 519 l 764 375 z "},"₊":{"ha":485,"x_min":35,"x_max":451,"o":"m 451 -37 l 297 -37 l 297 -197 l 189 -197 l 189 -37 l 35 -37 l 35 63 l 189 63 l 189 221 l 297 221 l 297 63 l 451 63 l 451 -37 z "},"±":{"ha":839,"x_min":75,"x_max":764,"o":"m 764 640 l 764 499 l 493 499 l 493 242 l 347 242 l 347 499 l 75 499 l 75 640 l 347 640 l 347 900 l 493 900 l 493 640 l 764 640 m 75 139 l 764 139 l 764 0 l 75 0 l 75 139 z "},"⁺":{"ha":485,"x_min":35,"x_max":451,"o":"m 451 688 l 297 688 l 297 528 l 189 528 l 189 688 l 35 688 l 35 788 l 189 788 l 189 946 l 297 946 l 297 788 l 451 788 l 451 688 z "},"∏":{"ha":969,"x_min":104,"x_max":865,"o":"m 865 -178 l 685 -178 l 685 763 l 286 763 l 286 -178 l 104 -178 l 104 917 l 865 917 l 865 -178 z "},"√":{"ha":947,"x_min":24,"x_max":983,"o":"m 983 1136 l 539 0 l 350 0 l 165 461 l 24 461 l 24 613 l 267 613 l 399 283 l 446 136 l 497 293 l 817 1136 l 983 1136 z "},"∑":{"ha":917,"x_min":79,"x_max":833,"o":"m 833 767 l 293 767 l 685 388 l 685 354 l 292 -33 l 833 -33 l 833 -178 l 79 -178 l 79 -33 l 482 371 l 79 767 l 79 917 l 833 917 l 833 767 z "},"µ":{"ha":854,"x_min":96,"x_max":760,"o":"m 760 694 l 760 0 l 594 0 l 586 124 q 358 -14 524 -14 q 286 -3 322 -14 l 286 -292 l 96 -292 l 96 694 l 286 694 l 286 283 q 316 169 286 203 q 407 136 346 136 q 519 175 476 136 q 569 285 561 214 l 569 694 l 760 694 z "},"Ω":{"ha":1078,"x_min":88,"x_max":990,"o":"m 990 136 l 990 0 l 603 0 l 603 136 q 739 236 692 156 q 786 456 786 317 q 721 690 786 607 q 539 774 656 774 q 358 691 422 774 q 293 456 293 608 q 340 236 293 317 q 475 136 386 156 l 475 0 l 88 0 l 88 136 l 293 136 q 149 273 200 186 q 99 478 99 360 q 152 719 99 617 q 305 876 206 821 q 539 931 404 931 q 773 876 674 931 q 926 719 872 821 q 979 478 979 617 q 928 273 979 360 q 785 136 878 186 l 990 136 z "},"∆":{"ha":1001,"x_min":56,"x_max":946,"o":"m 946 126 l 946 0 l 56 0 l 56 126 l 400 917 l 601 917 l 946 126 m 213 140 l 788 140 l 500 799 l 213 140 z "},"∕":{"ha":358,"x_min":-225,"x_max":582,"o":"m 438 917 l 582 917 l -79 0 l -225 0 l 438 917 z "},"∙":{"ha":356,"x_min":58,"x_max":300,"o":"m 179 588 q 267 557 235 588 q 300 475 300 526 q 267 393 300 424 q 179 363 235 363 q 91 392 124 363 q 58 475 58 422 q 91 558 58 528 q 179 588 124 588 z "},"↑":{"ha":1042,"x_min":46,"x_max":993,"o":"m 524 925 q 719 710 608 807 q 993 515 831 614 l 889 371 q 597 643 704 493 q 615 388 615 519 l 615 0 l 425 0 l 425 388 q 442 643 425 529 q 150 371 335 493 l 46 515 q 319 710 210 613 q 515 925 429 807 l 524 925 z "},"↗":{"ha":1042,"x_min":149,"x_max":883,"o":"m 883 835 q 858 476 858 649 q 883 165 858 304 l 713 156 q 704 303 704 231 q 733 583 704 449 q 547 381 654 485 l 272 106 l 149 228 l 424 504 q 628 690 522 606 q 340 661 490 661 q 199 668 278 661 l 208 840 q 524 815 349 815 q 878 840 693 815 l 883 835 z "},"→":{"ha":1042,"x_min":74,"x_max":999,"o":"m 589 933 q 784 660 688 771 q 999 464 881 549 l 999 456 q 783 260 881 369 q 589 -14 686 150 l 444 90 q 717 382 567 275 q 461 365 586 365 l 74 365 l 74 556 l 461 556 q 717 538 593 556 q 444 829 567 644 l 589 933 z "},"↘":{"ha":1042,"x_min":140,"x_max":875,"o":"m 875 799 q 850 483 850 658 q 875 129 850 314 l 868 124 q 510 149 682 149 q 200 124 339 149 l 190 296 q 332 303 269 303 q 619 274 481 303 q 414 460 535 339 l 140 735 l 263 858 l 538 583 q 725 379 646 478 q 696 667 696 518 q 703 808 696 729 l 875 799 z "},"↓":{"ha":1042,"x_min":49,"x_max":996,"o":"m 996 401 q 722 206 833 303 q 526 -8 611 110 l 518 -8 q 322 207 432 110 q 49 401 213 304 l 153 546 q 444 274 338 424 q 428 529 428 404 l 428 917 l 618 917 l 618 529 q 600 275 618 397 q 892 546 708 425 l 996 401 z "},"↙":{"ha":1042,"x_min":167,"x_max":901,"o":"m 422 274 q 710 303 561 303 q 851 296 772 303 l 842 124 q 532 149 703 149 q 174 124 360 149 l 167 129 q 192 483 192 314 q 167 799 192 658 l 339 808 q 346 667 346 729 q 317 379 346 518 q 504 583 396 478 l 779 858 l 901 735 l 628 460 q 422 274 507 339 z "},"←":{"ha":1042,"x_min":43,"x_max":968,"o":"m 581 365 q 325 382 456 365 q 597 90 475 275 l 453 -14 q 258 260 356 150 q 43 456 161 369 l 43 464 q 258 660 161 549 q 453 933 354 771 l 597 829 q 325 538 475 644 q 581 556 449 556 l 968 556 l 968 365 l 581 365 z "},"↖":{"ha":1042,"x_min":158,"x_max":893,"o":"m 893 228 l 769 106 l 494 381 q 308 583 388 485 q 338 297 338 446 q 331 156 338 235 l 158 165 q 183 476 183 304 q 158 835 183 649 l 164 840 q 518 815 349 815 q 833 840 693 815 l 843 668 q 701 661 764 661 q 414 690 551 661 q 618 504 499 624 l 893 228 z "},"↔":{"ha":1507,"x_min":43,"x_max":1464,"o":"m 1054 958 q 1249 685 1151 796 q 1464 489 1346 575 l 1464 481 q 1249 285 1346 394 q 1054 13 1151 175 l 904 107 q 1181 407 1029 294 q 960 390 1067 390 l 546 390 q 326 407 439 390 q 603 107 482 292 l 453 13 q 258 285 356 175 q 43 481 161 394 l 43 489 q 258 685 161 575 q 453 958 356 796 l 603 864 q 328 564 478 675 q 546 581 440 581 l 960 581 q 1179 564 1067 581 q 904 864 1029 675 l 1054 958 z "},"↕":{"ha":1042,"x_min":47,"x_max":993,"o":"m 599 32 q 899 308 710 185 l 993 158 q 720 -37 831 60 q 524 -251 610 -133 l 515 -251 q 321 -37 431 -133 q 47 158 211 60 l 142 308 q 440 32 333 182 q 425 251 425 136 l 425 665 q 440 885 425 781 q 142 608 333 735 l 47 758 q 321 953 211 857 q 515 1168 431 1050 l 524 1168 q 720 953 610 1050 q 993 758 831 857 l 899 608 q 599 885 710 732 q 615 665 615 771 l 615 251 q 599 32 615 146 z "},"●":{"ha":833,"x_min":56,"x_max":778,"o":"m 417 -14 q 233 33 315 -14 q 103 163 150 81 q 56 347 56 246 q 103 531 56 449 q 233 661 150 614 q 417 708 315 708 q 601 661 518 708 q 731 531 683 614 q 778 347 778 449 q 731 163 778 246 q 601 33 683 81 q 417 -14 518 -14 z "},"○":{"ha":833,"x_min":49,"x_max":785,"o":"m 417 -14 q 229 33 314 -14 q 97 163 144 81 q 49 347 49 246 q 97 531 49 449 q 229 661 144 614 q 417 708 314 708 q 604 661 519 708 q 737 531 689 614 q 785 347 785 449 q 737 163 785 246 q 604 33 689 81 q 417 -14 519 -14 m 417 125 q 528 154 478 125 q 606 234 578 183 q 635 347 635 285 q 606 460 635 410 q 528 540 578 511 q 417 569 478 569 q 306 540 356 569 q 227 460 256 511 q 199 347 199 410 q 227 234 199 285 q 306 154 256 183 q 417 125 356 125 z "},"◆":{"ha":833,"x_min":49,"x_max":785,"o":"m 49 360 l 417 728 l 785 360 l 417 -8 l 49 360 z "},"◇":{"ha":833,"x_min":49,"x_max":785,"o":"m 49 360 l 417 728 l 785 360 l 417 -8 l 49 360 m 604 360 l 417 547 l 229 360 l 417 172 l 604 360 z "},"◊":{"ha":874,"x_min":65,"x_max":808,"o":"m 808 458 l 538 0 l 336 0 l 65 458 l 336 917 l 538 917 l 808 458 m 622 458 l 438 806 l 251 458 l 438 111 l 622 458 z "},"▪":{"ha":833,"x_min":69,"x_max":764,"o":"m 764 694 l 764 0 l 69 0 l 69 694 l 764 694 z "},"▫":{"ha":833,"x_min":64,"x_max":769,"o":"m 64 694 l 769 694 l 769 0 l 64 0 l 64 694 m 622 132 l 622 563 l 211 563 l 211 132 l 622 132 z "},"❛":{"ha":988,"x_min":86,"x_max":903,"o":"m 869 799 q 473 744 608 799 q 272 579 338 689 l 282 572 q 386 628 332 610 q 531 646 440 646 q 801 561 699 646 q 903 321 903 476 q 799 72 903 158 q 511 -14 696 -14 q 189 92 292 -14 q 86 388 86 199 q 256 782 86 640 q 799 924 426 924 l 869 799 z "},"❜":{"ha":988,"x_min":86,"x_max":901,"o":"m 118 -62 q 515 -8 379 -62 q 715 157 650 47 l 706 164 q 601 108 656 126 q 457 90 547 90 q 188 175 289 90 q 86 415 86 260 q 189 664 86 578 q 476 750 292 750 q 799 644 696 750 q 901 349 901 538 q 731 -46 901 96 q 189 -187 561 -187 l 118 -62 z "},"❝":{"ha":1726,"x_min":86,"x_max":1640,"o":"m 1268 646 q 1538 561 1436 646 q 1640 321 1640 476 q 1538 72 1640 158 q 1250 -14 1435 -14 q 872 168 968 -14 q 738 33 831 79 q 511 -14 646 -14 q 189 92 292 -14 q 86 388 86 199 q 256 782 86 640 q 799 924 426 924 l 869 799 q 473 744 608 799 q 272 579 338 689 l 282 572 q 386 628 332 610 q 531 646 440 646 q 710 614 631 646 q 838 522 790 582 q 1048 819 878 714 q 1538 924 1218 924 l 1608 799 q 1211 744 1346 799 q 1011 579 1076 689 l 1021 572 q 1124 628 1069 610 q 1268 646 1178 646 z "},"❞":{"ha":1726,"x_min":86,"x_max":1640,"o":"m 1215 750 q 1538 644 1435 750 q 1640 349 1640 538 q 1470 -46 1640 96 q 926 -187 1300 -187 l 857 -62 q 1253 -8 1118 -62 q 1453 157 1389 47 l 1444 164 q 1341 108 1396 126 q 1196 90 1286 90 q 1016 122 1096 90 q 888 214 936 154 q 677 -83 847 22 q 189 -187 507 -187 l 118 -62 q 515 -8 381 -62 q 715 157 650 47 l 706 164 q 603 108 657 126 q 458 90 549 90 q 188 175 290 90 q 86 415 86 260 q 189 664 86 578 q 476 750 292 750 q 854 568 758 750 q 989 703 896 657 q 1215 750 1082 750 z "},"❡":{"ha":975,"x_min":76,"x_max":886,"o":"m 886 118 q 779 -179 886 -60 q 431 -299 672 -299 q 193 -234 279 -299 q 107 -60 107 -169 q 115 10 107 -26 l 229 38 q 222 -26 222 8 q 260 -134 222 -96 q 358 -172 299 -172 q 453 -128 424 -172 q 482 -4 482 -85 l 482 281 l 422 281 q 247 319 326 281 q 122 428 168 357 q 76 596 76 500 q 122 763 76 690 q 251 876 167 836 q 451 917 336 917 l 886 917 l 886 118 m 625 785 l 625 0 q 604 -112 625 -64 q 547 -181 583 -160 l 551 -186 q 692 -85 647 -160 q 736 96 736 -11 l 736 785 l 625 785 z "},"|":{"ha":406,"x_min":119,"x_max":286,"o":"m 286 -233 l 119 -233 l 119 999 l 286 999 l 286 -233 z "},"¦":{"ha":369,"x_min":101,"x_max":268,"o":"m 268 479 l 101 479 l 101 999 l 268 999 l 268 479 m 268 -233 l 101 -233 l 101 286 l 268 286 l 268 -233 z "},"@":{"ha":1333,"x_min":76,"x_max":1253,"o":"m 692 917 q 996 848 869 917 q 1188 653 1122 779 q 1253 361 1253 528 q 1216 162 1253 244 q 1116 38 1179 79 q 975 -3 1053 -3 q 859 31 904 -3 q 793 119 814 64 q 568 3 718 3 q 403 76 467 3 q 339 271 339 150 q 383 476 339 390 q 499 605 426 561 q 658 649 572 649 q 776 616 733 649 q 835 536 819 583 l 863 636 l 996 636 l 938 226 q 935 188 935 199 q 953 123 935 144 q 1014 101 972 101 q 1115 168 1078 101 q 1153 361 1153 235 q 1032 699 1153 578 q 692 821 911 821 q 425 759 539 821 q 249 582 311 697 q 186 310 186 467 q 248 55 186 163 q 415 -109 310 -53 q 649 -165 521 -165 q 819 -144 756 -165 q 936 -83 883 -122 l 992 -158 q 844 -235 919 -208 q 646 -261 769 -261 q 350 -192 479 -261 q 149 7 221 -122 q 76 310 76 136 q 154 626 76 489 q 372 840 232 764 q 692 917 511 917 m 681 521 q 553 460 601 521 q 504 292 504 399 q 536 176 504 217 q 626 135 568 135 q 728 171 685 135 q 781 275 772 207 l 794 371 q 797 404 797 393 q 769 490 797 458 q 681 521 740 521 z "},"&":{"ha":886,"x_min":47,"x_max":885,"o":"m 861 -14 q 740 4 790 -14 q 626 79 690 22 q 508 10 576 35 q 358 -14 440 -14 q 133 53 218 -14 q 47 235 47 121 q 94 379 47 313 q 247 490 140 446 q 168 607 189 560 q 147 708 147 654 q 176 816 147 765 q 263 899 206 867 q 403 931 321 931 q 588 875 519 931 q 656 724 656 819 q 611 581 656 643 q 461 471 567 519 q 539 382 518 407 l 574 343 q 639 268 622 286 q 679 479 685 358 l 811 472 q 791 315 814 389 q 722 183 768 242 q 791 135 760 149 q 860 121 822 121 q 885 122 876 121 l 861 -14 m 406 797 q 338 772 363 797 q 314 704 314 746 q 329 642 314 672 q 393 553 344 611 q 479 631 458 594 q 500 715 500 668 q 475 776 500 756 q 406 797 450 797 m 213 244 q 258 153 213 189 q 371 118 303 118 q 540 163 464 118 q 439 274 489 217 l 413 303 q 324 401 351 369 q 235 323 258 357 q 213 244 213 289 z "},"¶":{"ha":975,"x_min":51,"x_max":871,"o":"m 871 -139 l 714 -139 l 714 768 l 553 768 l 553 -139 l 394 -139 l 394 326 q 141 404 231 328 q 51 621 51 481 q 146 840 51 764 q 424 917 240 917 l 871 917 l 871 -139 z "},"©":{"ha":1097,"x_min":71,"x_max":1025,"o":"m 549 931 q 799 872 692 931 q 966 707 907 814 q 1025 458 1025 600 q 966 210 1025 317 q 799 44 907 103 q 549 -14 692 -14 q 297 44 404 -14 q 130 210 189 103 q 71 458 71 317 q 130 707 71 600 q 297 872 189 814 q 549 931 404 931 m 549 824 q 357 778 439 824 q 231 651 275 733 q 186 458 186 568 q 231 266 186 349 q 357 138 275 183 q 549 93 439 93 q 739 138 657 93 q 866 266 821 183 q 911 458 911 349 q 866 651 911 568 q 739 778 821 733 q 549 824 657 824 m 549 719 q 786 574 732 719 l 672 517 q 630 569 657 553 q 557 586 603 586 q 469 552 500 586 q 438 457 438 518 q 469 360 438 394 q 558 326 501 326 q 635 344 606 326 q 679 400 664 361 l 788 350 q 701 232 757 269 q 549 194 644 194 q 366 265 433 194 q 299 457 299 336 q 366 649 299 578 q 549 719 433 719 z "},"®":{"ha":1097,"x_min":71,"x_max":1025,"o":"m 549 931 q 799 872 692 931 q 966 707 907 814 q 1025 458 1025 600 q 966 210 1025 317 q 799 44 907 103 q 549 -14 692 -14 q 297 44 404 -14 q 130 210 189 103 q 71 458 71 317 q 130 707 71 600 q 297 872 189 814 q 549 931 404 931 m 549 93 q 739 138 657 93 q 866 266 821 183 q 911 458 911 349 q 866 651 911 568 q 739 778 821 733 q 549 824 657 824 q 357 778 439 824 q 231 651 275 733 q 186 458 186 568 q 231 266 186 349 q 357 138 275 183 q 549 93 439 93 m 775 549 q 745 452 775 492 q 660 396 715 413 l 788 206 l 642 206 l 539 383 l 481 383 l 481 206 l 357 206 l 357 715 l 589 715 q 723 669 671 715 q 775 549 775 624 m 481 471 l 567 471 q 650 543 650 471 q 567 615 650 615 l 481 615 l 481 471 z "},"§":{"ha":853,"x_min":38,"x_max":818,"o":"m 818 382 q 707 185 818 260 q 735 74 735 142 q 651 -91 735 -29 q 425 -153 568 -153 q 238 -119 311 -153 q 111 -17 164 -85 l 218 79 q 299 4 251 28 q 424 -19 347 -19 q 542 0 501 -19 q 583 57 583 19 q 538 126 583 101 q 374 164 492 150 q 115 237 193 183 q 38 389 38 290 q 149 585 38 513 q 121 697 121 631 q 159 818 121 765 q 268 901 197 871 q 436 931 339 931 q 623 896 553 931 q 744 794 693 861 l 640 699 q 557 774 603 750 q 436 797 511 797 q 315 775 357 797 q 272 714 272 753 q 318 644 272 668 q 482 607 364 621 q 740 534 663 588 q 818 382 818 481 m 185 414 q 230 349 185 371 q 390 314 275 326 q 597 269 522 299 q 671 357 671 303 q 626 422 671 400 q 465 457 581 444 q 258 501 338 469 q 185 414 185 468 z "},"™":{"ha":1156,"x_min":46,"x_max":1072,"o":"m 451 824 l 311 824 l 311 458 l 188 458 l 188 824 l 46 824 l 46 917 l 451 917 l 451 824 m 1072 917 l 1072 458 l 950 458 l 950 653 l 958 788 l 956 788 l 935 713 l 846 458 l 750 458 l 660 713 l 638 788 l 636 788 l 643 653 l 643 458 l 521 458 l 521 917 l 692 917 l 769 693 l 796 604 l 800 604 l 825 693 l 904 917 l 1072 917 z "},"°":{"ha":669,"x_min":71,"x_max":600,"o":"m 335 435 q 144 503 217 435 q 71 683 71 572 q 144 863 71 794 q 335 931 217 931 q 527 863 454 931 q 600 683 600 794 q 527 503 600 572 q 335 435 454 435 m 335 564 q 422 597 388 564 q 456 683 456 631 q 422 769 456 736 q 335 803 388 803 q 249 769 283 803 q 215 683 215 736 q 249 598 215 632 q 335 564 283 564 z "},"℮":{"ha":1092,"x_min":79,"x_max":1019,"o":"m 551 931 q 897 798 775 931 q 1018 414 1019 665 l 274 414 l 274 190 q 404 103 326 133 q 578 74 482 74 q 805 128 706 74 q 978 303 904 182 l 978 182 q 817 35 919 85 q 579 -14 714 -14 q 311 44 424 -14 q 139 209 199 103 q 79 458 79 315 q 138 707 79 600 q 303 872 196 814 q 551 931 410 931 m 551 843 q 274 728 371 843 l 274 504 l 828 504 l 828 732 q 551 843 729 843 z "},"ℓ":{"ha":599,"x_min":57,"x_max":535,"o":"m 415 118 q 478 122 453 118 q 535 136 504 126 l 525 8 q 382 -14 467 -14 q 207 35 261 -14 q 153 193 153 83 l 153 265 q 57 239 111 250 l 57 346 q 153 371 113 357 l 153 711 q 199 874 153 818 q 344 931 244 931 q 485 881 444 931 q 526 735 526 831 q 473 530 526 629 q 324 357 419 431 l 324 215 q 346 144 324 171 q 415 118 368 118 m 375 824 q 335 801 347 824 q 324 731 324 778 l 324 479 q 399 599 374 532 q 424 742 424 667 q 413 805 424 786 q 375 824 401 824 z "},"^":{"ha":824,"x_min":35,"x_max":789,"o":"m 615 493 l 413 879 l 208 493 l 35 493 l 329 1008 l 494 1008 l 789 493 l 615 493 z "},"†":{"ha":785,"x_min":50,"x_max":735,"o":"m 735 486 l 482 486 l 482 -139 l 303 -139 l 303 486 l 50 486 l 50 636 l 303 636 l 303 917 l 482 917 l 482 636 l 735 636 l 735 486 z "},"‡":{"ha":785,"x_min":50,"x_max":735,"o":"m 482 486 l 482 292 l 735 292 l 735 142 l 482 142 l 482 -139 l 303 -139 l 303 142 l 50 142 l 50 292 l 303 292 l 303 486 l 50 486 l 50 636 l 303 636 l 303 917 l 482 917 l 482 636 l 735 636 l 735 486 l 482 486 z "},"":{"ha":1569,"x_min":32,"x_max":1524,"o":"m 1514 418 l 1439 390 l 1504 357 l 1431 329 l 1489 289 l 1404 275 l 1457 228 l 1365 224 l 1414 179 l 1329 174 q 1290 153 1310 161 l 1290 40 q 1250 0 1290 0 l 1186 0 q 1146 32 1146 0 q 1186 67 1146 67 l 1201 67 l 1201 121 q 1110 107 1163 111 l 1110 40 q 1069 0 1110 0 l 1006 0 q 965 32 965 0 q 1006 67 965 67 l 1021 67 l 1021 104 l 707 104 l 707 40 q 667 0 707 0 l 603 0 q 561 32 561 0 q 572 58 561 49 q 603 67 583 67 l 619 67 l 619 104 l 497 104 l 497 40 q 456 0 497 0 l 394 0 q 351 32 351 0 q 394 67 351 67 l 408 67 l 408 118 q 217 156 308 122 q 74 244 125 190 q 44 258 56 246 q 32 288 32 269 q 44 318 32 306 q 75 331 57 331 l 79 331 q 182 440 136 365 q 228 581 228 515 l 219 663 l 275 638 l 265 718 l 322 686 l 322 765 l 382 721 l 382 799 l 442 760 l 446 840 l 504 792 l 514 874 l 572 821 l 581 897 l 642 846 l 663 925 l 713 867 l 731 940 l 783 881 l 807 953 l 851 889 l 885 958 l 929 896 l 972 972 l 1010 890 l 1063 958 l 1090 878 l 1150 951 l 1164 863 l 1243 926 l 1232 836 l 1321 883 l 1290 800 l 1378 822 l 1342 757 l 1431 763 l 1381 707 l 1478 707 l 1411 639 l 1510 639 l 1440 585 l 1518 567 l 1443 521 l 1524 494 l 1446 460 l 1514 418 m 464 356 q 517 385 497 363 q 536 439 536 408 q 513 499 536 476 q 456 522 489 522 q 392 496 418 522 l 403 474 q 454 496 426 496 q 500 464 488 496 q 506 436 506 451 q 451 374 506 390 l 464 356 m 294 344 q 345 364 326 344 q 365 418 364 383 l 340 418 q 328 388 340 399 q 294 376 315 376 q 260 388 272 376 q 247 418 247 399 l 222 418 q 242 365 222 385 q 294 344 263 344 z "},"̦":{"ha":0,"x_min":-472,"x_max":-247,"o":"m -343 -332 l -472 -332 l -422 -92 l -247 -92 l -343 -332 z "},"ˉ":{"ha":694,"x_min":94,"x_max":600,"o":"m 600 804 l 94 804 l 94 931 l 600 931 l 600 804 z "},"´":{"ha":694,"x_min":267,"x_max":547,"o":"m 547 1031 l 408 794 l 267 794 l 364 1031 l 547 1031 z "},"˘":{"ha":694,"x_min":124,"x_max":571,"o":"m 571 1000 q 510 841 571 900 q 347 782 450 782 q 184 841 244 782 q 124 1000 124 900 l 253 1000 q 279 926 253 956 q 347 896 306 896 q 415 926 389 896 q 442 1000 442 956 l 571 1000 z "},"ˇ":{"ha":694,"x_min":99,"x_max":596,"o":"m 443 794 l 251 794 l 99 1031 l 244 1031 l 347 899 l 450 1031 l 596 1031 l 443 794 z "},"¸":{"ha":694,"x_min":183,"x_max":533,"o":"m 322 47 q 478 -24 424 28 q 533 -140 533 -75 q 483 -256 533 -214 q 349 -299 432 -299 q 183 -246 240 -299 l 233 -147 q 277 -178 251 -167 q 332 -189 303 -189 q 387 -169 365 -189 q 408 -115 408 -149 q 378 -49 408 -75 q 264 4 347 -22 l 322 47 z "},"ˆ":{"ha":694,"x_min":99,"x_max":596,"o":"m 450 785 l 347 918 l 244 785 l 99 785 l 251 1022 l 443 1022 l 596 785 l 450 785 z "},"¨":{"ha":694,"x_min":100,"x_max":600,"o":"m 203 979 q 279 953 251 979 q 307 882 307 926 q 279 811 307 838 q 203 785 251 785 q 128 811 156 785 q 100 882 100 838 q 128 953 100 926 q 203 979 156 979 m 494 979 q 572 953 543 979 q 600 882 600 926 q 572 811 600 838 q 494 785 543 785 q 419 811 447 785 q 392 882 392 838 q 419 953 392 926 q 494 979 447 979 z "},"˙":{"ha":694,"x_min":236,"x_max":460,"o":"m 347 1000 q 431 974 401 1000 q 460 899 460 947 q 431 824 460 850 q 347 797 401 797 q 265 824 294 797 q 236 899 236 850 q 265 974 236 947 q 347 1000 294 1000 z "},"`":{"ha":694,"x_min":147,"x_max":428,"o":"m 428 794 l 286 794 l 147 1031 l 331 1031 l 428 794 z "},"˝":{"ha":694,"x_min":96,"x_max":642,"o":"m 232 794 l 96 794 l 196 1031 l 365 1031 l 232 794 m 508 794 l 372 794 l 471 1031 l 642 1031 l 508 794 z "},"¯":{"ha":694,"x_min":94,"x_max":600,"o":"m 600 804 l 94 804 l 94 931 l 600 931 l 600 804 z "},"˛":{"ha":721,"x_min":182,"x_max":497,"o":"m 489 19 q 359 -48 399 -14 q 319 -119 319 -82 q 342 -168 319 -150 q 400 -186 364 -186 q 469 -171 446 -186 l 497 -269 q 365 -299 450 -299 q 233 -259 285 -299 q 182 -150 182 -219 q 239 -27 182 -75 q 407 53 296 21 l 489 19 z "},"˚":{"ha":694,"x_min":165,"x_max":531,"o":"m 349 1111 q 482 1066 433 1111 q 531 944 531 1021 q 482 823 531 868 q 349 778 433 778 q 215 823 264 778 q 165 944 165 868 q 215 1066 165 1021 q 349 1111 264 1111 m 349 1025 q 290 1003 313 1025 q 267 944 267 981 q 290 888 267 910 q 349 865 313 865 q 408 888 385 865 q 431 944 431 910 q 408 1003 431 981 q 349 1025 385 1025 z "},"˜":{"ha":694,"x_min":81,"x_max":614,"o":"m 614 997 q 565 841 608 893 q 440 789 521 789 q 373 803 400 789 q 317 842 346 817 q 284 866 297 858 q 256 874 271 874 q 217 853 231 874 q 197 789 203 832 l 81 789 q 256 997 92 997 q 322 983 296 997 q 378 944 349 969 q 411 920 399 928 q 439 913 424 913 q 478 933 464 913 q 497 997 492 954 l 614 997 z "}}}
